Besley-Condensed Italic.ufo
<glyph name="quotesingle" format="2">
	<advance width="398" height="0"/>
	<unicode hex="0027"/>
	<outline>
		<contour>
			<point x="424" y="1378" type="curve" smooth="yes"/>
			<point x="384" y="1236"/>
			<point x="296" y="1111"/>
			<point x="270" y="996" type="curve" smooth="yes"/>
			<point x="267" y="983"/>
			<point x="266" y="976"/>
			<point x="250" y="976" type="curve" smooth="yes"/>
			<point x="208" y="976" type="line" smooth="yes"/>
			<point x="190" y="976"/>
			<point x="191" y="982"/>
			<point x="193" y="996" type="curve" smooth="yes"/>
			<point x="210" y="1108"/>
			<point x="209" y="1214"/>
			<point x="218" y="1358" type="curve" smooth="yes"/>
			<point x="224" y="1456"/>
			<point x="276" y="1516"/>
			<point x="348" y="1516" type="curve" smooth="yes"/>
			<point x="400" y="1516"/>
			<point x="432" y="1482"/>
			<point x="432" y="1428" type="curve" smooth="yes"/>
			<point x="432" y="1412"/>
			<point x="430" y="1396"/>
		</contour>
	</outline>
</glyph>
<glyph name="parenleft" format="2">
	<advance width="890" height="0"/>
	<unicode hex="0028"/>
	<outline>
		<contour>
			<point x="613" y="-275" type="curve" smooth="yes"/>
			<point x="605" y="-313" type="line" smooth="yes"/>
			<point x="598" y="-348"/>
			<point x="589" y="-337"/>
			<point x="561" y="-326" type="curve" smooth="yes"/>
			<point x="222" y="-193"/>
			<point x="60" y="117"/>
			<point x="60" y="470" type="curve" smooth="yes"/>
			<point x="60" y="1001"/>
			<point x="426" y="1436"/>
			<point x="927" y="1588" type="curve" smooth="yes"/>
			<point x="957" y="1597"/>
			<point x="968" y="1608"/>
			<point x="975" y="1573" type="curve" smooth="yes"/>
			<point x="983" y="1535" type="line" smooth="yes"/>
			<point x="988" y="1508"/>
			<point x="994" y="1502"/>
			<point x="969" y="1493" type="curve" smooth="yes"/>
			<point x="554" y="1347"/>
			<point x="290" y="946"/>
			<point x="290" y="470" type="curve" smooth="yes"/>
			<point x="290" y="177"/>
			<point x="348" y="-63"/>
			<point x="593" y="-223" type="curve" smooth="yes"/>
			<point x="618" y="-239"/>
			<point x="620" y="-240"/>
		</contour>
	</outline>
</glyph>
<glyph name="one" format="2">
	<advance width="700" height="2310"/>
	<unicode hex="0031"/>
	<outline>
		<contour>
			<point x="-32" y="38" type="curve" smooth="yes"/>
			<point x="-32" y="80" type="line" smooth="yes"/>
			<point x="-32" y="109"/>
			<point x="-25" y="110"/>
			<point x="4" y="110" type="curve" smooth="yes"/>
			<point x="122" y="110" type="line" smooth="yes"/>
			<point x="158" y="110"/>
			<point x="166" y="118"/>
			<point x="174" y="152" type="curve" smooth="yes"/>
			<point x="400" y="1173" type="line" smooth="yes"/>
			<point x="408" y="1209"/>
			<point x="407" y="1220"/>
			<point x="372" y="1220" type="curve" smooth="yes"/>
			<point x="275" y="1220" type="line" smooth="yes"/>
			<point x="246" y="1220"/>
			<point x="239" y="1222"/>
			<point x="239" y="1254" type="curve" smooth="yes"/>
			<point x="239" y="1284" type="line" smooth="yes"/>
			<point x="239" y="1320"/>
			<point x="253" y="1329"/>
			<point x="291" y="1330" type="curve" smooth="yes"/>
			<point x="365" y="1331"/>
			<point x="473" y="1345"/>
			<point x="563" y="1538" type="curve" smooth="yes"/>
			<point x="574" y="1561"/>
			<point x="580" y="1580"/>
			<point x="614" y="1580" type="curve" smooth="yes"/>
			<point x="642" y="1580" type="line" smooth="yes"/>
			<point x="667" y="1580"/>
			<point x="681" y="1579"/>
			<point x="675" y="1554" type="curve" smooth="yes"/>
			<point x="366" y="162" type="line" smooth="yes"/>
			<point x="356" y="115"/>
			<point x="360" y="110"/>
			<point x="408" y="110" type="curve" smooth="yes"/>
			<point x="470" y="110" type="line" smooth="yes"/>
			<point x="496" y="110"/>
			<point x="518" y="108.832"/>
			<point x="518" y="80" type="curve" smooth="yes"/>
			<point x="518" y="40" type="line" smooth="yes"/>
			<point x="518" y="8.17"/>
			<point x="506" y="0"/>
			<point x="475" y="0" type="curve" smooth="yes"/>
			<point x="4" y="0" type="line" smooth="yes"/>
			<point x="-26" y="0"/>
			<point x="-32" y="7"/>
		</contour>
	</outline>
</glyph>
<glyph name="two" format="2">
	<advance width="840" height="2310"/>
	<unicode hex="0032"/>
	<outline>
		<contour>
			<point x="712" y="325" type="curve" smooth="yes"/>
			<point x="669" y="63"/>
			<point x="589" y="-20"/>
			<point x="466" y="-20" type="curve" smooth="yes"/>
			<point x="302" y="-20"/>
			<point x="288" y="100"/>
			<point x="192" y="100" type="curve" smooth="yes"/>
			<point x="133" y="100"/>
			<point x="97" y="73"/>
			<point x="67" y="30" type="curve" smooth="yes"/>
			<point x="56" y="13"/>
			<point x="48" y="0"/>
			<point x="21" y="0" type="curve" smooth="yes"/>
			<point x="-27" y="0" type="line" smooth="yes"/>
			<point x="-48" y="0"/>
			<point x="-48" y="10"/>
			<point x="-44" y="29" type="curve" smooth="yes"/>
			<point x="27" y="307"/>
			<point x="166" y="501"/>
			<point x="389" y="698" type="curve" smooth="yes"/>
			<point x="516" y="810"/>
			<point x="632" y="942"/>
			<point x="683" y="1170" type="curve" smooth="yes"/>
			<point x="722" y="1348"/>
			<point x="698" y="1426"/>
			<point x="570" y="1426" type="curve" smooth="yes"/>
			<point x="463" y="1426"/>
			<point x="412" y="1358"/>
			<point x="404" y="1324" type="curve" smooth="yes"/>
			<point x="394" y="1278"/>
			<point x="513" y="1258"/>
			<point x="488" y="1146" type="curve" smooth="yes"/>
			<point x="472" y="1072"/>
			<point x="397" y="1030"/>
			<point x="343" y="1030" type="curve" smooth="yes"/>
			<point x="285" y="1030"/>
			<point x="213" y="1086"/>
			<point x="241" y="1212" type="curve" smooth="yes"/>
			<point x="271" y="1346"/>
			<point x="397" y="1520"/>
			<point x="661" y="1520" type="curve" smooth="yes"/>
			<point x="893" y="1520"/>
			<point x="954" y="1390"/>
			<point x="905" y="1170" type="curve" smooth="yes"/>
			<point x="852" y="930"/>
			<point x="686" y="755"/>
			<point x="413" y="580" type="curve" smooth="yes"/>
			<point x="278" y="493"/>
			<point x="168" y="339"/>
			<point x="115" y="204" type="curve" smooth="yes"/>
			<point x="99" y="163"/>
			<point x="70" y="134"/>
			<point x="86" y="134" type="curve" smooth="yes"/>
			<point x="105" y="134"/>
			<point x="115" y="157"/>
			<point x="142" y="191" type="curve" smooth="yes"/>
			<point x="178" y="238"/>
			<point x="230" y="269"/>
			<point x="310" y="269" type="curve" smooth="yes"/>
			<point x="410" y="269"/>
			<point x="420" y="181"/>
			<point x="512" y="181" type="curve" smooth="yes"/>
			<point x="569" y="181"/>
			<point x="590" y="235"/>
			<point x="617" y="327" type="curve" smooth="yes"/>
			<point x="625" y="350"/>
			<point x="625" y="354"/>
			<point x="651" y="354" type="curve" smooth="yes"/>
			<point x="692" y="354" type="line" smooth="yes"/>
			<point x="715" y="354"/>
			<point x="716" y="349"/>
		</contour>
	</outline>
</glyph>
<glyph name="three" format="2">
	<advance width="780" height="2310"/>
	<unicode hex="0033"/>
	<outline>
		<contour>
			<point x="-25" y="248" type="curve" smooth="yes"/>
			<point x="-4" y="344"/>
			<point x="65" y="430"/>
			<point x="143" y="430" type="curve" smooth="yes"/>
			<point x="217" y="430"/>
			<point x="248" y="388"/>
			<point x="232" y="314" type="curve" smooth="yes"/>
			<point x="207" y="202"/>
			<point x="103" y="202"/>
			<point x="93" y="156" type="curve" smooth="yes"/>
			<point x="81" y="102"/>
			<point x="138" y="63"/>
			<point x="206" y="63" type="curve" smooth="yes"/>
			<point x="374" y="63"/>
			<point x="449" y="232"/>
			<point x="482" y="380" type="curve" smooth="yes"/>
			<point x="523" y="564"/>
			<point x="498" y="705"/>
			<point x="353" y="717" type="curve" smooth="yes"/>
			<point x="308" y="721"/>
			<point x="277" y="703"/>
			<point x="277" y="762" type="curve" smooth="yes"/>
			<point x="277" y="780" type="line" smooth="yes"/>
			<point x="277" y="839"/>
			<point x="331" y="823"/>
			<point x="377" y="826" type="curve" smooth="yes"/>
			<point x="520" y="834"/>
			<point x="593" y="1026"/>
			<point x="619" y="1142" type="curve" smooth="yes"/>
			<point x="652" y="1290"/>
			<point x="658" y="1436"/>
			<point x="520" y="1436" type="curve" smooth="yes"/>
			<point x="422" y="1436"/>
			<point x="376" y="1390"/>
			<point x="364" y="1336" type="curve" smooth="yes"/>
			<point x="354" y="1290"/>
			<point x="480" y="1300"/>
			<point x="455" y="1188" type="curve" smooth="yes"/>
			<point x="439" y="1114"/>
			<point x="390" y="1072"/>
			<point x="316" y="1072" type="curve" smooth="yes"/>
			<point x="238" y="1072"/>
			<point x="207" y="1158"/>
			<point x="228" y="1254" type="curve" smooth="yes"/>
			<point x="255" y="1378"/>
			<point x="365" y="1520"/>
			<point x="589" y="1520" type="curve" smooth="yes"/>
			<point x="811" y="1520"/>
			<point x="866" y="1382"/>
			<point x="822" y="1182" type="curve" smooth="yes"/>
			<point x="759" y="896"/>
			<point x="666" y="881"/>
			<point x="587" y="834" type="curve" smooth="yes"/>
			<point x="538" y="805"/>
			<point x="492" y="792"/>
			<point x="487" y="770" type="curve" smooth="yes"/>
			<point x="483" y="754"/>
			<point x="519" y="746"/>
			<point x="559" y="733" type="curve" smooth="yes"/>
			<point x="706" y="683"/>
			<point x="718" y="534"/>
			<point x="684" y="380" type="curve" smooth="yes"/>
			<point x="635" y="160"/>
			<point x="470" y="-20"/>
			<point x="188" y="-20" type="curve" smooth="yes"/>
			<point x="14" y="-20"/>
			<point x="-59" y="94"/>
		</contour>
	</outline>
</glyph>
<glyph name="four" format="2">
	<advance width="870" height="2310"/>
	<unicode hex="0034"/>
	<outline>
		<contour>
			<point x="689" y="84" type="curve" smooth="yes"/>
			<point x="689" y="36" type="line" smooth="yes"/>
			<point x="689" y="13"/>
			<point x="676" y="0"/>
			<point x="652" y="0" type="curve" smooth="yes"/>
			<point x="322" y="0" type="line" smooth="yes"/>
			<point x="297" y="0"/>
			<point x="287" y="5"/>
			<point x="287" y="32" type="curve" smooth="yes"/>
			<point x="287" y="77" type="line" smooth="yes"/>
			<point x="287" y="103"/>
			<point x="299" y="110"/>
			<point x="324" y="110" type="curve" smooth="yes"/>
			<point x="356" y="110" type="line" smooth="yes"/>
			<point x="377" y="110"/>
			<point x="386" y="115"/>
			<point x="390" y="135" type="curve" smooth="yes"/>
			<point x="454" y="422" type="line" smooth="yes"/>
			<point x="461" y="453"/>
			<point x="459" y="460"/>
			<point x="429" y="460" type="curve" smooth="yes"/>
			<point x="126" y="460" type="line" smooth="yes"/>
			<point x="96" y="460"/>
			<point x="90" y="463"/>
			<point x="79" y="477" type="curve" smooth="yes"/>
			<point x="59" y="503" type="line" smooth="yes"/>
			<point x="44" y="522"/>
			<point x="50" y="528"/>
			<point x="67" y="555" type="curve" smooth="yes"/>
			<point x="280" y="886"/>
			<point x="529" y="1050"/>
			<point x="719" y="1447" type="curve" smooth="yes"/>
			<point x="734" y="1477"/>
			<point x="731" y="1500"/>
			<point x="772" y="1500" type="curve" smooth="yes"/>
			<point x="881" y="1500" type="line" smooth="yes"/>
			<point x="922" y="1500"/>
			<point x="928" y="1496"/>
			<point x="915" y="1459" type="curve" smooth="yes"/>
			<point x="769" y="1047"/>
			<point x="456" y="874"/>
			<point x="241" y="618" type="curve" smooth="yes"/>
			<point x="215" y="587"/>
			<point x="219" y="570"/>
			<point x="276" y="570" type="curve" smooth="yes"/>
			<point x="468" y="570" type="line" smooth="yes"/>
			<point x="489" y="570"/>
			<point x="488" y="575"/>
			<point x="492" y="595" type="curve" smooth="yes"/>
			<point x="520" y="720" type="line" smooth="yes"/>
			<point x="527" y="753"/>
			<point x="535" y="752"/>
			<point x="555" y="765" type="curve" smooth="yes"/>
			<point x="610" y="801"/>
			<point x="648" y="848"/>
			<point x="698" y="938" type="curve" smooth="yes"/>
			<point x="708" y="955"/>
			<point x="708" y="970"/>
			<point x="733" y="970" type="curve" smooth="yes"/>
			<point x="739" y="970" type="line" smooth="yes"/>
			<point x="765" y="970"/>
			<point x="763" y="963"/>
			<point x="758" y="939" type="curve" smooth="yes"/>
			<point x="686" y="614" type="line" smooth="yes"/>
			<point x="678" y="576"/>
			<point x="681" y="570"/>
			<point x="718" y="570" type="curve" smooth="yes"/>
			<point x="775" y="570" type="line" smooth="yes"/>
			<point x="802" y="570"/>
			<point x="809" y="563"/>
			<point x="809" y="535" type="curve" smooth="yes"/>
			<point x="809" y="490" type="line" smooth="yes"/>
			<point x="809" y="463"/>
			<point x="794" y="460"/>
			<point x="766" y="460" type="curve" smooth="yes"/>
			<point x="687" y="460" type="line" smooth="yes"/>
			<point x="656" y="460"/>
			<point x="649" y="450"/>
			<point x="643" y="421" type="curve" smooth="yes"/>
			<point x="582" y="146" type="line" smooth="yes"/>
			<point x="575" y="115"/>
			<point x="580" y="110"/>
			<point x="612" y="110" type="curve" smooth="yes"/>
			<point x="649" y="110" type="line" smooth="yes"/>
			<point x="674" y="110"/>
			<point x="689" y="109"/>
		</contour>
	</outline>
</glyph>
<glyph name="five" format="2">
	<advance width="840" height="2310"/>
	<unicode hex="0035"/>
	<outline>
		<contour>
			<point x="-13" y="258" type="curve" smooth="yes"/>
			<point x="11" y="364"/>
			<point x="91" y="410"/>
			<point x="149" y="410" type="curve" smooth="yes"/>
			<point x="203" y="410"/>
			<point x="253" y="368"/>
			<point x="237" y="294" type="curve" smooth="yes"/>
			<point x="221" y="222"/>
			<point x="118" y="182"/>
			<point x="108" y="136" type="curve" smooth="yes"/>
			<point x="100" y="102"/>
			<point x="138" y="64"/>
			<point x="216" y="64" type="curve" smooth="yes"/>
			<point x="394" y="64"/>
			<point x="494" y="252"/>
			<point x="540" y="460" type="curve" smooth="yes"/>
			<point x="599" y="728"/>
			<point x="630" y="902"/>
			<point x="492" y="902" type="curve" smooth="yes"/>
			<point x="409" y="902"/>
			<point x="349" y="869"/>
			<point x="282" y="803" type="curve" smooth="yes"/>
			<point x="263" y="783"/>
			<point x="253" y="774"/>
			<point x="215" y="774" type="curve" smooth="yes"/>
			<point x="173" y="774" type="line" smooth="yes"/>
			<point x="135" y="774"/>
			<point x="140" y="788"/>
			<point x="151" y="818" type="curve" smooth="yes"/>
			<point x="377" y="1462" type="line" smooth="yes"/>
			<point x="388" y="1493"/>
			<point x="397" y="1500"/>
			<point x="431" y="1500" type="curve" smooth="yes"/>
			<point x="577" y="1500" type="line" smooth="yes"/>
			<point x="649" y="1500"/>
			<point x="734" y="1469"/>
			<point x="809" y="1536" type="curve" smooth="yes"/>
			<point x="821" y="1547"/>
			<point x="829" y="1564"/>
			<point x="854" y="1564" type="curve" smooth="yes"/>
			<point x="911" y="1564" type="line" smooth="yes"/>
			<point x="925" y="1564"/>
			<point x="928" y="1562"/>
			<point x="922" y="1550" type="curve" smooth="yes"/>
			<point x="899" y="1500" type="line" smooth="yes"/>
			<point x="827" y="1336"/>
			<point x="787" y="1320"/>
			<point x="513" y="1320" type="curve" smooth="yes"/>
			<point x="469" y="1320" type="line" smooth="yes"/>
			<point x="439" y="1320"/>
			<point x="427" y="1316"/>
			<point x="417" y="1288" type="curve" smooth="yes"/>
			<point x="303" y="966" type="line" smooth="yes"/>
			<point x="286" y="918"/>
			<point x="271" y="894"/>
			<point x="278" y="890" type="curve" smooth="yes"/>
			<point x="290" y="884"/>
			<point x="303" y="902"/>
			<point x="343" y="934" type="curve" smooth="yes"/>
			<point x="381" y="964"/>
			<point x="460" y="1000"/>
			<point x="538" y="1000" type="curve" smooth="yes"/>
			<point x="810" y="1000"/>
			<point x="813" y="780"/>
			<point x="751" y="500" type="curve" smooth="yes"/>
			<point x="684" y="200"/>
			<point x="500" y="-20"/>
			<point x="218" y="-20" type="curve" smooth="yes"/>
			<point x="-6" y="-20"/>
			<point x="-43" y="124"/>
		</contour>
	</outline>
</glyph>
<glyph name="seven" format="2">
	<advance width="818" height="2310"/>
	<unicode hex="0037"/>
	<outline>
		<contour>
			<point x="178" y="1162" type="curve" smooth="yes"/>
			<point x="243" y="1439"/>
			<point x="352" y="1520"/>
			<point x="507" y="1520" type="curve" smooth="yes"/>
			<point x="621" y="1520"/>
			<point x="644" y="1400"/>
			<point x="740" y="1400" type="curve" smooth="yes"/>
			<point x="814" y="1400"/>
			<point x="854" y="1433"/>
			<point x="885" y="1483" type="curve" smooth="yes"/>
			<point x="893" y="1496"/>
			<point x="895" y="1500"/>
			<point x="914" y="1500" type="curve" smooth="yes"/>
			<point x="983" y="1500" type="line" smooth="yes"/>
			<point x="1006" y="1500"/>
			<point x="1001" y="1494"/>
			<point x="993" y="1473" type="curve" smooth="yes"/>
			<point x="936" y="1323"/>
			<point x="743" y="1008"/>
			<point x="579" y="736" type="curve" smooth="yes"/>
			<point x="465" y="548"/>
			<point x="413" y="472"/>
			<point x="393" y="384" type="curve" smooth="yes"/>
			<point x="361" y="238"/>
			<point x="420" y="208"/>
			<point x="400" y="116" type="curve" smooth="yes"/>
			<point x="384" y="42"/>
			<point x="330" y="-20"/>
			<point x="242" y="-20" type="curve" smooth="yes"/>
			<point x="164" y="-20"/>
			<point x="126" y="54"/>
			<point x="157" y="192" type="curve" smooth="yes"/>
			<point x="196" y="370"/>
			<point x="329" y="554"/>
			<point x="467" y="762" type="curve" smooth="yes"/>
			<point x="571" y="918"/>
			<point x="671" y="1097"/>
			<point x="759" y="1254" type="curve" smooth="yes"/>
			<point x="771" y="1276"/>
			<point x="781" y="1291"/>
			<point x="777" y="1296" type="curve" smooth="yes"/>
			<point x="773" y="1301"/>
			<point x="757" y="1283"/>
			<point x="735" y="1277" type="curve" smooth="yes"/>
			<point x="707" y="1269"/>
			<point x="677" y="1266"/>
			<point x="641" y="1266" type="curve" smooth="yes"/>
			<point x="541" y="1266"/>
			<point x="516" y="1334"/>
			<point x="434" y="1334" type="curve" smooth="yes"/>
			<point x="333" y="1334"/>
			<point x="301" y="1281"/>
			<point x="272" y="1166" type="curve" smooth="yes"/>
			<point x="269" y="1151"/>
			<point x="267" y="1146"/>
			<point x="252" y="1146" type="curve" smooth="yes"/>
			<point x="196" y="1146" type="line" smooth="yes"/>
			<point x="181" y="1146"/>
			<point x="175" y="1147"/>
		</contour>
	</outline>
</glyph>
<glyph name="nine" format="2">
	<advance width="840" height="2310"/>
	<unicode hex="0039"/>
	<outline>
		<contour>
			<point x="178" y="108" type="curve" smooth="yes"/>
			<point x="172" y="82"/>
			<point x="208" y="64"/>
			<point x="256" y="64" type="curve" smooth="yes"/>
			<point x="418" y="64"/>
			<point x="499" y="307"/>
			<point x="580" y="600" type="curve" smooth="yes"/>
			<point x="589" y="633"/>
			<point x="596" y="646"/>
			<point x="590" y="650" type="curve" smooth="yes"/>
			<point x="583" y="654"/>
			<point x="575" y="641"/>
			<point x="555" y="621" type="curve" smooth="yes"/>
			<point x="508" y="577"/>
			<point x="440" y="540"/>
			<point x="338" y="540" type="curve" smooth="yes"/>
			<point x="136" y="540"/>
			<point x="65" y="700"/>
			<point x="138" y="1030" type="curve" smooth="yes"/>
			<point x="207" y="1340"/>
			<point x="397" y="1520"/>
			<point x="609" y="1520" type="curve" smooth="yes"/>
			<point x="861" y="1520"/>
			<point x="942" y="1320"/>
			<point x="818" y="760" type="curve" smooth="yes"/>
			<point x="712" y="280"/>
			<point x="520" y="-20"/>
			<point x="218" y="-20" type="curve" smooth="yes"/>
			<point x="84" y="-20"/>
			<point x="7" y="74"/>
			<point x="32" y="188" type="curve" smooth="yes"/>
			<point x="58" y="304"/>
			<point x="138" y="350"/>
			<point x="196" y="350" type="curve" smooth="yes"/>
			<point x="250" y="350"/>
			<point x="300" y="308"/>
			<point x="284" y="234" type="curve" smooth="yes"/>
			<point x="268" y="162"/>
			<point x="184" y="134"/>
		</contour>
		<contour>
			<point x="338" y="1030" type="curve" smooth="yes"/>
			<point x="287" y="802"/>
			<point x="315" y="638"/>
			<point x="423" y="638" type="curve" smooth="yes"/>
			<point x="549" y="638"/>
			<point x="623" y="780"/>
			<point x="658" y="940" type="curve" smooth="yes"/>
			<point x="724" y="1238"/>
			<point x="747" y="1430"/>
			<point x="589" y="1430" type="curve" smooth="yes"/>
			<point x="461" y="1430"/>
			<point x="386" y="1248"/>
		</contour>
	</outline>
</glyph>
<glyph name="equal" format="2">
	<advance width="1120" height="0"/>
	<unicode hex="003D"/>
	<outline>
		<contour>
			<point x="192" y="980" type="curve" smooth="yes"/>
			<point x="1002" y="980" type="line" smooth="yes"/>
			<point x="1032" y="980"/>
			<point x="1035" y="976"/>
			<point x="1035" y="952" type="curve" smooth="yes"/>
			<point x="1035" y="903" type="line" smooth="yes"/>
			<point x="1035" y="879"/>
			<point x="1033" y="870"/>
			<point x="999" y="870" type="curve" smooth="yes"/>
			<point x="189" y="870" type="line" smooth="yes"/>
			<point x="157" y="870"/>
			<point x="155" y="874"/>
			<point x="155" y="900" type="curve" smooth="yes"/>
			<point x="155" y="952" type="line" smooth="yes"/>
			<point x="155" y="975"/>
			<point x="165" y="980"/>
		</contour>
		<contour>
			<point x="129" y="680" type="curve" smooth="yes"/>
			<point x="939" y="680" type="line" smooth="yes"/>
			<point x="969" y="680"/>
			<point x="972" y="676"/>
			<point x="972" y="652" type="curve" smooth="yes"/>
			<point x="972" y="603" type="line" smooth="yes"/>
			<point x="972" y="579"/>
			<point x="970" y="570"/>
			<point x="936" y="570" type="curve" smooth="yes"/>
			<point x="126" y="570" type="line" smooth="yes"/>
			<point x="94" y="570"/>
			<point x="92" y="574"/>
			<point x="92" y="600" type="curve" smooth="yes"/>
			<point x="92" y="652" type="line" smooth="yes"/>
			<point x="92" y="675"/>
			<point x="102" y="680"/>
		</contour>
	</outline>
</glyph>
<glyph name="A" format="2">
	<advance width="1210" height="0"/>
	<unicode hex="0041"/>
	<anchor x="723" y="1500" name="Anchor-0"/>
	<anchor x="436" y="0" name="Anchor-1"/>
	<anchor x="436" y="0" name="Anchor-2"/>
	<anchor x="826" y="0" name="Anchor-3"/>
	<outline>
		<contour>
			<point x="644" y="1268" type="curve" smooth="yes"/>
			<point x="329" y="598" type="line" smooth="yes"/>
			<point x="313.058" y="564.092"/>
			<point x="311" y="550"/>
			<point x="354" y="550" type="curve" smooth="yes"/>
			<point x="666" y="550" type="line" smooth="yes"/>
			<point x="717" y="550"/>
			<point x="716.957" y="552.866"/>
			<point x="716" y="596" type="curve" smooth="yes"/>
			<point x="701" y="1272" type="line" smooth="yes"/>
			<point x="699.843" y="1324.152"/>
			<point x="703" y="1346"/>
			<point x="688" y="1346" type="curve" smooth="yes"/>
			<point x="677" y="1346"/>
			<point x="663.927" y="1310.385"/>
		</contour>
		<contour>
			<point x="-150" y="34" type="curve" smooth="yes"/>
			<point x="-150" y="72" type="line" smooth="yes"/>
			<point x="-150" y="101"/>
			<point x="-149" y="110"/>
			<point x="-120" y="110" type="curve" smooth="yes"/>
			<point x="-72" y="110" type="line" smooth="yes"/>
			<point x="-35" y="110"/>
			<point x="-40" y="122"/>
			<point x="-26" y="144" type="curve" smooth="yes"/>
			<point x="632" y="1482" type="line" smooth="yes"/>
			<point x="644" y="1501"/>
			<point x="649" y="1510"/>
			<point x="683" y="1510" type="curve" smooth="yes"/>
			<point x="818" y="1510" type="line" smooth="yes"/>
			<point x="854" y="1510"/>
			<point x="861" y="1504"/>
			<point x="866" y="1474" type="curve" smooth="yes"/>
			<point x="932" y="160" type="line" smooth="yes"/>
			<point x="934.428" y="111.67"/>
			<point x="960" y="110"/>
			<point x="997" y="110" type="curve" smooth="yes"/>
			<point x="1013" y="110" type="line" smooth="yes"/>
			<point x="1042" y="110"/>
			<point x="1047" y="104"/>
			<point x="1047" y="74" type="curve" smooth="yes"/>
			<point x="1047" y="34" type="line" smooth="yes"/>
			<point x="1047" y="4"/>
			<point x="1040" y="0"/>
			<point x="1009" y="0" type="curve" smooth="yes"/>
			<point x="639" y="0" type="line" smooth="yes"/>
			<point x="613" y="0"/>
			<point x="613" y="7"/>
			<point x="613" y="33" type="curve" smooth="yes"/>
			<point x="613" y="78" type="line" smooth="yes"/>
			<point x="613" y="110"/>
			<point x="620" y="110"/>
			<point x="652" y="110" type="curve" smooth="yes"/>
			<point x="693" y="110" type="line" smooth="yes"/>
			<point x="727" y="110"/>
			<point x="738.92" y="112.79"/>
			<point x="737" y="150" type="curve" smooth="yes"/>
			<point x="724" y="402" type="line" smooth="yes"/>
			<point x="722.255" y="437.161"/>
			<point x="704" y="440"/>
			<point x="666" y="440" type="curve" smooth="yes"/>
			<point x="302" y="440" type="line" smooth="yes"/>
			<point x="269" y="440"/>
			<point x="250" y="440"/>
			<point x="238" y="420" type="curve" smooth="yes"/>
			<point x="105" y="144" type="line" smooth="yes"/>
			<point x="94.338" y="121.874"/>
			<point x="103" y="110"/>
			<point x="145" y="110" type="curve" smooth="yes"/>
			<point x="176" y="110" type="line" smooth="yes"/>
			<point x="198" y="110"/>
			<point x="210" y="106"/>
			<point x="210" y="82" type="curve" smooth="yes"/>
			<point x="210" y="38" type="line" smooth="yes"/>
			<point x="210" y="5"/>
			<point x="204" y="0"/>
			<point x="170" y="0" type="curve" smooth="yes"/>
			<point x="-122" y="0" type="line" smooth="yes"/>
			<point x="-153" y="0"/>
			<point x="-150" y="4"/>
		</contour>
	</outline>
</glyph>
<glyph name="B" format="2">
	<advance width="1018" height="0"/>
	<unicode hex="0042"/>
	<anchor x="583" y="1500" name="Anchor-0"/>
	<anchor x="296" y="0" name="Anchor-1"/>
	<anchor x="296" y="0" name="Anchor-2"/>
	<outline>
		<contour>
			<point x="394" y="0" type="curve" smooth="yes"/>
			<point x="-70" y="0" type="line" smooth="yes"/>
			<point x="-104" y="0"/>
			<point x="-110" y="5"/>
			<point x="-110" y="41" type="curve" smooth="yes"/>
			<point x="-110" y="85" type="line" smooth="yes"/>
			<point x="-110" y="104"/>
			<point x="-104" y="110"/>
			<point x="-86" y="110" type="curve" smooth="yes"/>
			<point x="-34" y="110" type="line" smooth="yes"/>
			<point x="6" y="110"/>
			<point x="19" y="115"/>
			<point x="26" y="149" type="curve" smooth="yes"/>
			<point x="283" y="1353" type="line" smooth="yes"/>
			<point x="290" y="1386"/>
			<point x="286" y="1390"/>
			<point x="244" y="1390" type="curve" smooth="yes"/>
			<point x="236" y="1390" type="line" smooth="yes"/>
			<point x="207" y="1390"/>
			<point x="196" y="1393"/>
			<point x="196" y="1425" type="curve" smooth="yes"/>
			<point x="196" y="1479" type="line" smooth="yes"/>
			<point x="196" y="1498"/>
			<point x="204" y="1500"/>
			<point x="224" y="1500" type="curve" smooth="yes"/>
			<point x="674" y="1500" type="line" smooth="yes"/>
			<point x="946" y="1500"/>
			<point x="1029" y="1380"/>
			<point x="1029" y="1220" type="curve" smooth="yes"/>
			<point x="1029" y="1016"/>
			<point x="918" y="852"/>
			<point x="764" y="795" type="curve" smooth="yes"/>
			<point x="739.889" y="786.076"/>
			<point x="729" y="785"/>
			<point x="729" y="776" type="curve" smooth="yes"/>
			<point x="729" y="767"/>
			<point x="752.04" y="760.983"/>
			<point x="773" y="752" type="curve" smooth="yes"/>
			<point x="850" y="719"/>
			<point x="911" y="651"/>
			<point x="911" y="530" type="curve" smooth="yes"/>
			<point x="911" y="290"/>
			<point x="776" y="0"/>
		</contour>
		<contour>
			<point x="374" y="110" type="line" smooth="yes"/>
			<point x="656" y="110"/>
			<point x="704" y="412"/>
			<point x="704" y="550" type="curve" smooth="yes"/>
			<point x="704" y="658"/>
			<point x="646" y="720"/>
			<point x="534" y="720" type="curve" smooth="yes"/>
			<point x="384" y="720" type="line" smooth="yes"/>
			<point x="351" y="720"/>
			<point x="346" y="711"/>
			<point x="340" y="683" type="curve" smooth="yes"/>
			<point x="226" y="151" type="line" smooth="yes"/>
			<point x="220" y="124"/>
			<point x="217" y="110"/>
			<point x="254" y="110" type="curve" smooth="yes"/>
		</contour>
		<contour>
			<point x="414" y="830" type="curve" smooth="yes"/>
			<point x="534" y="830" type="line" smooth="yes"/>
			<point x="736" y="830"/>
			<point x="829" y="1002"/>
			<point x="829" y="1220" type="curve" smooth="yes"/>
			<point x="829" y="1338"/>
			<point x="766" y="1390"/>
			<point x="644" y="1390" type="curve" smooth="yes"/>
			<point x="524" y="1390" type="line" smooth="yes"/>
			<point x="489" y="1390"/>
			<point x="490" y="1387"/>
			<point x="484" y="1359" type="curve" smooth="yes"/>
			<point x="380" y="871" type="line" smooth="yes"/>
			<point x="373" y="840"/>
			<point x="372" y="830"/>
		</contour>
	</outline>
</glyph>
<glyph name="C" format="2">
	<advance width="1109" height="0"/>
	<unicode hex="0043"/>
	<anchor x="795" y="1500" name="Anchor-0"/>
	<anchor x="447" y="0" name="Anchor-1"/>
	<anchor x="447" y="0" name="Anchor-2"/>
	<outline>
		<contour>
			<point x="1012" y="553" type="curve" smooth="yes"/>
			<point x="921" y="313"/>
			<point x="775" y="-20"/>
			<point x="430" y="-20" type="curve" smooth="yes"/>
			<point x="124" y="-20"/>
			<point x="9" y="120"/>
			<point x="9" y="420" type="curve" smooth="yes"/>
			<point x="9" y="842"/>
			<point x="244" y="1520"/>
			<point x="720" y="1520" type="curve" smooth="yes"/>
			<point x="874" y="1520"/>
			<point x="945" y="1441"/>
			<point x="982" y="1376" type="curve" smooth="yes"/>
			<point x="997.776" y="1348.285"/>
			<point x="1000" y="1351"/>
			<point x="1017" y="1380" type="curve" smooth="yes"/>
			<point x="1075" y="1484" type="line" smooth="yes"/>
			<point x="1082" y="1496"/>
			<point x="1092" y="1500"/>
			<point x="1112" y="1500" type="curve" smooth="yes"/>
			<point x="1172" y="1500" type="line" smooth="yes"/>
			<point x="1192" y="1500"/>
			<point x="1195" y="1497"/>
			<point x="1191" y="1479" type="curve" smooth="yes"/>
			<point x="1092" y="1023" type="line" smooth="yes"/>
			<point x="1086" y="995"/>
			<point x="1084" y="990"/>
			<point x="1050" y="990" type="curve" smooth="yes"/>
			<point x="1010" y="990" type="line" smooth="yes"/>
			<point x="979" y="990"/>
			<point x="978" y="997"/>
			<point x="980" y="1022" type="curve" smooth="yes"/>
			<point x="997" y="1241"/>
			<point x="899" y="1398"/>
			<point x="736" y="1398" type="curve" smooth="yes"/>
			<point x="384" y="1398"/>
			<point x="209" y="770"/>
			<point x="209" y="420" type="curve" smooth="yes"/>
			<point x="209" y="186"/>
			<point x="278" y="106"/>
			<point x="456" y="106" type="curve" smooth="yes"/>
			<point x="694" y="106"/>
			<point x="826" y="381"/>
			<point x="899" y="562" type="curve" smooth="yes"/>
			<point x="905.866" y="579.025"/>
			<point x="914" y="590"/>
			<point x="939" y="590" type="curve" smooth="yes"/>
			<point x="974" y="590" type="line" smooth="yes"/>
			<point x="1020" y="590"/>
			<point x="1023.099" y="582.271"/>
		</contour>
	</outline>
</glyph>
<glyph name="D" format="2">
	<advance width="1124" height="0"/>
	<unicode hex="0044"/>
	<anchor x="623" y="1500" name="Anchor-0"/>
	<anchor x="303" y="0" name="Anchor-1"/>
	<anchor x="303" y="0" name="Anchor-2"/>
	<outline>
		<contour>
			<point x="-80" y="32" type="curve" smooth="yes"/>
			<point x="-80" y="78" type="line" smooth="yes"/>
			<point x="-80" y="110"/>
			<point x="-70" y="110"/>
			<point x="-38" y="110" type="curve" smooth="yes"/>
			<point x="-6" y="110" type="line" smooth="yes"/>
			<point x="28" y="110"/>
			<point x="32" y="126"/>
			<point x="38" y="152" type="curve" smooth="yes"/>
			<point x="291" y="1338" type="line" smooth="yes"/>
			<point x="301" y="1386"/>
			<point x="298" y="1390"/>
			<point x="238" y="1390" type="curve" smooth="yes"/>
			<point x="232" y="1390" type="line" smooth="yes"/>
			<point x="195" y="1390"/>
			<point x="194" y="1399"/>
			<point x="194" y="1436" type="curve" smooth="yes"/>
			<point x="194" y="1458" type="line" smooth="yes"/>
			<point x="194" y="1492"/>
			<point x="197" y="1500"/>
			<point x="230" y="1500" type="curve" smooth="yes"/>
			<point x="726" y="1500" type="line" smooth="yes"/>
			<point x="1012" y="1500"/>
			<point x="1106" y="1306"/>
			<point x="1106" y="1040" type="curve" smooth="yes"/>
			<point x="1106" y="494"/>
			<point x="832" y="0"/>
			<point x="406" y="0" type="curve" smooth="yes"/>
			<point x="-48" y="0" type="line" smooth="yes"/>
			<point x="-73" y="0"/>
			<point x="-80" y="5"/>
		</contour>
		<contour>
			<point x="278" y="110" type="curve" smooth="yes"/>
			<point x="366" y="110" type="line" smooth="yes"/>
			<point x="674" y="110"/>
			<point x="906" y="596"/>
			<point x="906" y="1080" type="curve" smooth="yes"/>
			<point x="906" y="1304"/>
			<point x="814" y="1390"/>
			<point x="656" y="1390" type="curve" smooth="yes"/>
			<point x="566" y="1390" type="line" smooth="yes"/>
			<point x="509" y="1390"/>
			<point x="501" y="1384"/>
			<point x="491" y="1338" type="curve" smooth="yes"/>
			<point x="238" y="152" type="line" smooth="yes"/>
			<point x="230" y="117"/>
			<point x="232" y="110"/>
		</contour>
	</outline>
</glyph>
<glyph name="E" format="2">
	<advance width="1013" height="0"/>
	<unicode hex="0045"/>
	<anchor x="603" y="1500" name="Anchor-0"/>
	<anchor x="306" y="0" name="Anchor-1"/>
	<anchor x="306" y="0" name="Anchor-2"/>
	<anchor x="586" y="0" name="Anchor-3"/>
	<outline>
		<contour>
			<point x="343" y="692" type="curve" smooth="yes"/>
			<point x="221" y="156" type="line" smooth="yes"/>
			<point x="211" y="114"/>
			<point x="216" y="110"/>
			<point x="270" y="110" type="curve" smooth="yes"/>
			<point x="336" y="110" type="line" smooth="yes"/>
			<point x="599" y="110"/>
			<point x="707" y="189"/>
			<point x="786" y="472" type="curve" smooth="yes"/>
			<point x="794" y="500"/>
			<point x="791" y="510"/>
			<point x="830" y="510" type="curve" smooth="yes"/>
			<point x="860" y="510" type="line" smooth="yes"/>
			<point x="890" y="510"/>
			<point x="895" y="507"/>
			<point x="890" y="484" type="curve" smooth="yes"/>
			<point x="787" y="46" type="line" smooth="yes"/>
			<point x="778" y="7"/>
			<point x="771" y="0"/>
			<point x="722" y="0" type="curve" smooth="yes"/>
			<point x="-44" y="0" type="line" smooth="yes"/>
			<point x="-68" y="0"/>
			<point x="-80" y="3"/>
			<point x="-80" y="30" type="curve" smooth="yes"/>
			<point x="-80" y="64" type="line" smooth="yes"/>
			<point x="-80" y="102"/>
			<point x="-77" y="110"/>
			<point x="-40" y="110" type="curve" smooth="yes"/>
			<point x="-32" y="110" type="line" smooth="yes"/>
			<point x="14" y="110"/>
			<point x="12" y="115"/>
			<point x="20" y="152" type="curve" smooth="yes"/>
			<point x="292" y="1345" type="line" smooth="yes"/>
			<point x="301" y="1386"/>
			<point x="292" y="1390"/>
			<point x="252" y="1390" type="curve" smooth="yes"/>
			<point x="248" y="1390" type="line" smooth="yes"/>
			<point x="211" y="1390"/>
			<point x="208" y="1398"/>
			<point x="208" y="1436" type="curve" smooth="yes"/>
			<point x="208" y="1468" type="line" smooth="yes"/>
			<point x="208" y="1497"/>
			<point x="230" y="1500"/>
			<point x="256" y="1500" type="curve" smooth="yes"/>
			<point x="1022" y="1500" type="line" smooth="yes"/>
			<point x="1080" y="1500"/>
			<point x="1088" y="1499"/>
			<point x="1077" y="1452" type="curve" smooth="yes"/>
			<point x="990" y="1072" type="line" smooth="yes"/>
			<point x="981" y="1035"/>
			<point x="983" y="1030"/>
			<point x="936" y="1030" type="curve" smooth="yes"/>
			<point x="907" y="1030" type="line" smooth="yes"/>
			<point x="874" y="1030"/>
			<point x="885" y="1051"/>
			<point x="889" y="1074" type="curve" smooth="yes"/>
			<point x="934" y="1313"/>
			<point x="881" y="1390"/>
			<point x="660" y="1390" type="curve" smooth="yes"/>
			<point x="560" y="1390" type="line" smooth="yes"/>
			<point x="495" y="1390"/>
			<point x="499" y="1381"/>
			<point x="487" y="1330" type="curve" smooth="yes"/>
			<point x="381" y="862" type="line" smooth="yes"/>
			<point x="372" y="822"/>
			<point x="374" y="816"/>
			<point x="426" y="816" type="curve" smooth="yes"/>
			<point x="456" y="816" type="line" smooth="yes"/>
			<point x="570" y="816"/>
			<point x="603" y="891"/>
			<point x="650" y="1002" type="curve" smooth="yes"/>
			<point x="659" y="1024"/>
			<point x="657" y="1046"/>
			<point x="689" y="1046" type="curve" smooth="yes"/>
			<point x="720" y="1046" type="line" smooth="yes"/>
			<point x="756" y="1046"/>
			<point x="754" y="1037"/>
			<point x="747" y="1008" type="curve" smooth="yes"/>
			<point x="635" y="532" type="line" smooth="yes"/>
			<point x="629" y="507"/>
			<point x="633" y="496"/>
			<point x="600" y="496" type="curve" smooth="yes"/>
			<point x="568" y="496" type="line" smooth="yes"/>
			<point x="534" y="496"/>
			<point x="542" y="522"/>
			<point x="544" y="546" type="curve" smooth="yes"/>
			<point x="554" y="655"/>
			<point x="548" y="736"/>
			<point x="456" y="736" type="curve" smooth="yes"/>
			<point x="400" y="736" type="line" smooth="yes"/>
			<point x="350" y="736"/>
			<point x="352" y="732"/>
		</contour>
	</outline>
</glyph>
<glyph name="F" format="2">
	<advance width="978" height="0"/>
	<unicode hex="0046"/>
	<anchor x="673" y="1500" name="Anchor-0"/>
	<anchor x="86" y="0" name="Anchor-1"/>
	<anchor x="86" y="0" name="Anchor-2"/>
	<outline>
		<contour>
			<point x="-110" y="42" type="curve" smooth="yes"/>
			<point x="-110" y="78" type="line" smooth="yes"/>
			<point x="-110" y="107"/>
			<point x="-97" y="110"/>
			<point x="-70" y="110" type="curve" smooth="yes"/>
			<point x="-24" y="110" type="line" smooth="yes"/>
			<point x="15" y="110"/>
			<point x="12" y="115"/>
			<point x="19" y="146" type="curve" smooth="yes"/>
			<point x="292" y="1350" type="line" smooth="yes"/>
			<point x="300" y="1385"/>
			<point x="297" y="1390"/>
			<point x="252" y="1390" type="curve" smooth="yes"/>
			<point x="238" y="1390" type="line" smooth="yes"/>
			<point x="197" y="1390"/>
			<point x="188" y="1391"/>
			<point x="188" y="1432" type="curve" smooth="yes"/>
			<point x="188" y="1466" type="line" smooth="yes"/>
			<point x="188" y="1497"/>
			<point x="199" y="1500"/>
			<point x="228" y="1500" type="curve" smooth="yes"/>
			<point x="1032" y="1500" type="line" smooth="yes"/>
			<point x="1089" y="1500"/>
			<point x="1088" y="1496"/>
			<point x="1077" y="1449" type="curve" smooth="yes"/>
			<point x="990" y="1072" type="line" smooth="yes"/>
			<point x="982" y="1038"/>
			<point x="986" y="1030"/>
			<point x="942" y="1030" type="curve" smooth="yes"/>
			<point x="914" y="1030" type="line" smooth="yes"/>
			<point x="880" y="1030"/>
			<point x="883" y="1044"/>
			<point x="888" y="1068" type="curve" smooth="yes"/>
			<point x="935" y="1312"/>
			<point x="883" y="1390"/>
			<point x="660" y="1390" type="curve" smooth="yes"/>
			<point x="560" y="1390" type="line" smooth="yes"/>
			<point x="505" y="1390"/>
			<point x="500" y="1386"/>
			<point x="490" y="1341" type="curve" smooth="yes"/>
			<point x="372" y="820" type="line" smooth="yes"/>
			<point x="367" y="799"/>
			<point x="373" y="796"/>
			<point x="400" y="796" type="curve" smooth="yes"/>
			<point x="466" y="796" type="line" smooth="yes"/>
			<point x="622" y="796"/>
			<point x="636" y="873"/>
			<point x="682" y="986" type="curve" smooth="yes"/>
			<point x="690" y="1006"/>
			<point x="687" y="1026"/>
			<point x="716" y="1026" type="curve" smooth="yes"/>
			<point x="756" y="1026" type="line" smooth="yes"/>
			<point x="781" y="1026"/>
			<point x="785" y="1021"/>
			<point x="781" y="1002" type="curve" smooth="yes"/>
			<point x="661" y="478" type="line" smooth="yes"/>
			<point x="657" y="459"/>
			<point x="651" y="456"/>
			<point x="627" y="456" type="curve" smooth="yes"/>
			<point x="604" y="456" type="line" smooth="yes"/>
			<point x="565" y="456"/>
			<point x="571" y="471"/>
			<point x="574" y="500" type="curve" smooth="yes"/>
			<point x="587" y="612"/>
			<point x="580" y="696"/>
			<point x="456" y="696" type="curve" smooth="yes"/>
			<point x="374" y="696" type="line" smooth="yes"/>
			<point x="355" y="696"/>
			<point x="344" y="696"/>
			<point x="340" y="680" type="curve" smooth="yes"/>
			<point x="219" y="146" type="line" smooth="yes"/>
			<point x="213" y="117"/>
			<point x="214" y="110"/>
			<point x="252" y="110" type="curve" smooth="yes"/>
			<point x="298" y="110" type="line" smooth="yes"/>
			<point x="323" y="110"/>
			<point x="324" y="101"/>
			<point x="324" y="76" type="curve" smooth="yes"/>
			<point x="324" y="34" type="line" smooth="yes"/>
			<point x="324" y="3"/>
			<point x="313" y="0"/>
			<point x="284" y="0" type="curve" smooth="yes"/>
			<point x="-76" y="0" type="line" smooth="yes"/>
			<point x="-109" y="0"/>
			<point x="-110" y="9"/>
		</contour>
	</outline>
</glyph>
<glyph name="G" format="2">
	<advance width="1150" height="0"/>
	<unicode hex="0047"/>
	<anchor x="815" y="1500" name="Anchor-0"/>
	<anchor x="387" y="0" name="Anchor-1"/>
	<anchor x="387" y="0" name="Anchor-2"/>
	<outline>
		<contour>
			<point x="726" y="740" type="curve" smooth="yes"/>
			<point x="1066" y="740" type="line" smooth="yes"/>
			<point x="1089" y="740"/>
			<point x="1104" y="737"/>
			<point x="1104" y="712" type="curve" smooth="yes"/>
			<point x="1104" y="650" type="line" smooth="yes"/>
			<point x="1104" y="614"/>
			<point x="1097" y="610"/>
			<point x="1060" y="610" type="curve" smooth="yes"/>
			<point x="1036" y="610" type="line" smooth="yes"/>
			<point x="1000" y="610"/>
			<point x="1005" y="594"/>
			<point x="997" y="568" type="curve" smooth="yes"/>
			<point x="944" y="384" type="line" smooth="yes"/>
			<point x="936" y="358"/>
			<point x="928.632" y="339.822"/>
			<point x="919" y="318" type="curve" smooth="yes"/>
			<point x="855" y="173"/>
			<point x="670" y="-20"/>
			<point x="418" y="-20" type="curve" smooth="yes"/>
			<point x="132" y="-20"/>
			<point x="10" y="164"/>
			<point x="10" y="390" type="curve" smooth="yes"/>
			<point x="10" y="852"/>
			<point x="244" y="1520"/>
			<point x="740" y="1520" type="curve" smooth="yes"/>
			<point x="840" y="1520"/>
			<point x="937" y="1487"/>
			<point x="984" y="1436" type="curve" smooth="yes"/>
			<point x="1017.068" y="1400.118"/>
			<point x="1015" y="1384"/>
			<point x="1043" y="1432" type="curve" smooth="yes"/>
			<point x="1069" y="1476" type="line" smooth="yes"/>
			<point x="1079" y="1494"/>
			<point x="1089" y="1500"/>
			<point x="1118" y="1500" type="curve" smooth="yes"/>
			<point x="1162" y="1500" type="line" smooth="yes"/>
			<point x="1192" y="1500"/>
			<point x="1193" y="1496"/>
			<point x="1188" y="1471" type="curve" smooth="yes"/>
			<point x="1093" y="1026" type="line" smooth="yes"/>
			<point x="1087" y="1000"/>
			<point x="1082" y="990"/>
			<point x="1048" y="990" type="curve" smooth="yes"/>
			<point x="1006" y="990" type="line" smooth="yes"/>
			<point x="979" y="990"/>
			<point x="977" y="998"/>
			<point x="979" y="1020" type="curve" smooth="yes"/>
			<point x="998" y="1240"/>
			<point x="990" y="1398"/>
			<point x="776" y="1398" type="curve" smooth="yes"/>
			<point x="354" y="1398"/>
			<point x="200" y="740"/>
			<point x="200" y="390" type="curve" smooth="yes"/>
			<point x="200" y="196"/>
			<point x="292" y="84"/>
			<point x="410" y="84" type="curve" smooth="yes"/>
			<point x="519" y="84"/>
			<point x="612" y="147"/>
			<point x="694" y="251" type="curve" smooth="yes"/>
			<point x="714.158" y="276.567"/>
			<point x="728" y="293"/>
			<point x="739" y="330" type="curve" smooth="yes"/>
			<point x="792" y="580" type="line" smooth="yes"/>
			<point x="799" y="606"/>
			<point x="791" y="610"/>
			<point x="762" y="610" type="curve" smooth="yes"/>
			<point x="740" y="610" type="line" smooth="yes"/>
			<point x="710" y="610"/>
			<point x="704" y="615"/>
			<point x="704" y="644" type="curve" smooth="yes"/>
			<point x="704" y="714" type="line" smooth="yes"/>
			<point x="704" y="733"/>
			<point x="708" y="740"/>
		</contour>
	</outline>
</glyph>
<glyph name="H" format="2">
	<advance width="1196" height="0"/>
	<unicode hex="0048"/>
	<anchor x="765" y="1500" name="Anchor-0"/>
	<anchor x="446" y="0" name="Anchor-1"/>
	<anchor x="446" y="0" name="Anchor-2"/>
	<outline>
		<contour>
			<point x="-110" y="44" type="curve" smooth="yes"/>
			<point x="-110" y="80" type="line" smooth="yes"/>
			<point x="-110" y="108"/>
			<point x="-95" y="110"/>
			<point x="-70" y="110" type="curve" smooth="yes"/>
			<point x="-26" y="110" type="line" smooth="yes"/>
			<point x="20" y="110"/>
			<point x="15.705" y="112.063"/>
			<point x="26" y="160" type="curve" smooth="yes"/>
			<point x="282" y="1352" type="line" smooth="yes"/>
			<point x="289" y="1385"/>
			<point x="283" y="1390"/>
			<point x="246" y="1390" type="curve" smooth="yes"/>
			<point x="214" y="1390" type="line" smooth="yes"/>
			<point x="183" y="1390"/>
			<point x="174" y="1391"/>
			<point x="174" y="1422" type="curve" smooth="yes"/>
			<point x="174" y="1464" type="line" smooth="yes"/>
			<point x="174" y="1491"/>
			<point x="175" y="1500"/>
			<point x="202" y="1500" type="curve" smooth="yes"/>
			<point x="600" y="1500" type="line" smooth="yes"/>
			<point x="633" y="1500"/>
			<point x="634" y="1491"/>
			<point x="634" y="1458" type="curve" smooth="yes"/>
			<point x="634" y="1430" type="line" smooth="yes"/>
			<point x="634" y="1396"/>
			<point x="629" y="1390"/>
			<point x="596" y="1390" type="curve" smooth="yes"/>
			<point x="544" y="1390" type="line" smooth="yes"/>
			<point x="492" y="1390"/>
			<point x="488" y="1386"/>
			<point x="479" y="1343" type="curve" smooth="yes"/>
			<point x="378" y="872" type="line" smooth="yes"/>
			<point x="370" y="835"/>
			<point x="373" y="830"/>
			<point x="420" y="830" type="curve" smooth="yes"/>
			<point x="820" y="830" type="line" smooth="yes"/>
			<point x="866" y="830"/>
			<point x="861" y="840"/>
			<point x="869" y="876" type="curve" smooth="yes"/>
			<point x="970" y="1348" type="line" smooth="yes"/>
			<point x="978" y="1384"/>
			<point x="975" y="1390"/>
			<point x="934" y="1390" type="curve" smooth="yes"/>
			<point x="902" y="1390" type="line" smooth="yes"/>
			<point x="872" y="1390"/>
			<point x="864" y="1393"/>
			<point x="864" y="1422" type="curve" smooth="yes"/>
			<point x="864" y="1468" type="line" smooth="yes"/>
			<point x="864" y="1495"/>
			<point x="872" y="1500"/>
			<point x="898" y="1500" type="curve" smooth="yes"/>
			<point x="1270" y="1500" type="line" smooth="yes"/>
			<point x="1304" y="1500"/>
			<point x="1304" y="1500"/>
			<point x="1304" y="1466" type="curve" smooth="yes"/>
			<point x="1304" y="1434" type="line" smooth="yes"/>
			<point x="1304" y="1395"/>
			<point x="1298" y="1390"/>
			<point x="1260" y="1390" type="curve" smooth="yes"/>
			<point x="1234" y="1390" type="line" smooth="yes"/>
			<point x="1179" y="1390"/>
			<point x="1179" y="1387"/>
			<point x="1169" y="1342" type="curve" smooth="yes"/>
			<point x="915" y="156" type="line" smooth="yes"/>
			<point x="906.414" y="115.911"/>
			<point x="908" y="110"/>
			<point x="960" y="110" type="curve" smooth="yes"/>
			<point x="1008" y="110" type="line" smooth="yes"/>
			<point x="1037" y="110"/>
			<point x="1040" y="102"/>
			<point x="1040" y="72" type="curve" smooth="yes"/>
			<point x="1040" y="32" type="line" smooth="yes"/>
			<point x="1040" y="7"/>
			<point x="1035" y="0"/>
			<point x="1008" y="0" type="curve" smooth="yes"/>
			<point x="614" y="0" type="line" smooth="yes"/>
			<point x="581" y="0"/>
			<point x="570" y="3"/>
			<point x="570" y="38" type="curve" smooth="yes"/>
			<point x="570" y="74" type="line" smooth="yes"/>
			<point x="570" y="108"/>
			<point x="583" y="110"/>
			<point x="614" y="110" type="curve" smooth="yes"/>
			<point x="660" y="110" type="line" smooth="yes"/>
			<point x="696" y="110"/>
			<point x="705.853" y="112.031"/>
			<point x="714" y="150" type="curve" smooth="yes"/>
			<point x="826" y="672" type="line" smooth="yes"/>
			<point x="835" y="712"/>
			<point x="834" y="720"/>
			<point x="782" y="720" type="curve" smooth="yes"/>
			<point x="390" y="720" type="line" smooth="yes"/>
			<point x="336" y="720"/>
			<point x="343" y="705"/>
			<point x="334" y="662" type="curve" smooth="yes"/>
			<point x="223" y="148" type="line" smooth="yes"/>
			<point x="216.292" y="116.937"/>
			<point x="218" y="110"/>
			<point x="258" y="110" type="curve" smooth="yes"/>
			<point x="302" y="110" type="line" smooth="yes"/>
			<point x="339" y="110"/>
			<point x="340" y="101"/>
			<point x="340" y="64" type="curve" smooth="yes"/>
			<point x="340" y="38" type="line" smooth="yes"/>
			<point x="340" y="7"/>
			<point x="336" y="0"/>
			<point x="306" y="0" type="curve" smooth="yes"/>
			<point x="-68" y="0" type="line" smooth="yes"/>
			<point x="-106" y="0"/>
			<point x="-110" y="8"/>
		</contour>
	</outline>
</glyph>
<glyph name="I" format="2">
	<advance width="520" height="0"/>
	<unicode hex="0049"/>
	<anchor x="420" y="1500" name="Anchor-0"/>
	<anchor x="97" y="0" name="Anchor-1"/>
	<anchor x="97" y="0" name="Anchor-2"/>
	<anchor x="97" y="0" name="Anchor-3"/>
	<outline>
		<contour>
			<point x="-105" y="34" type="curve" smooth="yes"/>
			<point x="-105" y="82" type="line" smooth="yes"/>
			<point x="-105" y="105"/>
			<point x="-97" y="110"/>
			<point x="-75" y="110" type="curve" smooth="yes"/>
			<point x="-31" y="110" type="line" smooth="yes"/>
			<point x="15" y="110"/>
			<point x="21" y="112"/>
			<point x="30" y="151" type="curve" smooth="yes"/>
			<point x="295" y="1348" type="line" smooth="yes"/>
			<point x="304" y="1387"/>
			<point x="299" y="1390"/>
			<point x="249" y="1390" type="curve" smooth="yes"/>
			<point x="217" y="1390" type="line" smooth="yes"/>
			<point x="191" y="1390"/>
			<point x="191" y="1395"/>
			<point x="191" y="1421" type="curve" smooth="yes"/>
			<point x="191" y="1464" type="line" smooth="yes"/>
			<point x="191" y="1494"/>
			<point x="196" y="1500"/>
			<point x="225" y="1500" type="curve" smooth="yes"/>
			<point x="585" y="1500" type="line" smooth="yes"/>
			<point x="613" y="1500"/>
			<point x="621" y="1496"/>
			<point x="621" y="1466" type="curve" smooth="yes"/>
			<point x="621" y="1422" type="line" smooth="yes"/>
			<point x="621" y="1393"/>
			<point x="613" y="1390"/>
			<point x="583" y="1390" type="curve" smooth="yes"/>
			<point x="539" y="1390" type="line" smooth="yes"/>
			<point x="497" y="1390"/>
			<point x="502" y="1379"/>
			<point x="495" y="1346" type="curve" smooth="yes"/>
			<point x="232" y="150" type="line" smooth="yes"/>
			<point x="223" y="111"/>
			<point x="231" y="110"/>
			<point x="279" y="110" type="curve" smooth="yes"/>
			<point x="311" y="110" type="line" smooth="yes"/>
			<point x="353" y="110"/>
			<point x="355" y="102"/>
			<point x="355" y="60" type="curve" smooth="yes"/>
			<point x="355" y="38" type="line" smooth="yes"/>
			<point x="355" y="8"/>
			<point x="352" y="0"/>
			<point x="323" y="0" type="curve" smooth="yes"/>
			<point x="-67" y="0" type="line" smooth="yes"/>
			<point x="-98" y="0"/>
			<point x="-105" y="4"/>
		</contour>
	</outline>
</glyph>
<glyph name="J" format="2">
	<advance width="844" height="0"/>
	<unicode hex="004A"/>
	<anchor x="665" y="1500" name="Anchor-0"/>
	<anchor x="168" y="0" name="Anchor-1"/>
	<anchor x="168" y="0" name="Anchor-2"/>
	<outline>
		<contour>
			<point x="-100" y="250" type="curve" smooth="yes"/>
			<point x="-100" y="424"/>
			<point x="-22" y="480"/>
			<point x="58" y="480" type="curve" smooth="yes"/>
			<point x="128" y="480"/>
			<point x="186" y="434"/>
			<point x="186" y="362" type="curve" smooth="yes"/>
			<point x="186" y="244"/>
			<point x="58" y="216"/>
			<point x="58" y="162" type="curve" smooth="yes"/>
			<point x="58" y="128"/>
			<point x="78" y="90"/>
			<point x="172" y="90" type="curve" smooth="yes"/>
			<point x="314" y="90"/>
			<point x="359" y="214"/>
			<point x="422" y="480" type="curve" smooth="yes"/>
			<point x="621" y="1362" type="line" smooth="yes"/>
			<point x="627" y="1389"/>
			<point x="619" y="1390"/>
			<point x="586" y="1390" type="curve" smooth="yes"/>
			<point x="514" y="1390" type="line" smooth="yes"/>
			<point x="481" y="1390"/>
			<point x="472" y="1391"/>
			<point x="472" y="1424" type="curve" smooth="yes"/>
			<point x="472" y="1460" type="line" smooth="yes"/>
			<point x="472" y="1496"/>
			<point x="480" y="1500"/>
			<point x="514" y="1500" type="curve" smooth="yes"/>
			<point x="936" y="1500" type="line" smooth="yes"/>
			<point x="955" y="1500"/>
			<point x="972" y="1497"/>
			<point x="972" y="1476" type="curve" smooth="yes"/>
			<point x="972" y="1428" type="line" smooth="yes"/>
			<point x="972" y="1395"/>
			<point x="966" y="1390"/>
			<point x="932" y="1390" type="curve" smooth="yes"/>
			<point x="858" y="1390" type="line" smooth="yes"/>
			<point x="820" y="1390"/>
			<point x="824" y="1381"/>
			<point x="817" y="1352" type="curve" smooth="yes"/>
			<point x="622" y="540" type="line" smooth="yes"/>
			<point x="542" y="220"/>
			<point x="454" y="-20"/>
			<point x="172" y="-20" type="curve" smooth="yes"/>
			<point x="-22" y="-20"/>
			<point x="-100" y="110"/>
		</contour>
	</outline>
</glyph>
<glyph name="K" format="2">
	<advance width="1253" height="0"/>
	<unicode hex="004B"/>
	<anchor x="735" y="1500" name="Anchor-0"/>
	<anchor x="500" y="0" name="Anchor-1"/>
	<anchor x="500" y="0" name="Anchor-2"/>
	<outline>
		<contour>
			<point x="-110" y="38" type="curve" smooth="yes"/>
			<point x="-110" y="86" type="line" smooth="yes"/>
			<point x="-110" y="109"/>
			<point x="-101" y="110"/>
			<point x="-78" y="110" type="curve" smooth="yes"/>
			<point x="-32" y="110" type="line" smooth="yes"/>
			<point x="13" y="110"/>
			<point x="17" y="114"/>
			<point x="25" y="151" type="curve" smooth="yes"/>
			<point x="290" y="1356" type="line" smooth="yes"/>
			<point x="296" y="1383"/>
			<point x="294" y="1390"/>
			<point x="258" y="1390" type="curve" smooth="yes"/>
			<point x="216" y="1390" type="line" smooth="yes"/>
			<point x="191" y="1390"/>
			<point x="190" y="1399"/>
			<point x="190" y="1424" type="curve" smooth="yes"/>
			<point x="190" y="1480" type="line" smooth="yes"/>
			<point x="190" y="1499"/>
			<point x="199" y="1500"/>
			<point x="218" y="1500" type="curve" smooth="yes"/>
			<point x="586" y="1500" type="line" smooth="yes"/>
			<point x="615" y="1500"/>
			<point x="620" y="1494"/>
			<point x="620" y="1464" type="curve" smooth="yes"/>
			<point x="620" y="1434" type="line" smooth="yes"/>
			<point x="620" y="1399"/>
			<point x="619" y="1390"/>
			<point x="584" y="1390" type="curve" smooth="yes"/>
			<point x="522" y="1390" type="line" smooth="yes"/>
			<point x="492" y="1390"/>
			<point x="496" y="1381"/>
			<point x="491" y="1358" type="curve" smooth="yes"/>
			<point x="350" y="720" type="line" smooth="yes"/>
			<point x="332" y="637"/>
			<point x="342" y="658"/>
			<point x="390" y="700" type="curve" smooth="yes"/>
			<point x="972" y="1357" type="line" smooth="yes"/>
			<point x="994.848" y="1382.792"/>
			<point x="987" y="1390"/>
			<point x="944" y="1390" type="curve" smooth="yes"/>
			<point x="902" y="1390" type="line" smooth="yes"/>
			<point x="868" y="1390"/>
			<point x="864" y="1398"/>
			<point x="864" y="1430" type="curve" smooth="yes"/>
			<point x="864" y="1466" type="line" smooth="yes"/>
			<point x="864" y="1493"/>
			<point x="868" y="1500"/>
			<point x="894" y="1500" type="curve" smooth="yes"/>
			<point x="1272" y="1500" type="line" smooth="yes"/>
			<point x="1297" y="1500"/>
			<point x="1298" y="1491"/>
			<point x="1298" y="1466" type="curve" smooth="yes"/>
			<point x="1298" y="1428" type="line" smooth="yes"/>
			<point x="1298" y="1400"/>
			<point x="1293" y="1390"/>
			<point x="1263" y="1390" type="curve" smooth="yes"/>
			<point x="1220" y="1390" type="line" smooth="yes"/>
			<point x="1175" y="1390"/>
			<point x="1154.28" y="1383.493"/>
			<point x="1130" y="1357" type="curve" smooth="yes"/>
			<point x="702" y="890" type="line" smooth="yes"/>
			<point x="663.545" y="847.037"/>
			<point x="658" y="844"/>
			<point x="712" y="814" type="curve" smooth="yes"/>
			<point x="1086" y="602"/>
			<point x="784" y="110"/>
			<point x="1024" y="110" type="curve" smooth="yes"/>
			<point x="1080" y="110" type="line" smooth="yes"/>
			<point x="1117" y="110"/>
			<point x="1122" y="104"/>
			<point x="1122" y="66" type="curve" smooth="yes"/>
			<point x="1122" y="38" type="line" smooth="yes"/>
			<point x="1122" y="4"/>
			<point x="1114" y="0"/>
			<point x="1082" y="0" type="curve" smooth="yes"/>
			<point x="972" y="0" type="line" smooth="yes"/>
			<point x="501" y="0"/>
			<point x="813.318" y="552.731"/>
			<point x="623" y="720" type="curve" smooth="yes"/>
			<point x="588.147" y="750.632"/>
			<point x="574.391" y="740.517"/>
			<point x="544" y="709" type="curve" smooth="yes"/>
			<point x="336" y="499" type="line" smooth="yes"/>
			<point x="307.149" y="469.872"/>
			<point x="293" y="460"/>
			<point x="282" y="410" type="curve" smooth="yes"/>
			<point x="223" y="142" type="line" smooth="yes"/>
			<point x="217" y="114"/>
			<point x="222" y="110"/>
			<point x="258" y="110" type="curve" smooth="yes"/>
			<point x="296" y="110" type="line" smooth="yes"/>
			<point x="327" y="110"/>
			<point x="330" y="102"/>
			<point x="330" y="70" type="curve" smooth="yes"/>
			<point x="330" y="30" type="line" smooth="yes"/>
			<point x="330" y="0"/>
			<point x="320" y="0"/>
			<point x="290" y="0" type="curve" smooth="yes"/>
			<point x="-78" y="0" type="line" smooth="yes"/>
			<point x="-107" y="0"/>
			<point x="-110" y="8"/>
		</contour>
	</outline>
</glyph>
<glyph name="L" format="2">
	<advance width="976" height="0"/>
	<unicode hex="004C"/>
	<anchor x="393" y="1500" name="Anchor-0"/>
	<anchor x="559" y="943" name="Anchor-1"/>
	<anchor x="376" y="0" name="Anchor-2"/>
	<outline>
		<contour>
			<point x="-110" y="32" type="curve" smooth="yes"/>
			<point x="-110" y="84" type="line" smooth="yes"/>
			<point x="-110" y="107"/>
			<point x="-93" y="110"/>
			<point x="-72" y="110" type="curve" smooth="yes"/>
			<point x="-32" y="110" type="line" smooth="yes"/>
			<point x="19" y="110"/>
			<point x="20" y="112"/>
			<point x="29" y="154" type="curve" smooth="yes"/>
			<point x="287" y="1357" type="line" smooth="yes"/>
			<point x="293" y="1387"/>
			<point x="291" y="1390"/>
			<point x="256" y="1390" type="curve" smooth="yes"/>
			<point x="218" y="1390" type="line" smooth="yes"/>
			<point x="189" y="1390"/>
			<point x="188" y="1399"/>
			<point x="188" y="1428" type="curve" smooth="yes"/>
			<point x="188" y="1464" type="line" smooth="yes"/>
			<point x="188" y="1491"/>
			<point x="189" y="1500"/>
			<point x="216" y="1500" type="curve" smooth="yes"/>
			<point x="576" y="1500" type="line" smooth="yes"/>
			<point x="603" y="1500"/>
			<point x="610" y="1495"/>
			<point x="610" y="1466" type="curve" smooth="yes"/>
			<point x="610" y="1424" type="line" smooth="yes"/>
			<point x="610" y="1397"/>
			<point x="606" y="1390"/>
			<point x="580" y="1390" type="curve" smooth="yes"/>
			<point x="522" y="1390" type="line" smooth="yes"/>
			<point x="488" y="1390"/>
			<point x="491" y="1383"/>
			<point x="485" y="1356" type="curve" smooth="yes"/>
			<point x="231" y="166" type="line" smooth="yes"/>
			<point x="222" y="122"/>
			<point x="228" y="110"/>
			<point x="286" y="110" type="curve" smooth="yes"/>
			<point x="392" y="110" type="line" smooth="yes"/>
			<point x="584" y="110"/>
			<point x="692" y="189"/>
			<point x="771" y="470" type="curve" smooth="yes"/>
			<point x="780" y="501"/>
			<point x="784" y="510"/>
			<point x="826" y="510" type="curve" smooth="yes"/>
			<point x="854" y="510" type="line" smooth="yes"/>
			<point x="875" y="510"/>
			<point x="880" y="503"/>
			<point x="876" y="487" type="curve" smooth="yes"/>
			<point x="772" y="42" type="line" smooth="yes"/>
			<point x="764" y="9"/>
			<point x="759" y="0"/>
			<point x="716" y="0" type="curve" smooth="yes"/>
			<point x="-70" y="0" type="line" smooth="yes"/>
			<point x="-101" y="0"/>
			<point x="-110" y="1"/>
		</contour>
	</outline>
</glyph>
<glyph name="M" format="2">
	<advance width="1440" height="0"/>
	<unicode hex="004D"/>
	<anchor x="835" y="1500" name="Anchor-0"/>
	<anchor x="496" y="0" name="Anchor-1"/>
	<anchor x="496" y="0" name="Anchor-2"/>
	<outline>
		<contour>
			<point x="1103" y="1220" type="curve" smooth="yes"/>
			<point x="590" y="6" type="line" smooth="yes"/>
			<point x="578" y="-16"/>
			<point x="567" y="-20"/>
			<point x="532" y="-20" type="curve" smooth="yes"/>
			<point x="468" y="-20" type="line" smooth="yes"/>
			<point x="440" y="-20"/>
			<point x="436" y="-5"/>
			<point x="433" y="18" type="curve" smooth="yes"/>
			<point x="480" y="1298" type="line" smooth="yes"/>
			<point x="476" y="1329"/>
			<point x="482" y="1354"/>
			<point x="471" y="1354" type="curve" smooth="yes"/>
			<point x="463" y="1354"/>
			<point x="461" y="1336"/>
			<point x="454" y="1306" type="curve" smooth="yes"/>
			<point x="168" y="146" type="line" smooth="yes"/>
			<point x="159" y="111"/>
			<point x="166" y="110"/>
			<point x="210" y="110" type="curve" smooth="yes"/>
			<point x="240" y="110" type="line" smooth="yes"/>
			<point x="261" y="110"/>
			<point x="270" y="105"/>
			<point x="270" y="82" type="curve" smooth="yes"/>
			<point x="270" y="28" type="line" smooth="yes"/>
			<point x="270" y="1"/>
			<point x="261" y="0"/>
			<point x="234" y="0" type="curve" smooth="yes"/>
			<point x="-72" y="0" type="line" smooth="yes"/>
			<point x="-101" y="0"/>
			<point x="-110" y="1"/>
			<point x="-110" y="30" type="curve" smooth="yes"/>
			<point x="-110" y="74" type="line" smooth="yes"/>
			<point x="-110" y="103"/>
			<point x="-106" y="110"/>
			<point x="-78" y="110" type="curve" smooth="yes"/>
			<point x="-36" y="110" type="line" smooth="yes"/>
			<point x="21" y="110"/>
			<point x="24" y="111"/>
			<point x="36" y="156" type="curve" smooth="yes"/>
			<point x="337" y="1346" type="line" smooth="yes"/>
			<point x="347" y="1387"/>
			<point x="343" y="1390"/>
			<point x="290" y="1390" type="curve" smooth="yes"/>
			<point x="282" y="1390" type="line" smooth="yes"/>
			<point x="252" y="1390"/>
			<point x="244" y="1393"/>
			<point x="244" y="1422" type="curve" smooth="yes"/>
			<point x="244" y="1462" type="line" smooth="yes"/>
			<point x="244" y="1499"/>
			<point x="259" y="1500"/>
			<point x="292" y="1500" type="curve" smooth="yes"/>
			<point x="588" y="1500" type="line" smooth="yes"/>
			<point x="655" y="1500"/>
			<point x="674.988" y="1495.541"/>
			<point x="672" y="1434" type="curve" smooth="yes"/>
			<point x="630" y="569" type="line" smooth="yes"/>
			<point x="626.584" y="494.57"/>
			<point x="617" y="464"/>
			<point x="637" y="464" type="curve" smooth="yes"/>
			<point x="655" y="464"/>
			<point x="662.268" y="509.22"/>
			<point x="689" y="569" type="curve" smooth="yes"/>
			<point x="1091" y="1468" type="line" smooth="yes"/>
			<point x="1103" y="1494.835"/>
			<point x="1115" y="1500"/>
			<point x="1156" y="1500" type="curve" smooth="yes"/>
			<point x="1452" y="1500" type="line" smooth="yes"/>
			<point x="1476" y="1500"/>
			<point x="1486" y="1496"/>
			<point x="1486" y="1470" type="curve" smooth="yes"/>
			<point x="1486" y="1428" type="line" smooth="yes"/>
			<point x="1486" y="1393"/>
			<point x="1478" y="1390"/>
			<point x="1442" y="1390" type="curve" smooth="yes"/>
			<point x="1396" y="1390" type="line" smooth="yes"/>
			<point x="1367" y="1390"/>
			<point x="1356" y="1389"/>
			<point x="1352" y="1364" type="curve" smooth="yes"/>
			<point x="1142" y="148" type="line" smooth="yes"/>
			<point x="1136" y="115"/>
			<point x="1140" y="110"/>
			<point x="1180" y="110" type="curve" smooth="yes"/>
			<point x="1224" y="110" type="line" smooth="yes"/>
			<point x="1261" y="110"/>
			<point x="1262" y="102"/>
			<point x="1262" y="65" type="curve" smooth="yes"/>
			<point x="1262" y="38" type="line" smooth="yes"/>
			<point x="1262" y="1"/>
			<point x="1253" y="0"/>
			<point x="1216" y="0" type="curve" smooth="yes"/>
			<point x="856" y="0" type="line" smooth="yes"/>
			<point x="827" y="0"/>
			<point x="822" y="6"/>
			<point x="822" y="36" type="curve" smooth="yes"/>
			<point x="822" y="68" type="line" smooth="yes"/>
			<point x="822" y="103"/>
			<point x="827" y="110"/>
			<point x="864" y="110" type="curve" smooth="yes"/>
			<point x="920" y="110" type="line" smooth="yes"/>
			<point x="962" y="110"/>
			<point x="957" y="118"/>
			<point x="963" y="152" type="curve" smooth="yes"/>
			<point x="1152" y="1200" type="line" smooth="yes"/>
			<point x="1168.604" y="1292.071"/>
			<point x="1176" y="1331"/>
			<point x="1160" y="1331" type="curve" smooth="yes"/>
			<point x="1143" y="1331"/>
			<point x="1132.987" y="1290.963"/>
		</contour>
	</outline>
</glyph>
<glyph name="N" format="2">
	<advance width="1090" height="0"/>
	<unicode hex="004E"/>
	<anchor x="615" y="1500" name="Anchor-0"/>
	<anchor x="396" y="0" name="Anchor-1"/>
	<anchor x="396" y="0" name="Anchor-2"/>
	<outline>
		<contour>
			<point x="234" y="1390" type="curve" smooth="yes"/>
			<point x="227" y="1390" type="line" smooth="yes"/>
			<point x="198" y="1390"/>
			<point x="190" y="1393"/>
			<point x="190" y="1421" type="curve" smooth="yes"/>
			<point x="190" y="1471" type="line" smooth="yes"/>
			<point x="190" y="1495"/>
			<point x="198" y="1500"/>
			<point x="220" y="1500" type="curve" smooth="yes"/>
			<point x="440" y="1500" type="line" smooth="yes"/>
			<point x="482" y="1500"/>
			<point x="500.782" y="1494.657"/>
			<point x="506" y="1467" type="curve" smooth="yes"/>
			<point x="706" y="407" type="line" smooth="yes"/>
			<point x="711.421" y="378.267"/>
			<point x="717" y="360"/>
			<point x="728" y="360" type="curve" smooth="yes"/>
			<point x="738" y="360"/>
			<point x="743.232" y="374.171"/>
			<point x="751" y="409" type="curve" smooth="yes"/>
			<point x="962" y="1355" type="line" smooth="yes"/>
			<point x="968" y="1383"/>
			<point x="954" y="1390"/>
			<point x="922" y="1390" type="curve" smooth="yes"/>
			<point x="894" y="1390" type="line" smooth="yes"/>
			<point x="859" y="1390"/>
			<point x="856" y="1397"/>
			<point x="856" y="1433" type="curve" smooth="yes"/>
			<point x="856" y="1467" type="line" smooth="yes"/>
			<point x="856" y="1496"/>
			<point x="865" y="1500"/>
			<point x="892" y="1500" type="curve" smooth="yes"/>
			<point x="1184" y="1500" type="line" smooth="yes"/>
			<point x="1213" y="1500"/>
			<point x="1216" y="1493"/>
			<point x="1216" y="1463" type="curve" smooth="yes"/>
			<point x="1216" y="1423" type="line" smooth="yes"/>
			<point x="1216" y="1396"/>
			<point x="1211" y="1390"/>
			<point x="1182" y="1390" type="curve" smooth="yes"/>
			<point x="1130" y="1390" type="line" smooth="yes"/>
			<point x="1095" y="1390"/>
			<point x="1096" y="1387"/>
			<point x="1090" y="1359" type="curve" smooth="yes"/>
			<point x="794" y="1" type="line" smooth="yes"/>
			<point x="791" y="-14"/>
			<point x="789" y="-20"/>
			<point x="769" y="-20" type="curve" smooth="yes"/>
			<point x="617" y="-20" type="line" smooth="yes"/>
			<point x="594" y="-20"/>
			<point x="580.775" y="-11.694"/>
			<point x="577" y="11" type="curve" smooth="yes"/>
			<point x="403" y="1057" type="line" smooth="yes"/>
			<point x="398.135" y="1084.922"/>
			<point x="384" y="1098"/>
			<point x="376" y="1098" type="curve" smooth="yes"/>
			<point x="362" y="1098"/>
			<point x="350.964" y="1083.008"/>
			<point x="344" y="1051" type="curve" smooth="yes"/>
			<point x="146" y="141" type="line" smooth="yes"/>
			<point x="139" y="106"/>
			<point x="144" y="110"/>
			<point x="184" y="110" type="curve" smooth="yes"/>
			<point x="222" y="110" type="line" smooth="yes"/>
			<point x="246" y="110"/>
			<point x="260" y="107"/>
			<point x="260" y="81" type="curve" smooth="yes"/>
			<point x="260" y="41" type="line" smooth="yes"/>
			<point x="260" y="2"/>
			<point x="248" y="0"/>
			<point x="212" y="0" type="curve" smooth="yes"/>
			<point x="-78" y="0" type="line" smooth="yes"/>
			<point x="-103" y="0"/>
			<point x="-110" y="3"/>
			<point x="-110" y="27" type="curve" smooth="yes"/>
			<point x="-110" y="75" type="line" smooth="yes"/>
			<point x="-110" y="103"/>
			<point x="-107" y="110"/>
			<point x="-80" y="110" type="curve" smooth="yes"/>
			<point x="-16" y="110" type="line" smooth="yes"/>
			<point x="17" y="110"/>
			<point x="14" y="115"/>
			<point x="20" y="141" type="curve" smooth="yes"/>
			<point x="277" y="1343" type="line" smooth="yes"/>
			<point x="285" y="1382"/>
			<point x="285" y="1390"/>
		</contour>
	</outline>
</glyph>
<glyph name="O" format="2">
	<advance width="1050" height="0"/>
	<unicode hex="004F"/>
	<anchor x="705" y="1500" name="Anchor-0"/>
	<anchor x="336" y="0" name="Anchor-1"/>
	<anchor x="336" y="0" name="Anchor-2"/>
	<outline>
		<contour>
			<point x="700" y="1520" type="line"/>
			<point x="926" y="1520"/>
			<point x="1050" y="1406"/>
			<point x="1050" y="1090" type="curve" smooth="yes"/>
			<point x="1050" y="724"/>
			<point x="846" y="-20"/>
			<point x="350" y="-20" type="curve"/>
			<point x="360" y="80" type="line"/>
			<point x="638" y="80"/>
			<point x="860" y="846"/>
			<point x="860" y="1190" type="curve" smooth="yes"/>
			<point x="860" y="1344"/>
			<point x="828" y="1420"/>
			<point x="710" y="1420" type="curve"/>
		</contour>
		<contour>
			<point x="350" y="-20" type="line"/>
			<point x="124" y="-20"/>
			<point x="10" y="94"/>
			<point x="10" y="410" type="curve" smooth="yes"/>
			<point x="10" y="776"/>
			<point x="214" y="1520"/>
			<point x="700" y="1520" type="curve"/>
			<point x="710" y="1420" type="line"/>
			<point x="422" y="1420"/>
			<point x="190" y="654"/>
			<point x="190" y="310" type="curve" smooth="yes"/>
			<point x="190" y="156"/>
			<point x="242" y="80"/>
			<point x="360" y="80" type="curve"/>
		</contour>
	</outline>
</glyph>
<glyph name="P" format="2">
	<advance width="1006" height="0"/>
	<unicode hex="0050"/>
	<anchor x="575" y="1500" name="Anchor-0"/>
	<anchor x="102" y="0" name="Anchor-1"/>
	<anchor x="102" y="0" name="Anchor-2"/>
	<outline>
		<contour>
			<point x="406" y="770" type="curve" smooth="yes"/>
			<point x="514" y="770" type="line" smooth="yes"/>
			<point x="716" y="770"/>
			<point x="834" y="952"/>
			<point x="834" y="1230" type="curve" smooth="yes"/>
			<point x="834" y="1328"/>
			<point x="776" y="1390"/>
			<point x="654" y="1390" type="curve" smooth="yes"/>
			<point x="526" y="1390" type="line" smooth="yes"/>
			<point x="490" y="1390"/>
			<point x="490" y="1388"/>
			<point x="484" y="1358" type="curve" smooth="yes"/>
			<point x="368" y="813" type="line" smooth="yes"/>
			<point x="360" y="774"/>
			<point x="359" y="770"/>
		</contour>
		<contour>
			<point x="322" y="610" type="curve" smooth="yes"/>
			<point x="228" y="160" type="line" smooth="yes"/>
			<point x="220" y="120"/>
			<point x="217" y="110"/>
			<point x="270" y="110" type="curve" smooth="yes"/>
			<point x="302" y="110" type="line" smooth="yes"/>
			<point x="333" y="110"/>
			<point x="340" y="105"/>
			<point x="340" y="72" type="curve" smooth="yes"/>
			<point x="340" y="28" type="line" smooth="yes"/>
			<point x="340" y="3"/>
			<point x="328" y="0"/>
			<point x="302" y="0" type="curve" smooth="yes"/>
			<point x="-84" y="0" type="line" smooth="yes"/>
			<point x="-111" y="0"/>
			<point x="-120" y="1"/>
			<point x="-120" y="28" type="curve" smooth="yes"/>
			<point x="-120" y="76" type="line" smooth="yes"/>
			<point x="-120" y="110"/>
			<point x="-110" y="110"/>
			<point x="-76" y="110" type="curve" smooth="yes"/>
			<point x="-22" y="110" type="line" smooth="yes"/>
			<point x="27" y="110"/>
			<point x="21" y="124"/>
			<point x="29" y="162" type="curve" smooth="yes"/>
			<point x="284" y="1353" type="line" smooth="yes"/>
			<point x="291" y="1386"/>
			<point x="290" y="1390"/>
			<point x="250" y="1390" type="curve" smooth="yes"/>
			<point x="220" y="1390" type="line" smooth="yes"/>
			<point x="195" y="1390"/>
			<point x="190" y="1397"/>
			<point x="190" y="1420" type="curve" smooth="yes"/>
			<point x="190" y="1466" type="line" smooth="yes"/>
			<point x="190" y="1497"/>
			<point x="201" y="1500"/>
			<point x="230" y="1500" type="curve" smooth="yes"/>
			<point x="674" y="1500" type="line" smooth="yes"/>
			<point x="936" y="1500"/>
			<point x="1054" y="1420"/>
			<point x="1054" y="1210" type="curve" smooth="yes"/>
			<point x="1054" y="920"/>
			<point x="886" y="660"/>
			<point x="524" y="660" type="curve" smooth="yes"/>
			<point x="386" y="660" type="line" smooth="yes"/>
			<point x="337" y="660"/>
			<point x="331" y="650"/>
		</contour>
	</outline>
</glyph>
<glyph name="Q" format="2">
	<advance width="1050" height="0"/>
	<unicode hex="0051"/>
	<anchor x="985" y="1500" name="Anchor-0"/>
	<outline>
		<contour>
			<point x="190" y="310" type="curve" smooth="yes"/>
			<point x="190" y="156"/>
			<point x="242" y="80"/>
			<point x="360" y="80" type="curve" smooth="yes"/>
			<point x="638" y="80"/>
			<point x="860" y="846"/>
			<point x="860" y="1190" type="curve" smooth="yes"/>
			<point x="860" y="1344"/>
			<point x="828" y="1420"/>
			<point x="710" y="1420" type="curve" smooth="yes"/>
			<point x="422" y="1420"/>
			<point x="190" y="654"/>
		</contour>
		<contour>
			<point x="-140" y="-328" type="curve" smooth="yes"/>
			<point x="-140" y="-158"/>
			<point x="20" y="-54"/>
			<point x="178" y="-54" type="curve" smooth="yes"/>
			<point x="457" y="-54"/>
			<point x="367" y="-408"/>
			<point x="502" y="-408" type="curve" smooth="yes"/>
			<point x="566" y="-408"/>
			<point x="586" y="-372"/>
			<point x="586" y="-338" type="curve" smooth="yes"/>
			<point x="586" y="-282"/>
			<point x="526" y="-282"/>
			<point x="526" y="-210" type="curve" smooth="yes"/>
			<point x="526" y="-136"/>
			<point x="592" y="-94"/>
			<point x="646" y="-94" type="curve" smooth="yes"/>
			<point x="720" y="-94"/>
			<point x="768" y="-148"/>
			<point x="768" y="-216" type="curve" smooth="yes"/>
			<point x="768" y="-406"/>
			<point x="618" y="-500"/>
			<point x="460" y="-500" type="curve" smooth="yes"/>
			<point x="161" y="-500"/>
			<point x="301" y="-146"/>
			<point x="126" y="-146" type="curve" smooth="yes"/>
			<point x="64" y="-146"/>
			<point x="42" y="-178"/>
			<point x="42" y="-212" type="curve" smooth="yes"/>
			<point x="42" y="-262"/>
			<point x="102" y="-272"/>
			<point x="102" y="-344" type="curve" smooth="yes"/>
			<point x="102" y="-418"/>
			<point x="42" y="-460"/>
			<point x="-12" y="-460" type="curve" smooth="yes"/>
			<point x="-86" y="-460"/>
			<point x="-140" y="-404"/>
		</contour>
		<contour>
			<point x="10" y="410" type="curve" smooth="yes"/>
			<point x="10" y="776"/>
			<point x="214" y="1520"/>
			<point x="700" y="1520" type="curve" smooth="yes"/>
			<point x="926" y="1520"/>
			<point x="1050" y="1406"/>
			<point x="1050" y="1090" type="curve" smooth="yes"/>
			<point x="1050" y="724"/>
			<point x="846" y="-20"/>
			<point x="350" y="-20" type="curve" smooth="yes"/>
			<point x="124" y="-20"/>
			<point x="10" y="94"/>
		</contour>
	</outline>
</glyph>
<glyph name="R" format="2">
	<advance width="1073" height="0"/>
	<unicode hex="0052"/>
	<anchor x="545" y="1500" name="Anchor-0"/>
	<anchor x="426" y="0" name="Anchor-1"/>
	<anchor x="426" y="0" name="Anchor-2"/>
	<outline>
		<contour>
			<point x="990" y="221" type="curve" smooth="yes"/>
			<point x="964" y="124"/>
			<point x="916" y="-20"/>
			<point x="738" y="-20" type="curve" smooth="yes"/>
			<point x="600" y="-20"/>
			<point x="558" y="64"/>
			<point x="558" y="174" type="curve" smooth="yes"/>
			<point x="558" y="324"/>
			<point x="637" y="396"/>
			<point x="637" y="546" type="curve" smooth="yes"/>
			<point x="637" y="636"/>
			<point x="614" y="690"/>
			<point x="488" y="690" type="curve" smooth="yes"/>
			<point x="378" y="690" type="line" smooth="yes"/>
			<point x="347" y="690"/>
			<point x="337" y="682"/>
			<point x="331" y="656" type="curve" smooth="yes"/>
			<point x="225" y="144" type="line" smooth="yes"/>
			<point x="219" y="116"/>
			<point x="222" y="110"/>
			<point x="258" y="110" type="curve" smooth="yes"/>
			<point x="298" y="110" type="line" smooth="yes"/>
			<point x="318" y="110"/>
			<point x="330" y="106"/>
			<point x="330" y="84" type="curve" smooth="yes"/>
			<point x="330" y="40" type="line" smooth="yes"/>
			<point x="330" y="9"/>
			<point x="329" y="0"/>
			<point x="298" y="0" type="curve" smooth="yes"/>
			<point x="-84" y="0" type="line" smooth="yes"/>
			<point x="-104" y="0"/>
			<point x="-110" y="6"/>
			<point x="-110" y="28" type="curve" smooth="yes"/>
			<point x="-110" y="76" type="line" smooth="yes"/>
			<point x="-110" y="104"/>
			<point x="-105" y="110"/>
			<point x="-78" y="110" type="curve" smooth="yes"/>
			<point x="-16" y="110" type="line" smooth="yes"/>
			<point x="24" y="110"/>
			<point x="19" y="119"/>
			<point x="26" y="150" type="curve" smooth="yes"/>
			<point x="285" y="1357" type="line" smooth="yes"/>
			<point x="291" y="1386"/>
			<point x="291" y="1390"/>
			<point x="256" y="1390" type="curve" smooth="yes"/>
			<point x="226" y="1390" type="line" smooth="yes"/>
			<point x="193" y="1390"/>
			<point x="190" y="1398"/>
			<point x="190" y="1432" type="curve" smooth="yes"/>
			<point x="190" y="1464" type="line" smooth="yes"/>
			<point x="190" y="1499"/>
			<point x="199" y="1500"/>
			<point x="234" y="1500" type="curve" smooth="yes"/>
			<point x="719" y="1500" type="line" smooth="yes"/>
			<point x="901" y="1500"/>
			<point x="1036" y="1380"/>
			<point x="1036" y="1200" type="curve" smooth="yes"/>
			<point x="1036" y="993"/>
			<point x="940" y="842"/>
			<point x="760" y="755" type="curve" smooth="yes"/>
			<point x="726.968" y="739.035"/>
			<point x="706" y="735"/>
			<point x="706" y="727" type="curve" smooth="yes"/>
			<point x="706" y="718"/>
			<point x="727.229" y="711.143"/>
			<point x="760" y="690" type="curve" smooth="yes"/>
			<point x="822" y="650"/>
			<point x="840" y="604"/>
			<point x="840" y="512" type="curve" smooth="yes"/>
			<point x="840" y="400"/>
			<point x="778" y="242"/>
			<point x="778" y="168" type="curve" smooth="yes"/>
			<point x="778" y="124"/>
			<point x="796" y="108"/>
			<point x="822" y="108" type="curve" smooth="yes"/>
			<point x="869" y="108"/>
			<point x="895" y="169"/>
			<point x="916" y="239" type="curve" smooth="yes"/>
			<point x="922.457" y="260.524"/>
			<point x="932.517" y="257.109"/>
			<point x="953" y="258" type="curve" smooth="yes"/>
			<point x="976" y="258" type="line" smooth="yes"/>
			<point x="995.485" y="258"/>
			<point x="996.879" y="246.665"/>
		</contour>
		<contour>
			<point x="418" y="810" type="curve" smooth="yes"/>
			<point x="528" y="810" type="line" smooth="yes"/>
			<point x="700" y="810"/>
			<point x="828" y="1002"/>
			<point x="828" y="1220" type="curve" smooth="yes"/>
			<point x="828" y="1308"/>
			<point x="790" y="1390"/>
			<point x="668" y="1390" type="curve" smooth="yes"/>
			<point x="530" y="1390" type="line" smooth="yes"/>
			<point x="496" y="1390"/>
			<point x="490" y="1383"/>
			<point x="484" y="1354" type="curve" smooth="yes"/>
			<point x="375" y="848" type="line" smooth="yes"/>
			<point x="367" y="812"/>
			<point x="373" y="810"/>
		</contour>
	</outline>
</glyph>
<glyph name="S" format="2">
	<advance width="912" height="0"/>
	<unicode hex="0053"/>
	<anchor x="605" y="1500" name="Anchor-0"/>
	<anchor x="365" y="0" name="Anchor-1"/>
	<anchor x="365" y="0" name="Anchor-2"/>
	<outline>
		<contour>
			<point x="374" y="1160" type="curve" smooth="yes"/>
			<point x="374" y="878"/>
			<point x="794" y="910"/>
			<point x="794" y="480" type="curve" smooth="yes"/>
			<point x="794" y="180"/>
			<point x="616" y="-30"/>
			<point x="374" y="-30" type="curve" smooth="yes"/>
			<point x="235" y="-30"/>
			<point x="157" y="28"/>
			<point x="111" y="118" type="curve" smooth="yes"/>
			<point x="97.615" y="144.188"/>
			<point x="92" y="140"/>
			<point x="74" y="111" type="curve" smooth="yes"/>
			<point x="27" y="18" type="line" smooth="yes"/>
			<point x="16" y="0"/>
			<point x="7" y="-10"/>
			<point x="-24" y="-10" type="curve" smooth="yes"/>
			<point x="-73" y="-10" type="line" smooth="yes"/>
			<point x="-104" y="-10"/>
			<point x="-109" y="-7"/>
			<point x="-103" y="17" type="curve" smooth="yes"/>
			<point x="4" y="487" type="line" smooth="yes"/>
			<point x="8" y="504"/>
			<point x="16" y="510"/>
			<point x="38" y="510" type="curve" smooth="yes"/>
			<point x="100" y="510" type="line" smooth="yes"/>
			<point x="111" y="510"/>
			<point x="119.606" y="505.288"/>
			<point x="118" y="494" type="curve" smooth="yes"/>
			<point x="85" y="262"/>
			<point x="178" y="78"/>
			<point x="344" y="78" type="curve" smooth="yes"/>
			<point x="514" y="78"/>
			<point x="604" y="222"/>
			<point x="604" y="400" type="curve" smooth="yes"/>
			<point x="604" y="752"/>
			<point x="190" y="706"/>
			<point x="190" y="1066" type="curve" smooth="yes"/>
			<point x="190" y="1326"/>
			<point x="376" y="1530"/>
			<point x="554" y="1530" type="curve" smooth="yes"/>
			<point x="633" y="1530"/>
			<point x="714" y="1486"/>
			<point x="754" y="1425" type="curve" smooth="yes"/>
			<point x="777.656" y="1388.925"/>
			<point x="783" y="1388"/>
			<point x="810" y="1429" type="curve" smooth="yes"/>
			<point x="840" y="1473" type="line" smooth="yes"/>
			<point x="852" y="1491"/>
			<point x="852" y="1500"/>
			<point x="883" y="1500" type="curve" smooth="yes"/>
			<point x="921" y="1500" type="line" smooth="yes"/>
			<point x="963" y="1500"/>
			<point x="967" y="1495"/>
			<point x="960" y="1462" type="curve" smooth="yes"/>
			<point x="870" y="1039" type="line" smooth="yes"/>
			<point x="864" y="1012"/>
			<point x="855" y="1010"/>
			<point x="822" y="1010" type="curve" smooth="yes"/>
			<point x="786" y="1010" type="line" smooth="yes"/>
			<point x="745" y="1010"/>
			<point x="747" y="1020"/>
			<point x="751" y="1052" type="curve" smooth="yes"/>
			<point x="776" y="1263"/>
			<point x="693" y="1418"/>
			<point x="566" y="1418" type="curve" smooth="yes"/>
			<point x="458" y="1418"/>
			<point x="374" y="1324"/>
		</contour>
	</outline>
</glyph>
<glyph name="T" format="2">
	<advance width="1128" height="0"/>
	<unicode hex="0054"/>
	<anchor x="764" y="1500" name="Anchor-0"/>
	<anchor x="446" y="0" name="Anchor-1"/>
	<anchor x="446" y="0" name="Anchor-2"/>
	<outline>
		<contour>
			<point x="192" y="35" type="curve" smooth="yes"/>
			<point x="192" y="82" type="line" smooth="yes"/>
			<point x="192" y="102"/>
			<point x="194" y="110"/>
			<point x="213" y="110" type="curve" smooth="yes"/>
			<point x="273" y="110" type="line" smooth="yes"/>
			<point x="318" y="110"/>
			<point x="327" y="115"/>
			<point x="335" y="153" type="curve" smooth="yes"/>
			<point x="594" y="1360" type="line" smooth="yes"/>
			<point x="601" y="1392"/>
			<point x="601" y="1400"/>
			<point x="559" y="1400" type="curve" smooth="yes"/>
			<point x="544" y="1400" type="line" smooth="yes"/>
			<point x="381" y="1400"/>
			<point x="298" y="1312"/>
			<point x="220" y="1028" type="curve" smooth="yes"/>
			<point x="214" y="1006"/>
			<point x="211" y="990"/>
			<point x="180" y="990" type="curve" smooth="yes"/>
			<point x="141" y="990" type="line" smooth="yes"/>
			<point x="109" y="990"/>
			<point x="114" y="1010"/>
			<point x="119" y="1032" type="curve" smooth="yes"/>
			<point x="216" y="1462" type="line" smooth="yes"/>
			<point x="223" y="1492"/>
			<point x="228" y="1500"/>
			<point x="267" y="1500" type="curve" smooth="yes"/>
			<point x="1178" y="1500" type="line" smooth="yes"/>
			<point x="1230" y="1500"/>
			<point x="1231" y="1494"/>
			<point x="1222" y="1454" type="curve" smooth="yes"/>
			<point x="1122" y="1022" type="line" smooth="yes"/>
			<point x="1116" y="994"/>
			<point x="1118" y="990"/>
			<point x="1082" y="990" type="curve" smooth="yes"/>
			<point x="1056" y="990" type="line" smooth="yes"/>
			<point x="1015" y="990"/>
			<point x="1015" y="995"/>
			<point x="1022" y="1029" type="curve" smooth="yes"/>
			<point x="1079" y="1316"/>
			<point x="1028" y="1400"/>
			<point x="864" y="1400" type="curve" smooth="yes"/>
			<point x="849" y="1400" type="line" smooth="yes"/>
			<point x="812" y="1400"/>
			<point x="802" y="1394"/>
			<point x="795" y="1362" type="curve" smooth="yes"/>
			<point x="536" y="152" type="line" smooth="yes"/>
			<point x="528" y="117"/>
			<point x="530" y="110"/>
			<point x="575" y="110" type="curve" smooth="yes"/>
			<point x="629" y="110" type="line" smooth="yes"/>
			<point x="660" y="110"/>
			<point x="662" y="102"/>
			<point x="662" y="70" type="curve" smooth="yes"/>
			<point x="662" y="40" type="line" smooth="yes"/>
			<point x="662" y="3"/>
			<point x="652" y="0"/>
			<point x="617" y="0" type="curve" smooth="yes"/>
			<point x="219" y="0" type="line" smooth="yes"/>
			<point x="193" y="0"/>
			<point x="192" y="8"/>
		</contour>
	</outline>
</glyph>
<glyph name="U" format="2">
	<advance width="1130" height="0"/>
	<unicode hex="0055"/>
	<anchor x="765" y="1500" name="Anchor-0"/>
	<anchor x="336" y="0" name="Anchor-1"/>
	<anchor x="336" y="0" name="Anchor-2"/>
	<anchor x="461" y="0" name="Anchor-3"/>
	<outline>
		<contour>
			<point x="476" y="1356" type="curve" smooth="yes"/>
			<point x="292" y="620" type="line" smooth="yes"/>
			<point x="270" y="534"/>
			<point x="245" y="422"/>
			<point x="245" y="320" type="curve" smooth="yes"/>
			<point x="245" y="180"/>
			<point x="292" y="90"/>
			<point x="462" y="90" type="curve" smooth="yes"/>
			<point x="660" y="90"/>
			<point x="728" y="256"/>
			<point x="812" y="600" type="curve" smooth="yes"/>
			<point x="995" y="1350" type="line" smooth="yes"/>
			<point x="1003" y="1382"/>
			<point x="1003" y="1390"/>
			<point x="959" y="1390" type="curve" smooth="yes"/>
			<point x="905" y="1390" type="line" smooth="yes"/>
			<point x="876" y="1390"/>
			<point x="874" y="1398"/>
			<point x="874" y="1428" type="curve" smooth="yes"/>
			<point x="874" y="1470" type="line" smooth="yes"/>
			<point x="874" y="1490"/>
			<point x="875" y="1500"/>
			<point x="895" y="1500" type="curve" smooth="yes"/>
			<point x="1185" y="1500" type="line" smooth="yes"/>
			<point x="1221" y="1500"/>
			<point x="1234" y="1498"/>
			<point x="1234" y="1460" type="curve" smooth="yes"/>
			<point x="1234" y="1424" type="line" smooth="yes"/>
			<point x="1234" y="1394"/>
			<point x="1225" y="1390"/>
			<point x="1197" y="1390" type="curve" smooth="yes"/>
			<point x="1169" y="1390" type="line" smooth="yes"/>
			<point x="1123" y="1390"/>
			<point x="1124" y="1386"/>
			<point x="1115" y="1350" type="curve" smooth="yes"/>
			<point x="932" y="600" type="line" smooth="yes"/>
			<point x="819.066" y="137.156"/>
			<point x="718" y="-30"/>
			<point x="432" y="-30" type="curve" smooth="yes"/>
			<point x="158" y="-30"/>
			<point x="47" y="124"/>
			<point x="47" y="304" type="curve" smooth="yes"/>
			<point x="47" y="378"/>
			<point x="72" y="517"/>
			<point x="92" y="600" type="curve" smooth="yes"/>
			<point x="275" y="1346" type="line" smooth="yes"/>
			<point x="284" y="1381"/>
			<point x="285" y="1390"/>
			<point x="241" y="1390" type="curve" smooth="yes"/>
			<point x="211" y="1390" type="line" smooth="yes"/>
			<point x="178" y="1390"/>
			<point x="174" y="1399"/>
			<point x="174" y="1430" type="curve" smooth="yes"/>
			<point x="174" y="1468" type="line" smooth="yes"/>
			<point x="174" y="1497"/>
			<point x="181" y="1500"/>
			<point x="211" y="1500" type="curve" smooth="yes"/>
			<point x="575" y="1500" type="line" smooth="yes"/>
			<point x="609" y="1500"/>
			<point x="614" y="1494"/>
			<point x="614" y="1458" type="curve" smooth="yes"/>
			<point x="614" y="1420" type="line" smooth="yes"/>
			<point x="614" y="1396"/>
			<point x="608" y="1390"/>
			<point x="583" y="1390" type="curve" smooth="yes"/>
			<point x="515" y="1390" type="line" smooth="yes"/>
			<point x="480" y="1390"/>
			<point x="483" y="1383"/>
		</contour>
	</outline>
</glyph>
<glyph name="V" format="2">
	<advance width="1210" height="0"/>
	<unicode hex="0056"/>
	<anchor x="755" y="1500" name="Anchor-0"/>
	<anchor x="442" y="20" name="Anchor-1"/>
	<anchor x="442" y="20" name="Anchor-2"/>
	<outline>
		<contour>
			<point x="332" y="33" type="curve" smooth="yes"/>
			<point x="268" y="1351" type="line" smooth="yes"/>
			<point x="262" y="1382"/>
			<point x="257" y="1390"/>
			<point x="217" y="1390" type="curve" smooth="yes"/>
			<point x="185" y="1390" type="line" smooth="yes"/>
			<point x="154" y="1390"/>
			<point x="150" y="1400"/>
			<point x="150" y="1429" type="curve" smooth="yes"/>
			<point x="150" y="1465" type="line" smooth="yes"/>
			<point x="150" y="1499"/>
			<point x="159" y="1500"/>
			<point x="193" y="1500" type="curve" smooth="yes"/>
			<point x="573" y="1500" type="line" smooth="yes"/>
			<point x="609" y="1500"/>
			<point x="610" y="1491"/>
			<point x="610" y="1455" type="curve" smooth="yes"/>
			<point x="610" y="1425" type="line" smooth="yes"/>
			<point x="610" y="1393"/>
			<point x="602" y="1390"/>
			<point x="569" y="1390" type="curve" smooth="yes"/>
			<point x="515" y="1390" type="line" smooth="yes"/>
			<point x="477" y="1390"/>
			<point x="460.931" y="1383.012"/>
			<point x="461" y="1349" type="curve" smooth="yes"/>
			<point x="499" y="299" type="line" smooth="yes"/>
			<point x="502.599" y="199.551"/>
			<point x="497" y="162"/>
			<point x="512" y="162" type="curve" smooth="yes"/>
			<point x="531" y="162"/>
			<point x="549.981" y="216.751"/>
			<point x="587" y="295" type="curve" smooth="yes"/>
			<point x="1088" y="1354" type="line" smooth="yes"/>
			<point x="1108" y="1387"/>
			<point x="1100" y="1390"/>
			<point x="1053" y="1390" type="curve" smooth="yes"/>
			<point x="1039" y="1390" type="line" smooth="yes"/>
			<point x="1009" y="1390"/>
			<point x="1000" y="1391"/>
			<point x="1000" y="1421" type="curve" smooth="yes"/>
			<point x="1000" y="1473" type="line" smooth="yes"/>
			<point x="1000" y="1499"/>
			<point x="1009" y="1500"/>
			<point x="1035" y="1500" type="curve" smooth="yes"/>
			<point x="1319" y="1500" type="line" smooth="yes"/>
			<point x="1347" y="1500"/>
			<point x="1360" y="1498"/>
			<point x="1360" y="1467" type="curve" smooth="yes"/>
			<point x="1360" y="1433" type="line" smooth="yes"/>
			<point x="1360" y="1398"/>
			<point x="1357" y="1390"/>
			<point x="1323" y="1390" type="curve" smooth="yes"/>
			<point x="1299" y="1390" type="line" smooth="yes"/>
			<point x="1253" y="1390"/>
			<point x="1248" y="1386"/>
			<point x="1231" y="1359" type="curve" smooth="yes"/>
			<point x="576" y="25" type="line" smooth="yes"/>
			<point x="560" y="0"/>
			<point x="550" y="-10"/>
			<point x="507" y="-10" type="curve" smooth="yes"/>
			<point x="389" y="-10" type="line" smooth="yes"/>
			<point x="345" y="-10"/>
			<point x="339" y="-3"/>
		</contour>
	</outline>
</glyph>
<glyph name="W" format="2">
	<advance width="1680" height="0"/>
	<unicode hex="0057"/>
	<anchor x="1035" y="1500" name="Anchor-0"/>
	<anchor x="816" y="0" name="Anchor-1"/>
	<anchor x="816" y="0" name="Anchor-2"/>
	<outline>
		<contour>
			<point x="591" y="518" type="curve" smooth="yes"/>
			<point x="877" y="1142" type="line" smooth="yes"/>
			<point x="891.488" y="1173.61"/>
			<point x="902" y="1185"/>
			<point x="897" y="1232" type="curve" smooth="yes"/>
			<point x="893" y="1366" type="line" smooth="yes"/>
			<point x="891" y="1387"/>
			<point x="883" y="1390"/>
			<point x="860" y="1390" type="curve" smooth="yes"/>
			<point x="851" y="1390" type="line" smooth="yes"/>
			<point x="825" y="1390"/>
			<point x="817" y="1393"/>
			<point x="817" y="1418" type="curve" smooth="yes"/>
			<point x="817" y="1456" type="line" smooth="yes"/>
			<point x="817" y="1495"/>
			<point x="823" y="1500"/>
			<point x="861" y="1500" type="curve" smooth="yes"/>
			<point x="1174" y="1500" type="line" smooth="yes"/>
			<point x="1198" y="1500"/>
			<point x="1202" y="1493"/>
			<point x="1202" y="1468" type="curve" smooth="yes"/>
			<point x="1202" y="1424" type="line" smooth="yes"/>
			<point x="1202" y="1393"/>
			<point x="1194" y="1390"/>
			<point x="1162" y="1390" type="curve" smooth="yes"/>
			<point x="1136" y="1390" type="line" smooth="yes"/>
			<point x="1108" y="1390"/>
			<point x="1091.515" y="1385.948"/>
			<point x="1091" y="1351" type="curve" smooth="yes"/>
			<point x="1079" y="536" type="line" smooth="yes"/>
			<point x="1077.074" y="405.205"/>
			<point x="1064" y="364"/>
			<point x="1092" y="364" type="curve" smooth="yes"/>
			<point x="1115" y="364"/>
			<point x="1136.371" y="457.951"/>
			<point x="1167" y="532" type="curve" smooth="yes"/>
			<point x="1512" y="1354" type="line" smooth="yes"/>
			<point x="1530" y="1388"/>
			<point x="1516" y="1390"/>
			<point x="1492" y="1390" type="curve" smooth="yes"/>
			<point x="1464" y="1390" type="line" smooth="yes"/>
			<point x="1434" y="1390"/>
			<point x="1430" y="1398"/>
			<point x="1430" y="1426" type="curve" smooth="yes"/>
			<point x="1430" y="1478" type="line" smooth="yes"/>
			<point x="1430" y="1500"/>
			<point x="1430" y="1500"/>
			<point x="1452" y="1500" type="curve" smooth="yes"/>
			<point x="1708" y="1500" type="line" smooth="yes"/>
			<point x="1733" y="1500"/>
			<point x="1748" y="1498"/>
			<point x="1748" y="1470" type="curve" smooth="yes"/>
			<point x="1748" y="1426" type="line" smooth="yes"/>
			<point x="1748" y="1400"/>
			<point x="1744" y="1390"/>
			<point x="1716" y="1390" type="curve" smooth="yes"/>
			<point x="1686" y="1390" type="line" smooth="yes"/>
			<point x="1654" y="1390"/>
			<point x="1655" y="1384"/>
			<point x="1644" y="1364" type="curve" smooth="yes"/>
			<point x="1073" y="10" type="line" smooth="yes"/>
			<point x="1063" y="-9"/>
			<point x="1054" y="-20"/>
			<point x="1023" y="-20" type="curve" smooth="yes"/>
			<point x="946" y="-20" type="line" smooth="yes"/>
			<point x="911" y="-20"/>
			<point x="902" y="-18"/>
			<point x="899" y="14" type="curve" smooth="yes"/>
			<point x="919" y="712" type="line" smooth="yes"/>
			<point x="909" y="809"/>
			<point x="935" y="883"/>
			<point x="903" y="883" type="curve" smooth="yes"/>
			<point x="877" y="883"/>
			<point x="850.72" y="802.295"/>
			<point x="808" y="710" type="curve" smooth="yes"/>
			<point x="484" y="10" type="line" smooth="yes"/>
			<point x="472.762" y="-14.279"/>
			<point x="460" y="-20"/>
			<point x="422" y="-20" type="curve" smooth="yes"/>
			<point x="348" y="-20" type="line" smooth="yes"/>
			<point x="317" y="-20"/>
			<point x="320" y="-16"/>
			<point x="316" y="10" type="curve" smooth="yes"/>
			<point x="280" y="1356" type="line" smooth="yes"/>
			<point x="275" y="1389"/>
			<point x="265" y="1390"/>
			<point x="228" y="1390" type="curve" smooth="yes"/>
			<point x="220" y="1390" type="line" smooth="yes"/>
			<point x="184" y="1390"/>
			<point x="180" y="1397"/>
			<point x="180" y="1434" type="curve" smooth="yes"/>
			<point x="180" y="1466" type="line" smooth="yes"/>
			<point x="180" y="1492"/>
			<point x="183" y="1500"/>
			<point x="208" y="1500" type="curve" smooth="yes"/>
			<point x="566" y="1500" type="line" smooth="yes"/>
			<point x="592" y="1500"/>
			<point x="600" y="1496"/>
			<point x="600" y="1468" type="curve" smooth="yes"/>
			<point x="600" y="1435" type="line" smooth="yes"/>
			<point x="600" y="1400"/>
			<point x="599" y="1390"/>
			<point x="564" y="1390" type="curve" smooth="yes"/>
			<point x="514" y="1390" type="line" smooth="yes"/>
			<point x="477" y="1390"/>
			<point x="475" y="1382"/>
			<point x="479" y="1352" type="curve" smooth="yes"/>
			<point x="491" y="526" type="line" smooth="yes"/>
			<point x="502" y="443"/>
			<point x="478" y="382"/>
			<point x="510" y="382" type="curve" smooth="yes"/>
			<point x="535" y="382"/>
			<point x="551.435" y="431.676"/>
		</contour>
	</outline>
</glyph>
<glyph name="X" format="2">
	<advance width="1250" height="0"/>
	<unicode hex="0058"/>
	<anchor x="795" y="1500" name="Anchor-0"/>
	<anchor x="456" y="0" name="Anchor-1"/>
	<anchor x="456" y="0" name="Anchor-2"/>
	<outline>
		<contour>
			<point x="306" y="1390" type="curve" smooth="yes"/>
			<point x="256" y="1390" type="line" smooth="yes"/>
			<point x="225" y="1390"/>
			<point x="210" y="1392"/>
			<point x="210" y="1426" type="curve" smooth="yes"/>
			<point x="210" y="1468" type="line" smooth="yes"/>
			<point x="210" y="1494"/>
			<point x="215" y="1500"/>
			<point x="240" y="1500" type="curve" smooth="yes"/>
			<point x="637" y="1500" type="line" smooth="yes"/>
			<point x="660" y="1500"/>
			<point x="670" y="1499"/>
			<point x="670" y="1476" type="curve" smooth="yes"/>
			<point x="670" y="1421" type="line" smooth="yes"/>
			<point x="670" y="1396"/>
			<point x="665" y="1390"/>
			<point x="641" y="1390" type="curve" smooth="yes"/>
			<point x="577" y="1390" type="line" smooth="yes"/>
			<point x="549" y="1390"/>
			<point x="541" y="1387"/>
			<point x="548" y="1361" type="curve" smooth="yes"/>
			<point x="660" y="942" type="line" smooth="yes"/>
			<point x="666" y="920"/>
			<point x="669.945" y="909"/>
			<point x="679" y="909" type="curve" smooth="yes"/>
			<point x="687" y="909"/>
			<point x="697" y="920"/>
			<point x="713" y="942" type="curve" smooth="yes"/>
			<point x="1015" y="1358" type="line" smooth="yes"/>
			<point x="1030" y="1378"/>
			<point x="1025" y="1390"/>
			<point x="995" y="1390" type="curve" smooth="yes"/>
			<point x="920" y="1390" type="line" smooth="yes"/>
			<point x="910" y="1390"/>
			<point x="900" y="1390"/>
			<point x="900" y="1420" type="curve" smooth="yes"/>
			<point x="900" y="1469" type="line" smooth="yes"/>
			<point x="900" y="1495"/>
			<point x="907" y="1500"/>
			<point x="931" y="1500" type="curve" smooth="yes"/>
			<point x="1255" y="1500" type="line" smooth="yes"/>
			<point x="1290" y="1500"/>
			<point x="1300" y="1497"/>
			<point x="1300" y="1459" type="curve" smooth="yes"/>
			<point x="1300" y="1421" type="line" smooth="yes"/>
			<point x="1300" y="1395"/>
			<point x="1292" y="1390"/>
			<point x="1267" y="1390" type="curve" smooth="yes"/>
			<point x="1211" y="1390" type="line" smooth="yes"/>
			<point x="1175" y="1390"/>
			<point x="1162" y="1382"/>
			<point x="1148" y="1362" type="curve" smooth="yes"/>
			<point x="781" y="859" type="line" smooth="yes"/>
			<point x="758" y="827"/>
			<point x="745" y="804"/>
			<point x="745" y="775" type="curve" smooth="yes"/>
			<point x="745" y="761"/>
			<point x="749" y="745"/>
			<point x="755" y="727" type="curve" smooth="yes"/>
			<point x="959" y="148" type="line" smooth="yes"/>
			<point x="974" y="115"/>
			<point x="995" y="110"/>
			<point x="1029" y="110" type="curve" smooth="yes"/>
			<point x="1071" y="110" type="line" smooth="yes"/>
			<point x="1090" y="110"/>
			<point x="1100" y="106"/>
			<point x="1100" y="75" type="curve" smooth="yes"/>
			<point x="1100" y="38" type="line" smooth="yes"/>
			<point x="1100" y="8"/>
			<point x="1097" y="0"/>
			<point x="1068" y="0" type="curve" smooth="yes"/>
			<point x="671" y="0" type="line" smooth="yes"/>
			<point x="647" y="0"/>
			<point x="640" y="4"/>
			<point x="640" y="27" type="curve" smooth="yes"/>
			<point x="640" y="79" type="line" smooth="yes"/>
			<point x="640" y="106"/>
			<point x="651" y="110"/>
			<point x="656" y="110" type="curve" smooth="yes"/>
			<point x="734" y="110" type="line" smooth="yes"/>
			<point x="747" y="110"/>
			<point x="753" y="124"/>
			<point x="744" y="141" type="curve" smooth="yes"/>
			<point x="603" y="583" type="line" smooth="yes"/>
			<point x="595" y="607"/>
			<point x="590" y="618"/>
			<point x="582" y="618" type="curve" smooth="yes"/>
			<point x="573.938" y="618"/>
			<point x="564" y="606"/>
			<point x="545" y="583" type="curve" smooth="yes"/>
			<point x="198" y="154" type="line" smooth="yes"/>
			<point x="177" y="119"/>
			<point x="206" y="110"/>
			<point x="226" y="110" type="curve" smooth="yes"/>
			<point x="256" y="110" type="line" smooth="yes"/>
			<point x="283" y="110"/>
			<point x="290" y="106"/>
			<point x="290" y="79" type="curve" smooth="yes"/>
			<point x="290" y="32" type="line" smooth="yes"/>
			<point x="290" y="7"/>
			<point x="286" y="0"/>
			<point x="262" y="0" type="curve" smooth="yes"/>
			<point x="-90" y="0" type="line" smooth="yes"/>
			<point x="-116" y="0"/>
			<point x="-120" y="7"/>
			<point x="-120" y="34" type="curve" smooth="yes"/>
			<point x="-120" y="87" type="line" smooth="yes"/>
			<point x="-120" y="105"/>
			<point x="-111" y="110"/>
			<point x="-95" y="110" type="curve" smooth="yes"/>
			<point x="-37" y="110" type="line" smooth="yes"/>
			<point x="10" y="110"/>
			<point x="24" y="117"/>
			<point x="44" y="141" type="curve" smooth="yes"/>
			<point x="503" y="697" type="line" smooth="yes"/>
			<point x="517" y="714"/>
			<point x="524" y="733"/>
			<point x="524" y="755" type="curve" smooth="yes"/>
			<point x="524" y="773"/>
			<point x="520" y="793"/>
			<point x="512" y="817" type="curve" smooth="yes"/>
			<point x="337" y="1360" type="line" smooth="yes"/>
			<point x="328" y="1386"/>
			<point x="318" y="1390"/>
		</contour>
	</outline>
</glyph>
<glyph name="Y" format="2">
	<advance width="1140" height="0"/>
	<unicode hex="0059"/>
	<anchor x="755" y="1500" name="Anchor-0"/>
	<anchor x="416" y="0" name="Anchor-1"/>
	<anchor x="416" y="0" name="Anchor-2"/>
	<outline>
		<contour>
			<point x="218" y="40" type="curve" smooth="yes"/>
			<point x="218" y="76" type="line" smooth="yes"/>
			<point x="218" y="105"/>
			<point x="225" y="110"/>
			<point x="252" y="110" type="curve" smooth="yes"/>
			<point x="296" y="110" type="line" smooth="yes"/>
			<point x="348" y="110"/>
			<point x="340" y="132"/>
			<point x="349" y="172" type="curve" smooth="yes"/>
			<point x="438" y="558" type="line" smooth="yes"/>
			<point x="451" y="614"/>
			<point x="455" y="638"/>
			<point x="433" y="684" type="curve" smooth="yes"/>
			<point x="243" y="1364" type="line" smooth="yes"/>
			<point x="232" y="1386"/>
			<point x="232" y="1390"/>
			<point x="198" y="1390" type="curve" smooth="yes"/>
			<point x="192" y="1390" type="line" smooth="yes"/>
			<point x="160" y="1390"/>
			<point x="150" y="1393"/>
			<point x="150" y="1428" type="curve" smooth="yes"/>
			<point x="150" y="1468" type="line" smooth="yes"/>
			<point x="150" y="1500"/>
			<point x="160" y="1500"/>
			<point x="192" y="1500" type="curve" smooth="yes"/>
			<point x="555" y="1500" type="line" smooth="yes"/>
			<point x="583" y="1500"/>
			<point x="591" y="1497"/>
			<point x="591" y="1470" type="curve" smooth="yes"/>
			<point x="591" y="1436" type="line" smooth="yes"/>
			<point x="591" y="1397"/>
			<point x="587" y="1390"/>
			<point x="549" y="1390" type="curve" smooth="yes"/>
			<point x="483" y="1390" type="line" smooth="yes"/>
			<point x="441" y="1390"/>
			<point x="441" y="1382"/>
			<point x="455" y="1352" type="curve" smooth="yes"/>
			<point x="582" y="887" type="line" smooth="yes"/>
			<point x="592.584" y="848.248"/>
			<point x="599" y="795"/>
			<point x="619" y="795" type="curve" smooth="yes"/>
			<point x="633" y="795"/>
			<point x="652.071" y="836.08"/>
			<point x="675" y="873" type="curve" smooth="yes"/>
			<point x="970" y="1348" type="line" smooth="yes"/>
			<point x="991.408" y="1384.7"/>
			<point x="975" y="1390"/>
			<point x="926" y="1390" type="curve" smooth="yes"/>
			<point x="904" y="1390" type="line" smooth="yes"/>
			<point x="861" y="1390"/>
			<point x="860" y="1394"/>
			<point x="860" y="1437" type="curve" smooth="yes"/>
			<point x="860" y="1462" type="line" smooth="yes"/>
			<point x="860" y="1492"/>
			<point x="863" y="1500"/>
			<point x="892" y="1500" type="curve" smooth="yes"/>
			<point x="1246" y="1500" type="line" smooth="yes"/>
			<point x="1271" y="1500"/>
			<point x="1280" y="1499"/>
			<point x="1280" y="1474" type="curve" smooth="yes"/>
			<point x="1280" y="1430" type="line" smooth="yes"/>
			<point x="1280" y="1397"/>
			<point x="1276" y="1390"/>
			<point x="1244" y="1390" type="curve" smooth="yes"/>
			<point x="1186" y="1390" type="line" smooth="yes"/>
			<point x="1143" y="1390"/>
			<point x="1137.505" y="1384.236"/>
			<point x="1122" y="1360" type="curve" smooth="yes"/>
			<point x="710" y="716" type="line" smooth="yes"/>
			<point x="683.166" y="674.055"/>
			<point x="660" y="656"/>
			<point x="646" y="596" type="curve" smooth="yes"/>
			<point x="548" y="166" type="line" smooth="yes"/>
			<point x="538" y="124"/>
			<point x="543" y="110"/>
			<point x="600" y="110" type="curve" smooth="yes"/>
			<point x="612" y="110" type="line" smooth="yes"/>
			<point x="651" y="110"/>
			<point x="658" y="106"/>
			<point x="658" y="68" type="curve" smooth="yes"/>
			<point x="658" y="42" type="line" smooth="yes"/>
			<point x="658" y="3"/>
			<point x="647" y="0"/>
			<point x="610" y="0" type="curve" smooth="yes"/>
			<point x="266" y="0" type="line" smooth="yes"/>
			<point x="227" y="0"/>
			<point x="218" y="1"/>
		</contour>
	</outline>
</glyph>
<glyph name="Z" format="2">
	<advance width="1015" height="0"/>
	<unicode hex="005A"/>
	<anchor x="675" y="1500" name="Anchor-0"/>
	<anchor x="456" y="0" name="Anchor-1"/>
	<anchor x="456" y="0" name="Anchor-2"/>
	<outline>
		<contour>
			<point x="-90" y="36" type="curve" smooth="yes"/>
			<point x="-90" y="68" type="line" smooth="yes"/>
			<point x="-90" y="101"/>
			<point x="-70.82" y="122.611"/>
			<point x="-54" y="145" type="curve" smooth="yes"/>
			<point x="818" y="1319" type="line" smooth="yes"/>
			<point x="843.23" y="1352.583"/>
			<point x="853" y="1367"/>
			<point x="853" y="1378" type="curve" smooth="yes"/>
			<point x="853" y="1387"/>
			<point x="848" y="1390"/>
			<point x="788" y="1390" type="curve" smooth="yes"/>
			<point x="670" y="1390" type="line" smooth="yes"/>
			<point x="412" y="1390"/>
			<point x="312" y="1314"/>
			<point x="243" y="1076" type="curve" smooth="yes"/>
			<point x="234" y="1045"/>
			<point x="229" y="1030"/>
			<point x="195" y="1030" type="curve" smooth="yes"/>
			<point x="170" y="1030" type="line" smooth="yes"/>
			<point x="131" y="1030"/>
			<point x="132" y="1041"/>
			<point x="139" y="1070" type="curve" smooth="yes"/>
			<point x="230" y="1457" type="line" smooth="yes"/>
			<point x="238" y="1490"/>
			<point x="243" y="1500"/>
			<point x="286" y="1500" type="curve" smooth="yes"/>
			<point x="1068" y="1500" type="line" smooth="yes"/>
			<point x="1101" y="1500"/>
			<point x="1110" y="1490"/>
			<point x="1110" y="1463" type="curve" smooth="yes"/>
			<point x="1110" y="1433" type="line" smooth="yes"/>
			<point x="1110" y="1400"/>
			<point x="1099.97" y="1378.016"/>
			<point x="1079" y="1350" type="curve" smooth="yes"/>
			<point x="220" y="189" type="line" smooth="yes"/>
			<point x="194.836" y="155.38"/>
			<point x="183" y="142"/>
			<point x="183" y="126" type="curve" smooth="yes"/>
			<point x="183" y="110"/>
			<point x="194" y="110"/>
			<point x="258" y="110" type="curve" smooth="yes"/>
			<point x="450" y="110" type="line" smooth="yes"/>
			<point x="705" y="110"/>
			<point x="715" y="184"/>
			<point x="793" y="448" type="curve" smooth="yes"/>
			<point x="803" y="481"/>
			<point x="796" y="510"/>
			<point x="843" y="510" type="curve" smooth="yes"/>
			<point x="865" y="510" type="line" smooth="yes"/>
			<point x="911" y="510"/>
			<point x="907" y="497"/>
			<point x="899" y="464" type="curve" smooth="yes"/>
			<point x="800" y="44" type="line" smooth="yes"/>
			<point x="791" y="4"/>
			<point x="792" y="0"/>
			<point x="741" y="0" type="curve" smooth="yes"/>
			<point x="-46" y="0" type="line" smooth="yes"/>
			<point x="-81" y="0"/>
			<point x="-90" y="11"/>
		</contour>
	</outline>
</glyph>
<glyph name="a" format="2">
	<advance width="818" height="2310"/>
	<unicode hex="0061"/>
	<anchor x="447" y="1040" name="Anchor-0"/>
	<anchor x="289" y="0" name="Anchor-1"/>
	<anchor x="289" y="0" name="Anchor-2"/>
	<anchor x="661" y="20" name="Anchor-3"/>
	<outline>
		<contour>
			<point x="539" y="770" type="curve" smooth="yes"/>
			<point x="539" y="868"/>
			<point x="520" y="976"/>
			<point x="453" y="976" type="curve" smooth="yes"/>
			<point x="335" y="976"/>
			<point x="182" y="558"/>
			<point x="182" y="270" type="curve" smooth="yes"/>
			<point x="182" y="152"/>
			<point x="193" y="74"/>
			<point x="249" y="74" type="curve" smooth="yes"/>
			<point x="376" y="74"/>
			<point x="539" y="582"/>
		</contour>
		<contour>
			<point x="773" y="229" type="curve" smooth="yes"/>
			<point x="706" y="80"/>
			<point x="646" y="-20"/>
			<point x="509" y="-20" type="curve" smooth="yes"/>
			<point x="418" y="-20"/>
			<point x="392" y="31"/>
			<point x="393" y="76" type="curve" smooth="yes"/>
			<point x="393" y="85"/>
			<point x="395" y="89"/>
			<point x="396" y="100" type="curve" smooth="yes"/>
			<point x="397" y="114"/>
			<point x="392" y="115"/>
			<point x="384" y="100" type="curve" smooth="yes"/>
			<point x="356" y="45"/>
			<point x="303" y="-20"/>
			<point x="225" y="-20" type="curve" smooth="yes"/>
			<point x="51" y="-20"/>
			<point x="-6" y="140"/>
			<point x="-6" y="340" type="curve" smooth="yes"/>
			<point x="-6" y="730"/>
			<point x="228" y="1058"/>
			<point x="450" y="1058" type="curve" smooth="yes"/>
			<point x="527" y="1058"/>
			<point x="563" y="1001"/>
			<point x="578" y="961" type="curve" smooth="yes"/>
			<point x="590" y="929"/>
			<point x="598" y="924"/>
			<point x="606" y="958" type="curve" smooth="yes"/>
			<point x="619" y="1014" type="line" smooth="yes"/>
			<point x="623" y="1032"/>
			<point x="628" y="1040"/>
			<point x="649" y="1040" type="curve" smooth="yes"/>
			<point x="746" y="1040" type="line" smooth="yes"/>
			<point x="786" y="1040"/>
			<point x="788" y="1034"/>
			<point x="780" y="1002" type="curve" smooth="yes"/>
			<point x="573" y="138" type="line" smooth="yes"/>
			<point x="570" y="127"/>
			<point x="567" y="107"/>
			<point x="567" y="97" type="curve" smooth="yes"/>
			<point x="567" y="83"/>
			<point x="569" y="74"/>
			<point x="580" y="74" type="curve" smooth="yes"/>
			<point x="615" y="74"/>
			<point x="655" y="149"/>
			<point x="703" y="254" type="curve" smooth="yes"/>
			<point x="711" y="271"/>
			<point x="709" y="276"/>
			<point x="728" y="269" type="curve" smooth="yes"/>
			<point x="762" y="257" type="line" smooth="yes"/>
			<point x="780" y="251"/>
			<point x="781" y="246"/>
		</contour>
	</outline>
</glyph>
<glyph name="b" format="2">
	<advance width="811" height="2310"/>
	<unicode hex="0062"/>
	<anchor x="638" y="1040" name="Anchor-0"/>
	<anchor x="310" y="0" name="Anchor-1"/>
	<anchor x="310" y="0" name="Anchor-2"/>
	<outline>
		<contour>
			<point x="191" y="200" type="curve" smooth="yes"/>
			<point x="191" y="111"/>
			<point x="218" y="60"/>
			<point x="282" y="60" type="curve" smooth="yes"/>
			<point x="443" y="60"/>
			<point x="599" y="532"/>
			<point x="599" y="790" type="curve" smooth="yes"/>
			<point x="599" y="878"/>
			<point x="571" y="950"/>
			<point x="498" y="950" type="curve" smooth="yes"/>
			<point x="393" y="950"/>
			<point x="313" y="789"/>
			<point x="259" y="552" type="curve" smooth="yes"/>
			<point x="196" y="264" type="line" smooth="yes"/>
			<point x="191" y="244"/>
			<point x="191" y="223"/>
		</contour>
		<contour>
			<point x="21" y="292" type="curve" smooth="yes"/>
			<point x="278" y="1416" type="line" smooth="yes"/>
			<point x="286" y="1449"/>
			<point x="281" y="1450"/>
			<point x="267" y="1450" type="curve" smooth="yes"/>
			<point x="261" y="1450" type="line" smooth="yes"/>
			<point x="233" y="1450"/>
			<point x="231" y="1467"/>
			<point x="231" y="1492" type="curve" smooth="yes"/>
			<point x="231" y="1528" type="line" smooth="yes"/>
			<point x="231" y="1552"/>
			<point x="234" y="1560"/>
			<point x="257" y="1560" type="curve" smooth="yes"/>
			<point x="453" y="1560" type="line" smooth="yes"/>
			<point x="486" y="1560"/>
			<point x="490" y="1556"/>
			<point x="484" y="1530" type="curve" smooth="yes"/>
			<point x="361" y="992" type="line" smooth="yes"/>
			<point x="351" y="950"/>
			<point x="353" y="938"/>
			<point x="387" y="978" type="curve" smooth="yes"/>
			<point x="418" y="1014"/>
			<point x="479" y="1058"/>
			<point x="547" y="1058" type="curve" smooth="yes"/>
			<point x="664" y="1058"/>
			<point x="783" y="988"/>
			<point x="783" y="758" type="curve" smooth="yes"/>
			<point x="783" y="368"/>
			<point x="593" y="-20"/>
			<point x="274" y="-20" type="curve" smooth="yes"/>
			<point x="165" y="-20"/>
			<point x="86" y="74"/>
			<point x="27" y="199" type="curve" smooth="yes"/>
			<point x="11" y="233"/>
			<point x="12" y="250"/>
		</contour>
	</outline>
</glyph>
<glyph name="d" format="2">
	<advance width="819" height="2310"/>
	<unicode hex="0064"/>
	<anchor x="551" y="1040" name="Anchor-0"/>
	<anchor x="1310" y="1040" name="Anchor-1"/>
	<anchor x="532" y="0" name="Anchor-2"/>
	<outline>
		<contour>
			<point x="539" y="770" type="curve" smooth="yes"/>
			<point x="539" y="868"/>
			<point x="520" y="976"/>
			<point x="453" y="976" type="curve" smooth="yes"/>
			<point x="335" y="976"/>
			<point x="183" y="558"/>
			<point x="183" y="270" type="curve" smooth="yes"/>
			<point x="183" y="152"/>
			<point x="193" y="74"/>
			<point x="249" y="74" type="curve" smooth="yes"/>
			<point x="376" y="74"/>
			<point x="539" y="582"/>
		</contour>
		<contour>
			<point x="773" y="229" type="curve" smooth="yes"/>
			<point x="706" y="80"/>
			<point x="646" y="-20"/>
			<point x="509" y="-20" type="curve" smooth="yes"/>
			<point x="418" y="-20"/>
			<point x="392" y="31"/>
			<point x="393" y="76" type="curve" smooth="yes"/>
			<point x="393" y="85"/>
			<point x="395" y="89"/>
			<point x="396" y="100" type="curve" smooth="yes"/>
			<point x="397" y="114"/>
			<point x="392" y="115"/>
			<point x="384" y="100" type="curve" smooth="yes"/>
			<point x="356" y="45"/>
			<point x="303" y="-20"/>
			<point x="225" y="-20" type="curve" smooth="yes"/>
			<point x="51" y="-20"/>
			<point x="-5" y="140"/>
			<point x="-5" y="340" type="curve" smooth="yes"/>
			<point x="-5" y="730"/>
			<point x="228" y="1058"/>
			<point x="450" y="1058" type="curve" smooth="yes"/>
			<point x="518" y="1058"/>
			<point x="564" y="993"/>
			<point x="574" y="961" type="curve" smooth="yes"/>
			<point x="585" y="926"/>
			<point x="598" y="924"/>
			<point x="606" y="958" type="curve" smooth="yes"/>
			<point x="711" y="1407" type="line" smooth="yes"/>
			<point x="716" y="1430"/>
			<point x="721" y="1450"/>
			<point x="692" y="1450" type="curve" smooth="yes"/>
			<point x="684" y="1450" type="line" smooth="yes"/>
			<point x="666" y="1450"/>
			<point x="664" y="1458"/>
			<point x="665" y="1480" type="curve" smooth="yes"/>
			<point x="666" y="1524" type="line" smooth="yes"/>
			<point x="667" y="1550"/>
			<point x="668" y="1560"/>
			<point x="690" y="1560" type="curve" smooth="yes"/>
			<point x="860" y="1560" type="line" smooth="yes"/>
			<point x="901" y="1560"/>
			<point x="909" y="1559"/>
			<point x="901" y="1524" type="curve" smooth="yes"/>
			<point x="573" y="138" type="line" smooth="yes"/>
			<point x="570" y="127"/>
			<point x="567" y="107"/>
			<point x="567" y="97" type="curve" smooth="yes"/>
			<point x="567" y="83"/>
			<point x="569" y="74"/>
			<point x="580" y="74" type="curve" smooth="yes"/>
			<point x="615" y="74"/>
			<point x="655" y="149"/>
			<point x="703" y="254" type="curve" smooth="yes"/>
			<point x="711" y="271"/>
			<point x="709" y="276"/>
			<point x="728" y="269" type="curve" smooth="yes"/>
			<point x="762" y="257" type="line" smooth="yes"/>
			<point x="780" y="251"/>
			<point x="781" y="246"/>
		</contour>
	</outline>
</glyph>
<glyph name="e" format="2">
	<advance width="728" height="2310"/>
	<unicode hex="0065"/>
	<anchor x="489" y="1040" name="Anchor-0"/>
	<anchor x="240" y="0" name="Anchor-1"/>
	<anchor x="240" y="0" name="Anchor-2"/>
	<anchor x="513" y="102" name="Anchor-3"/>
	<outline>
		<contour>
			<point x="-7" y="360" type="curve" smooth="yes"/>
			<point x="-7" y="760"/>
			<point x="225" y="1060"/>
			<point x="501" y="1060" type="curve" smooth="yes"/>
			<point x="626" y="1060"/>
			<point x="706" y="988"/>
			<point x="706" y="864" type="curve" smooth="yes"/>
			<point x="706" y="630"/>
			<point x="456" y="470"/>
			<point x="233" y="397" type="curve" smooth="yes"/>
			<point x="190" y="384"/>
			<point x="177" y="374"/>
			<point x="177" y="310" type="curve" smooth="yes"/>
			<point x="177" y="162"/>
			<point x="215" y="78"/>
			<point x="288" y="78" type="curve" smooth="yes"/>
			<point x="398" y="78"/>
			<point x="477" y="172"/>
			<point x="549" y="288" type="curve" smooth="yes"/>
			<point x="560" y="305"/>
			<point x="567" y="306"/>
			<point x="596" y="306" type="curve" smooth="yes"/>
			<point x="625" y="306" type="line" smooth="yes"/>
			<point x="663" y="306"/>
			<point x="668" y="302"/>
			<point x="651" y="272" type="curve" smooth="yes"/>
			<point x="564" y="118"/>
			<point x="442" y="-20"/>
			<point x="254" y="-20" type="curve" smooth="yes"/>
			<point x="78" y="-20"/>
			<point x="-7" y="160"/>
		</contour>
		<contour>
			<point x="241" y="488" type="curve" smooth="yes"/>
			<point x="416" y="568"/>
			<point x="538" y="716"/>
			<point x="540" y="894" type="curve" smooth="yes"/>
			<point x="541" y="938"/>
			<point x="522" y="966"/>
			<point x="482" y="966" type="curve" smooth="yes"/>
			<point x="389" y="966"/>
			<point x="258" y="773"/>
			<point x="207" y="556" type="curve" smooth="yes"/>
			<point x="194" y="503"/>
			<point x="193" y="468"/>
		</contour>
	</outline>
</glyph>
<glyph name="f" format="2">
	<advance width="468" height="2310"/>
	<unicode hex="0066"/>
	<anchor x="809" y="1692" name="Anchor-0"/>
	<anchor x="71" y="0" name="Anchor-1"/>
	<anchor x="71" y="0" name="Anchor-2"/>
	<outline>
		<contour>
			<point x="-71" y="-266" type="curve" smooth="yes"/>
			<point x="163" y="900" type="line" smooth="yes"/>
			<point x="169" y="929"/>
			<point x="166" y="930"/>
			<point x="143" y="930" type="curve" smooth="yes"/>
			<point x="136" y="930" type="line" smooth="yes"/>
			<point x="120" y="930"/>
			<point x="112" y="933"/>
			<point x="112" y="958" type="curve" smooth="yes"/>
			<point x="112" y="1004" type="line" smooth="yes"/>
			<point x="112" y="1036"/>
			<point x="120" y="1040"/>
			<point x="150" y="1040" type="curve" smooth="yes"/>
			<point x="168" y="1040" type="line" smooth="yes"/>
			<point x="192" y="1040"/>
			<point x="191" y="1042"/>
			<point x="195" y="1062" type="curve" smooth="yes"/>
			<point x="212" y="1144" type="line" smooth="yes"/>
			<point x="265" y="1407"/>
			<point x="345" y="1580"/>
			<point x="564" y="1580" type="curve" smooth="yes"/>
			<point x="734" y="1580"/>
			<point x="829" y="1472"/>
			<point x="829" y="1358" type="curve" smooth="yes"/>
			<point x="829" y="1272"/>
			<point x="781" y="1226"/>
			<point x="711" y="1226" type="curve" smooth="yes"/>
			<point x="641" y="1226"/>
			<point x="595" y="1266"/>
			<point x="595" y="1322" type="curve" smooth="yes"/>
			<point x="595" y="1382"/>
			<point x="637" y="1396"/>
			<point x="637" y="1436" type="curve" smooth="yes"/>
			<point x="637" y="1460"/>
			<point x="612" y="1490"/>
			<point x="556" y="1490" type="curve" smooth="yes"/>
			<point x="428" y="1490"/>
			<point x="432" y="1288"/>
			<point x="392" y="1100" type="curve" smooth="yes"/>
			<point x="384" y="1062" type="line" smooth="yes"/>
			<point x="381" y="1046"/>
			<point x="385" y="1040"/>
			<point x="403" y="1040" type="curve" smooth="yes"/>
			<point x="483" y="1040" type="line" smooth="yes"/>
			<point x="504" y="1040"/>
			<point x="510" y="1035"/>
			<point x="510" y="1010" type="curve" smooth="yes"/>
			<point x="509" y="962" type="line" smooth="yes"/>
			<point x="509" y="936"/>
			<point x="505" y="930"/>
			<point x="481" y="930" type="curve" smooth="yes"/>
			<point x="378" y="930" type="line" smooth="yes"/>
			<point x="357" y="930"/>
			<point x="356" y="930"/>
			<point x="352" y="910" type="curve" smooth="yes"/>
			<point x="108" y="-272" type="line" smooth="yes"/>
			<point x="103" y="-296"/>
			<point x="94" y="-300"/>
			<point x="64" y="-300" type="curve" smooth="yes"/>
			<point x="-42" y="-300" type="line" smooth="yes"/>
			<point x="-75" y="-300"/>
			<point x="-76" y="-291"/>
		</contour>
	</outline>
</glyph>
<glyph name="h" format="2">
	<advance width="873" height="2310"/>
	<unicode hex="0068"/>
	<anchor x="748" y="1035" name="Anchor-0"/>
	<anchor x="339" y="0" name="Anchor-1"/>
	<anchor x="339" y="0" name="Anchor-2"/>
	<outline>
		<contour>
			<point x="831" y="229" type="curve" smooth="yes"/>
			<point x="763" y="79"/>
			<point x="713" y="-20"/>
			<point x="588" y="-20" type="curve" smooth="yes"/>
			<point x="524" y="-20"/>
			<point x="464" y="7"/>
			<point x="464" y="99" type="curve" smooth="yes"/>
			<point x="464" y="119"/>
			<point x="470" y="157"/>
			<point x="477" y="184" type="curve" smooth="yes"/>
			<point x="600" y="660" type="line" smooth="yes"/>
			<point x="644" y="830"/>
			<point x="674" y="952"/>
			<point x="599" y="952" type="curve" smooth="yes"/>
			<point x="477" y="952"/>
			<point x="311.854" y="603.034"/>
			<point x="250" y="335" type="curve" smooth="yes"/>
			<point x="184" y="49" type="line" smooth="yes"/>
			<point x="177" y="18"/>
			<point x="174" y="0"/>
			<point x="133" y="0" type="curve" smooth="yes"/>
			<point x="55" y="0" type="line" smooth="yes"/>
			<point x="-2" y="0"/>
			<point x="-6" y="4"/>
			<point x="4" y="49" type="curve" smooth="yes"/>
			<point x="320" y="1415" type="line" smooth="yes"/>
			<point x="328" y="1449"/>
			<point x="322" y="1450"/>
			<point x="306" y="1450" type="curve" smooth="yes"/>
			<point x="297" y="1450" type="line" smooth="yes"/>
			<point x="264" y="1450"/>
			<point x="263" y="1459"/>
			<point x="263" y="1493" type="curve" smooth="yes"/>
			<point x="263" y="1521" type="line" smooth="yes"/>
			<point x="263" y="1554"/>
			<point x="267" y="1560"/>
			<point x="299" y="1560" type="curve" smooth="yes"/>
			<point x="479" y="1560" type="line" smooth="yes"/>
			<point x="529" y="1560"/>
			<point x="532" y="1556"/>
			<point x="523" y="1517" type="curve" smooth="yes"/>
			<point x="373" y="869" type="line" smooth="yes"/>
			<point x="358" y="804"/>
			<point x="369" y="808"/>
			<point x="404" y="869" type="curve" smooth="yes"/>
			<point x="478" y="995"/>
			<point x="557" y="1058"/>
			<point x="660" y="1058" type="curve" smooth="yes"/>
			<point x="791" y="1058"/>
			<point x="875" y="957"/>
			<point x="795" y="682" type="curve" smooth="yes"/>
			<point x="653" y="192" type="line" smooth="yes"/>
			<point x="648" y="173"/>
			<point x="634" y="107"/>
			<point x="634" y="97" type="curve" smooth="yes"/>
			<point x="634" y="80"/>
			<point x="637" y="74"/>
			<point x="645" y="74" type="curve" smooth="yes"/>
			<point x="677" y="74"/>
			<point x="714" y="149"/>
			<point x="760" y="254" type="curve" smooth="yes"/>
			<point x="768" y="270"/>
			<point x="773" y="276"/>
			<point x="792" y="268" type="curve" smooth="yes"/>
			<point x="818" y="257" type="line" smooth="yes"/>
			<point x="835" y="250"/>
			<point x="838" y="246"/>
		</contour>
	</outline>
</glyph>
<glyph name="j" format="2">
	<advance width="355" height="2310"/>
	<unicode hex="006A"/>
	<anchor x="-208" y="-565" name="Anchor-1"/>
	<anchor x="-208" y="-565" name="Anchor-2"/>
	<outline>
		<contour>
			<point x="347" y="991" type="curve" smooth="yes"/>
			<point x="138" y="22" type="line" smooth="yes"/>
			<point x="72" y="-281"/>
			<point x="66" y="-520"/>
			<point x="-176" y="-520" type="curve" smooth="yes"/>
			<point x="-324" y="-520"/>
			<point x="-398" y="-420"/>
			<point x="-398" y="-306" type="curve" smooth="yes"/>
			<point x="-398" y="-207"/>
			<point x="-340" y="-138"/>
			<point x="-260" y="-138" type="curve" smooth="yes"/>
			<point x="-192" y="-138"/>
			<point x="-144" y="-184"/>
			<point x="-144" y="-250" type="curve" smooth="yes"/>
			<point x="-144" y="-320"/>
			<point x="-222" y="-334"/>
			<point x="-222" y="-374" type="curve" smooth="yes"/>
			<point x="-222" y="-400"/>
			<point x="-210" y="-432"/>
			<point x="-156" y="-432" type="curve" smooth="yes"/>
			<point x="6" y="-432"/>
			<point x="-52" y="-22"/>
			<point x="-2" y="208" type="curve" smooth="yes"/>
			<point x="145" y="887" type="line" smooth="yes"/>
			<point x="154" y="927"/>
			<point x="148" y="930"/>
			<point x="98" y="930" type="curve" smooth="yes"/>
			<point x="86" y="930" type="line" smooth="yes"/>
			<point x="61" y="930"/>
			<point x="58" y="937"/>
			<point x="58" y="963" type="curve" smooth="yes"/>
			<point x="58" y="1001" type="line" smooth="yes"/>
			<point x="58" y="1032"/>
			<point x="61" y="1040"/>
			<point x="91" y="1040" type="curve" smooth="yes"/>
			<point x="302" y="1040" type="line" smooth="yes"/>
			<point x="356" y="1040"/>
			<point x="356" y="1033"/>
		</contour>
		<contour>
			<point x="212" y="1400" type="curve" smooth="yes"/>
			<point x="212" y="1466"/>
			<point x="266" y="1520"/>
			<point x="332" y="1520" type="curve" smooth="yes"/>
			<point x="398" y="1520"/>
			<point x="452" y="1466"/>
			<point x="452" y="1400" type="curve" smooth="yes"/>
			<point x="452" y="1334"/>
			<point x="398" y="1280"/>
			<point x="332" y="1280" type="curve" smooth="yes"/>
			<point x="266" y="1280"/>
			<point x="212" y="1334"/>
		</contour>
	</outline>
</glyph>
<glyph name="l" format="2">
	<advance width="385" height="2310"/>
	<unicode hex="006C"/>
	<anchor x="533" y="1696" name="Anchor-0"/>
	<anchor x="637" y="1040" name="Anchor-1"/>
	<anchor x="180" y="0" name="Anchor-2"/>
	<outline>
		<contour>
			<point x="479" y="1510" type="curve" smooth="yes"/>
			<point x="191" y="192" type="line" smooth="yes"/>
			<point x="186" y="173"/>
			<point x="172" y="107"/>
			<point x="172" y="97" type="curve" smooth="yes"/>
			<point x="172" y="80"/>
			<point x="175" y="74"/>
			<point x="183" y="74" type="curve" smooth="yes"/>
			<point x="215" y="74"/>
			<point x="252" y="149"/>
			<point x="298" y="254" type="curve" smooth="yes"/>
			<point x="306" y="270"/>
			<point x="311" y="276"/>
			<point x="330" y="268" type="curve" smooth="yes"/>
			<point x="356" y="257" type="line" smooth="yes"/>
			<point x="373" y="250"/>
			<point x="376" y="246"/>
			<point x="369" y="229" type="curve" smooth="yes"/>
			<point x="301" y="79"/>
			<point x="251" y="-20"/>
			<point x="126" y="-20" type="curve" smooth="yes"/>
			<point x="62" y="-20"/>
			<point x="-8" y="7"/>
			<point x="-8" y="99" type="curve" smooth="yes"/>
			<point x="-8" y="119"/>
			<point x="-2" y="157"/>
			<point x="5" y="184" type="curve" smooth="yes"/>
			<point x="268" y="1416" type="line" smooth="yes"/>
			<point x="275" y="1445"/>
			<point x="269" y="1450"/>
			<point x="236" y="1450" type="curve" smooth="yes"/>
			<point x="234" y="1450" type="line" smooth="yes"/>
			<point x="200" y="1450"/>
			<point x="194" y="1455"/>
			<point x="194" y="1488" type="curve" smooth="yes"/>
			<point x="194" y="1528" type="line" smooth="yes"/>
			<point x="194" y="1556"/>
			<point x="204" y="1560"/>
			<point x="230" y="1560" type="curve" smooth="yes"/>
			<point x="436" y="1560" type="line" smooth="yes"/>
			<point x="488" y="1560"/>
			<point x="490" y="1555"/>
		</contour>
	</outline>
</glyph>
<glyph name="m" format="2">
	<advance width="1180" height="2310"/>
	<unicode hex="006D"/>
	<anchor x="860" y="1040" name="Anchor-0"/>
	<anchor x="600" y="0" name="Anchor-1"/>
	<anchor x="600" y="0" name="Anchor-2"/>
	<outline>
		<contour>
			<point x="175" y="1040" type="curve" smooth="yes"/>
			<point x="361" y="1040" type="line" smooth="yes"/>
			<point x="404" y="1040"/>
			<point x="407" y="1043"/>
			<point x="399" y="1007" type="curve" smooth="yes"/>
			<point x="366" y="891" type="line" smooth="yes"/>
			<point x="351" y="827"/>
			<point x="364" y="817"/>
			<point x="395" y="881" type="curve" smooth="yes"/>
			<point x="434" y="961"/>
			<point x="486" y="1058"/>
			<point x="587" y="1058" type="curve" smooth="yes"/>
			<point x="700" y="1058"/>
			<point x="749" y="989"/>
			<point x="751" y="887" type="curve" smooth="yes"/>
			<point x="752" y="837"/>
			<point x="762" y="834"/>
			<point x="788" y="886" type="curve" smooth="yes"/>
			<point x="842" y="995"/>
			<point x="902" y="1058"/>
			<point x="996" y="1058" type="curve" smooth="yes"/>
			<point x="1147" y="1058"/>
			<point x="1205" y="961"/>
			<point x="1129" y="682" type="curve" smooth="yes"/>
			<point x="998" y="192" type="line" smooth="yes"/>
			<point x="993" y="173"/>
			<point x="978" y="107"/>
			<point x="978" y="97" type="curve" smooth="yes"/>
			<point x="978" y="80"/>
			<point x="981" y="74"/>
			<point x="989" y="74" type="curve" smooth="yes"/>
			<point x="1021" y="74"/>
			<point x="1058" y="149"/>
			<point x="1104" y="254" type="curve" smooth="yes"/>
			<point x="1112" y="270"/>
			<point x="1117" y="276"/>
			<point x="1136" y="268" type="curve" smooth="yes"/>
			<point x="1162" y="257" type="line" smooth="yes"/>
			<point x="1179" y="250"/>
			<point x="1182" y="246"/>
			<point x="1175" y="229" type="curve" smooth="yes"/>
			<point x="1107" y="79"/>
			<point x="1057" y="-20"/>
			<point x="932" y="-20" type="curve" smooth="yes"/>
			<point x="868" y="-20"/>
			<point x="808" y="7"/>
			<point x="808" y="99" type="curve" smooth="yes"/>
			<point x="808" y="119"/>
			<point x="814" y="158"/>
			<point x="821" y="184" type="curve" smooth="yes"/>
			<point x="949" y="660" type="line" smooth="yes"/>
			<point x="994" y="827"/>
			<point x="1039" y="956"/>
			<point x="959" y="956" type="curve" smooth="yes"/>
			<point x="848" y="956"/>
			<point x="712" y="587"/>
			<point x="642" y="306" type="curve" smooth="yes"/>
			<point x="575" y="41" type="line" smooth="yes"/>
			<point x="566" y="6"/>
			<point x="562" y="0"/>
			<point x="518" y="0" type="curve" smooth="yes"/>
			<point x="442" y="0" type="line" smooth="yes"/>
			<point x="382" y="0"/>
			<point x="389" y="5"/>
			<point x="401" y="52" type="curve" smooth="yes"/>
			<point x="552" y="660" type="line" smooth="yes"/>
			<point x="593" y="826"/>
			<point x="633" y="956"/>
			<point x="552" y="956" type="curve" smooth="yes"/>
			<point x="464" y="956"/>
			<point x="309" y="615"/>
			<point x="244" y="332" type="curve" smooth="yes"/>
			<point x="177" y="42" type="line" smooth="yes"/>
			<point x="168" y="5"/>
			<point x="170" y="0"/>
			<point x="123" y="0" type="curve" smooth="yes"/>
			<point x="39" y="0" type="line" smooth="yes"/>
			<point x="-21" y="0"/>
			<point x="-12" y="7"/>
			<point x="-1" y="54" type="curve" smooth="yes"/>
			<point x="192" y="885" type="line" smooth="yes"/>
			<point x="201" y="925"/>
			<point x="204" y="930"/>
			<point x="184" y="930" type="curve" smooth="yes"/>
			<point x="181" y="930" type="line" smooth="yes"/>
			<point x="146" y="930"/>
			<point x="137" y="932"/>
			<point x="137" y="967" type="curve" smooth="yes"/>
			<point x="137" y="995" type="line" smooth="yes"/>
			<point x="137" y="1031"/>
			<point x="139" y="1040"/>
		</contour>
	</outline>
</glyph>
<glyph name="n" format="2">
	<advance width="873" height="2310"/>
	<unicode hex="006E"/>
	<anchor x="571" y="1040" name="Anchor-0"/>
	<anchor x="339" y="0" name="Anchor-1"/>
	<anchor x="339" y="0" name="Anchor-2"/>
	<outline>
		<contour>
			<point x="179" y="1040" type="curve" smooth="yes"/>
			<point x="359" y="1040" type="line" smooth="yes"/>
			<point x="409" y="1040"/>
			<point x="412" y="1036"/>
			<point x="403" y="997" type="curve" smooth="yes"/>
			<point x="373" y="869" type="line" smooth="yes"/>
			<point x="358" y="804"/>
			<point x="369" y="808"/>
			<point x="404" y="869" type="curve" smooth="yes"/>
			<point x="478" y="995"/>
			<point x="557" y="1058"/>
			<point x="660" y="1058" type="curve" smooth="yes"/>
			<point x="791" y="1058"/>
			<point x="875" y="957"/>
			<point x="795" y="682" type="curve" smooth="yes"/>
			<point x="653" y="192" type="line" smooth="yes"/>
			<point x="648" y="173"/>
			<point x="634" y="107"/>
			<point x="634" y="97" type="curve" smooth="yes"/>
			<point x="634" y="80"/>
			<point x="637" y="74"/>
			<point x="645" y="74" type="curve" smooth="yes"/>
			<point x="677" y="74"/>
			<point x="714" y="149"/>
			<point x="760" y="254" type="curve" smooth="yes"/>
			<point x="768" y="270"/>
			<point x="773" y="276"/>
			<point x="792" y="268" type="curve" smooth="yes"/>
			<point x="818" y="257" type="line" smooth="yes"/>
			<point x="835" y="250"/>
			<point x="838" y="246"/>
			<point x="831" y="229" type="curve" smooth="yes"/>
			<point x="763" y="79"/>
			<point x="713" y="-20"/>
			<point x="588" y="-20" type="curve" smooth="yes"/>
			<point x="524" y="-20"/>
			<point x="464" y="7"/>
			<point x="464" y="99" type="curve" smooth="yes"/>
			<point x="464" y="119"/>
			<point x="470" y="157"/>
			<point x="477" y="184" type="curve" smooth="yes"/>
			<point x="600" y="660" type="line" smooth="yes"/>
			<point x="644" y="830"/>
			<point x="674" y="952"/>
			<point x="599" y="952" type="curve" smooth="yes"/>
			<point x="477" y="952"/>
			<point x="312" y="603"/>
			<point x="250" y="335" type="curve" smooth="yes"/>
			<point x="184" y="49" type="line" smooth="yes"/>
			<point x="177" y="18"/>
			<point x="174" y="0"/>
			<point x="133" y="0" type="curve" smooth="yes"/>
			<point x="55" y="0" type="line" smooth="yes"/>
			<point x="-2" y="0"/>
			<point x="-6" y="4"/>
			<point x="4" y="49" type="curve" smooth="yes"/>
			<point x="200" y="895" type="line" smooth="yes"/>
			<point x="208" y="929"/>
			<point x="202" y="930"/>
			<point x="186" y="930" type="curve" smooth="yes"/>
			<point x="177" y="930" type="line" smooth="yes"/>
			<point x="144" y="930"/>
			<point x="143" y="939"/>
			<point x="143" y="973" type="curve" smooth="yes"/>
			<point x="143" y="1001" type="line" smooth="yes"/>
			<point x="143" y="1034"/>
			<point x="147" y="1040"/>
		</contour>
	</outline>
</glyph>
<glyph name="o" format="2">
	<advance width="787" height="2310"/>
	<unicode hex="006F"/>
	<anchor x="516" y="1050" name="Anchor-0"/>
	<anchor x="362" y="0" name="Anchor-1"/>
	<anchor x="362" y="0" name="Anchor-2"/>
	<outline>
		<contour>
			<point x="-5" y="360" type="curve" smooth="yes"/>
			<point x="-5" y="755"/>
			<point x="206" y="1060"/>
			<point x="487" y="1060" type="curve" smooth="yes"/>
			<point x="681" y="1060"/>
			<point x="758" y="900"/>
			<point x="758" y="708" type="curve" smooth="yes"/>
			<point x="758" y="310"/>
			<point x="569" y="-20"/>
			<point x="264" y="-20" type="curve" smooth="yes"/>
			<point x="79" y="-20"/>
			<point x="-5" y="159"/>
		</contour>
		<contour>
			<point x="176" y="250" type="curve" smooth="yes"/>
			<point x="176" y="142"/>
			<point x="199" y="70"/>
			<point x="275" y="70" type="curve" smooth="yes"/>
			<point x="460" y="70"/>
			<point x="575" y="536"/>
			<point x="575" y="790" type="curve" smooth="yes"/>
			<point x="575" y="898"/>
			<point x="552" y="970"/>
			<point x="476" y="970" type="curve" smooth="yes"/>
			<point x="291" y="970"/>
			<point x="176" y="504"/>
		</contour>
	</outline>
</glyph>
<glyph name="p" format="2">
	<advance width="825" height="2310"/>
	<unicode hex="0070"/>
	<anchor x="689" y="1040" name="Anchor-0"/>
	<anchor x="547" y="0" name="Anchor-1"/>
	<anchor x="547" y="0" name="Anchor-2"/>
	<outline>
		<contour>
			<point x="189" y="1038" type="curve" smooth="yes"/>
			<point x="345" y="1038" type="line" smooth="yes"/>
			<point x="394" y="1038"/>
			<point x="394" y="1035"/>
			<point x="384" y="992" type="curve" smooth="yes"/>
			<point x="374" y="949" type="line" smooth="yes"/>
			<point x="361" y="893"/>
			<point x="378" y="881"/>
			<point x="405" y="927" type="curve" smooth="yes"/>
			<point x="452" y="1006"/>
			<point x="512" y="1058"/>
			<point x="585" y="1058" type="curve" smooth="yes"/>
			<point x="718" y="1058"/>
			<point x="793" y="896"/>
			<point x="793" y="698" type="curve" smooth="yes"/>
			<point x="793" y="308"/>
			<point x="567" y="-20"/>
			<point x="337" y="-20" type="curve" smooth="yes"/>
			<point x="283" y="-20"/>
			<point x="243" y="7"/>
			<point x="221" y="57" type="curve" smooth="yes"/>
			<point x="194" y="117"/>
			<point x="192" y="122"/>
			<point x="176" y="52" type="curve" smooth="yes"/>
			<point x="61" y="-456" type="line" smooth="yes"/>
			<point x="54" y="-487"/>
			<point x="50" y="-502"/>
			<point x="10" y="-502" type="curve" smooth="yes"/>
			<point x="-95" y="-502" type="line" smooth="yes"/>
			<point x="-131" y="-502"/>
			<point x="-131" y="-493"/>
			<point x="-125" y="-466" type="curve" smooth="yes"/>
			<point x="186" y="876" type="line" smooth="yes"/>
			<point x="194" y="912"/>
			<point x="201" y="928"/>
			<point x="171" y="928" type="curve" smooth="yes"/>
			<point x="165" y="928" type="line" smooth="yes"/>
			<point x="144" y="928"/>
			<point x="143" y="937"/>
			<point x="143" y="968" type="curve" smooth="yes"/>
			<point x="143" y="997" type="line" smooth="yes"/>
			<point x="143" y="1035"/>
			<point x="153" y="1038"/>
		</contour>
		<contour>
			<point x="251" y="268" type="curve" smooth="yes"/>
			<point x="251" y="169.98"/>
			<point x="270" y="62"/>
			<point x="337" y="62" type="curve" smooth="yes"/>
			<point x="455" y="62"/>
			<point x="607" y="480"/>
			<point x="607" y="768" type="curve" smooth="yes"/>
			<point x="607" y="886"/>
			<point x="597" y="964"/>
			<point x="540" y="964" type="curve" smooth="yes"/>
			<point x="411" y="964"/>
			<point x="251" y="456"/>
		</contour>
	</outline>
</glyph>
<glyph name="q" format="2">
	<advance width="761" height="2310"/>
	<unicode hex="0071"/>
	<anchor x="504" y="1040" name="Anchor-0"/>
	<anchor x="192" y="0" name="Anchor-1"/>
	<anchor x="192" y="0" name="Anchor-2"/>
	<outline>
		<contour>
			<point x="-5" y="339" type="curve" smooth="yes"/>
			<point x="-5" y="729"/>
			<point x="229" y="1058"/>
			<point x="450" y="1058" type="curve" smooth="yes"/>
			<point x="518" y="1058"/>
			<point x="548" y="1008"/>
			<point x="569" y="961" type="curve" smooth="yes"/>
			<point x="583" y="929"/>
			<point x="595" y="924"/>
			<point x="602" y="952" type="curve" smooth="yes"/>
			<point x="617" y="1014" type="line" smooth="yes"/>
			<point x="624" y="1035"/>
			<point x="630" y="1040"/>
			<point x="657" y="1040" type="curve" smooth="yes"/>
			<point x="743" y="1040" type="line" smooth="yes"/>
			<point x="774" y="1040"/>
			<point x="781" y="1031"/>
			<point x="776" y="1007" type="curve" smooth="yes"/>
			<point x="475" y="-359" type="line" smooth="yes"/>
			<point x="470" y="-382"/>
			<point x="469" y="-390"/>
			<point x="489" y="-390" type="curve" smooth="yes"/>
			<point x="501" y="-390" type="line" smooth="yes"/>
			<point x="516" y="-390"/>
			<point x="523" y="-394"/>
			<point x="523" y="-418" type="curve" smooth="yes"/>
			<point x="523" y="-458" type="line" smooth="yes"/>
			<point x="523" y="-491"/>
			<point x="522" y="-500"/>
			<point x="489" y="-500" type="curve" smooth="yes"/>
			<point x="317" y="-500" type="line" smooth="yes"/>
			<point x="272" y="-500"/>
			<point x="259" y="-498"/>
			<point x="266" y="-468" type="curve" smooth="yes"/>
			<point x="388" y="58" type="line" smooth="yes"/>
			<point x="396" y="92"/>
			<point x="386" y="100"/>
			<point x="364" y="69" type="curve" smooth="yes"/>
			<point x="339" y="34"/>
			<point x="289" y="-20"/>
			<point x="224" y="-20" type="curve" smooth="yes"/>
			<point x="50" y="-20"/>
			<point x="-5" y="139"/>
		</contour>
		<contour>
			<point x="539" y="770" type="curve" smooth="yes"/>
			<point x="539" y="868.02"/>
			<point x="520" y="976"/>
			<point x="453" y="976" type="curve" smooth="yes"/>
			<point x="334" y="976"/>
			<point x="183" y="558"/>
			<point x="183" y="270" type="curve" smooth="yes"/>
			<point x="183" y="151.983"/>
			<point x="193" y="74"/>
			<point x="249" y="74" type="curve" smooth="yes"/>
			<point x="378" y="74"/>
			<point x="539" y="582"/>
		</contour>
	</outline>
</glyph>
<glyph name="r" format="2">
	<advance width="736" height="2310"/>
	<unicode hex="0072"/>
	<anchor x="484" y="1040" name="Anchor-0"/>
	<anchor x="105" y="0" name="Anchor-1"/>
	<anchor x="105" y="0" name="Anchor-2"/>
	<outline>
		<contour>
			<point x="172" y="1040" type="curve" smooth="yes"/>
			<point x="335" y="1040" type="line" smooth="yes"/>
			<point x="382" y="1040"/>
			<point x="394" y="1035"/>
			<point x="386" y="998" type="curve" smooth="yes"/>
			<point x="372" y="938" type="line" smooth="yes"/>
			<point x="359" y="882"/>
			<point x="374" y="896"/>
			<point x="398" y="936" type="curve" smooth="yes"/>
			<point x="447" y="1017"/>
			<point x="484" y="1060"/>
			<point x="560" y="1060" type="curve" smooth="yes"/>
			<point x="668" y="1060"/>
			<point x="740" y="988"/>
			<point x="740" y="902" type="curve" smooth="yes"/>
			<point x="740" y="818"/>
			<point x="686" y="757"/>
			<point x="616" y="757" type="curve" smooth="yes"/>
			<point x="540" y="757"/>
			<point x="496" y="799"/>
			<point x="496" y="871" type="curve" smooth="yes"/>
			<point x="496" y="915.012"/>
			<point x="515" y="930"/>
			<point x="515" y="947" type="curve" smooth="yes"/>
			<point x="515" y="953"/>
			<point x="511" y="957"/>
			<point x="504" y="957" type="curve" smooth="yes"/>
			<point x="469" y="957"/>
			<point x="304.146" y="643.953"/>
			<point x="252" y="417" type="curve" smooth="yes"/>
			<point x="164" y="34" type="line" smooth="yes"/>
			<point x="157" y="3"/>
			<point x="158" y="0"/>
			<point x="119" y="0" type="curve" smooth="yes"/>
			<point x="17" y="0" type="line" smooth="yes"/>
			<point x="-24" y="0"/>
			<point x="-21" y="12"/>
			<point x="-14" y="42" type="curve" smooth="yes"/>
			<point x="182" y="885" type="line" smooth="yes"/>
			<point x="191" y="926"/>
			<point x="191" y="930"/>
			<point x="161" y="930" type="curve" smooth="yes"/>
			<point x="159" y="930" type="line" smooth="yes"/>
			<point x="137" y="930"/>
			<point x="135" y="939"/>
			<point x="135" y="972" type="curve" smooth="yes"/>
			<point x="135" y="1013" type="line" smooth="yes"/>
			<point x="135" y="1032"/>
			<point x="146" y="1040"/>
		</contour>
	</outline>
</glyph>
<glyph name="s" format="2">
	<advance width="650" height="2310"/>
	<unicode hex="0073"/>
	<anchor x="421" y="1040" name="Anchor-0"/>
	<anchor x="250" y="30" name="Anchor-1"/>
	<anchor x="250" y="30" name="Anchor-2"/>
	<outline>
		<contour>
			<point x="426" y="251" type="curve" smooth="yes"/>
			<point x="426" y="487"/>
			<point x="87" y="478"/>
			<point x="87" y="770" type="curve" smooth="yes"/>
			<point x="87" y="938"/>
			<point x="216" y="1064"/>
			<point x="398" y="1064" type="curve" smooth="yes"/>
			<point x="544" y="1064"/>
			<point x="646" y="974"/>
			<point x="646" y="822" type="curve" smooth="yes"/>
			<point x="646" y="742"/>
			<point x="591" y="704"/>
			<point x="527" y="704" type="curve" smooth="yes"/>
			<point x="463" y="704"/>
			<point x="415" y="750"/>
			<point x="415" y="800" type="curve" smooth="yes"/>
			<point x="415" y="868"/>
			<point x="479" y="889"/>
			<point x="479" y="929" type="curve" smooth="yes"/>
			<point x="479" y="961"/>
			<point x="462" y="984"/>
			<point x="412" y="984" type="curve" smooth="yes"/>
			<point x="320" y="984"/>
			<point x="249" y="924"/>
			<point x="249" y="822" type="curve" smooth="yes"/>
			<point x="249" y="592"/>
			<point x="592" y="630"/>
			<point x="592" y="294" type="curve" smooth="yes"/>
			<point x="592" y="116"/>
			<point x="482" y="-24"/>
			<point x="254" y="-24" type="curve" smooth="yes"/>
			<point x="66" y="-24"/>
			<point x="-29" y="82"/>
			<point x="-29" y="222" type="curve" smooth="yes"/>
			<point x="-29" y="328"/>
			<point x="29" y="386"/>
			<point x="99" y="386" type="curve" smooth="yes"/>
			<point x="169" y="386"/>
			<point x="213" y="338"/>
			<point x="213" y="274" type="curve" smooth="yes"/>
			<point x="212" y="198"/>
			<point x="135" y="171"/>
			<point x="135" y="131" type="curve" smooth="yes"/>
			<point x="135" y="85"/>
			<point x="167" y="58"/>
			<point x="255" y="58" type="curve" smooth="yes"/>
			<point x="359" y="58"/>
			<point x="426" y="149"/>
		</contour>
	</outline>
</glyph>
<glyph name="t" format="2">
	<advance width="457" height="2310"/>
	<unicode hex="0074"/>
	<anchor x="323" y="1277" name="Anchor-0"/>
	<anchor x="487" y="1153" name="Anchor-1"/>
	<anchor x="135" y="0" name="Anchor-2"/>
	<outline>
		<contour>
			<point x="128" y="1040" type="curve" smooth="yes"/>
			<point x="176" y="1040" type="line" smooth="yes"/>
			<point x="199" y="1040"/>
			<point x="196" y="1045"/>
			<point x="200" y="1063" type="curve" smooth="yes"/>
			<point x="231" y="1196" type="line" smooth="yes"/>
			<point x="237" y="1223"/>
			<point x="239" y="1219"/>
			<point x="267" y="1225" type="curve" smooth="yes"/>
			<point x="307" y="1232"/>
			<point x="347" y="1250"/>
			<point x="371" y="1263" type="curve" smooth="yes"/>
			<point x="390" y="1273"/>
			<point x="394" y="1276"/>
			<point x="411" y="1276" type="curve" smooth="yes"/>
			<point x="428" y="1276"/>
			<point x="429" y="1273"/>
			<point x="425" y="1257" type="curve" smooth="yes"/>
			<point x="380" y="1060" type="line" smooth="yes"/>
			<point x="376" y="1042"/>
			<point x="373" y="1040"/>
			<point x="393" y="1040" type="curve" smooth="yes"/>
			<point x="436" y="1040" type="line" smooth="yes"/>
			<point x="461" y="1040"/>
			<point x="461" y="1037"/>
			<point x="460" y="1007" type="curve" smooth="yes"/>
			<point x="458" y="958" type="line" smooth="yes"/>
			<point x="457" y="930"/>
			<point x="449" y="930"/>
			<point x="425" y="930" type="curve" smooth="yes"/>
			<point x="367" y="930" type="line" smooth="yes"/>
			<point x="350" y="930"/>
			<point x="351" y="927"/>
			<point x="347" y="911" type="curve" smooth="yes"/>
			<point x="179" y="214" type="line" smooth="yes"/>
			<point x="163" y="147"/>
			<point x="134" y="80"/>
			<point x="191" y="80" type="curve" smooth="yes"/>
			<point x="233" y="80"/>
			<point x="287" y="171"/>
			<point x="307" y="238" type="curve" smooth="yes"/>
			<point x="313" y="258"/>
			<point x="319" y="271"/>
			<point x="339" y="264" type="curve" smooth="yes"/>
			<point x="374" y="251" type="line" smooth="yes"/>
			<point x="392" y="244"/>
			<point x="394" y="242"/>
			<point x="386" y="215" type="curve" smooth="yes"/>
			<point x="352" y="100"/>
			<point x="276" y="-24"/>
			<point x="147" y="-24" type="curve" smooth="yes"/>
			<point x="-8" y="-24"/>
			<point x="-23.482" y="96.252"/>
			<point x="29" y="322" type="curve" smooth="yes"/>
			<point x="165" y="907" type="line" smooth="yes"/>
			<point x="170" y="927"/>
			<point x="167" y="930"/>
			<point x="143" y="930" type="curve" smooth="yes"/>
			<point x="124" y="930" type="line" smooth="yes"/>
			<point x="106" y="930"/>
			<point x="105" y="939"/>
			<point x="105" y="958" type="curve" smooth="yes"/>
			<point x="105" y="1010" type="line" smooth="yes"/>
			<point x="105" y="1032"/>
			<point x="107" y="1040"/>
		</contour>
	</outline>
</glyph>
<glyph name="u" format="2">
	<advance width="856" height="2310"/>
	<unicode hex="0075"/>
	<anchor x="491" y="1040" name="Anchor-0"/>
	<anchor x="282" y="0" name="Anchor-1"/>
	<anchor x="282" y="0" name="Anchor-2"/>
	<anchor x="702" y="30" name="Anchor-3"/>
	<outline>
		<contour>
			<point x="-22" y="811" type="curve" smooth="yes"/>
			<point x="46" y="961"/>
			<point x="96" y="1060"/>
			<point x="231" y="1060" type="curve" smooth="yes"/>
			<point x="338" y="1060"/>
			<point x="370" y="975"/>
			<point x="341" y="856" type="curve" smooth="yes"/>
			<point x="225" y="380" type="line" smooth="yes"/>
			<point x="184" y="213"/>
			<point x="185" y="98"/>
			<point x="251" y="98" type="curve" smooth="yes"/>
			<point x="337" y="98"/>
			<point x="521" y="420"/>
			<point x="583" y="687" type="curve" smooth="yes"/>
			<point x="660" y="1025" type="line" smooth="yes"/>
			<point x="663" y="1037"/>
			<point x="667" y="1040"/>
			<point x="683" y="1040" type="curve" smooth="yes"/>
			<point x="824" y="1040" type="line" smooth="yes"/>
			<point x="844" y="1040"/>
			<point x="845" y="1039"/>
			<point x="841" y="1023" type="curve" smooth="yes"/>
			<point x="640" y="192" type="line" smooth="yes"/>
			<point x="628" y="144"/>
			<point x="607" y="74"/>
			<point x="632" y="74" type="curve" smooth="yes"/>
			<point x="664" y="74"/>
			<point x="701" y="149"/>
			<point x="747" y="254" type="curve" smooth="yes"/>
			<point x="755" y="270"/>
			<point x="760" y="276"/>
			<point x="779" y="268" type="curve" smooth="yes"/>
			<point x="805" y="257" type="line" smooth="yes"/>
			<point x="822" y="250"/>
			<point x="825" y="246"/>
			<point x="818" y="229" type="curve" smooth="yes"/>
			<point x="750" y="79"/>
			<point x="700" y="-20"/>
			<point x="575" y="-20" type="curve" smooth="yes"/>
			<point x="470" y="-20"/>
			<point x="443" y="69"/>
			<point x="472" y="183" type="curve" smooth="yes"/>
			<point x="489" y="249" type="line" smooth="yes"/>
			<point x="497" y="279"/>
			<point x="488" y="280"/>
			<point x="478" y="262" type="curve" smooth="yes"/>
			<point x="394" y="118"/>
			<point x="305" y="-18"/>
			<point x="178" y="-18" type="curve" smooth="yes"/>
			<point x="59" y="-18"/>
			<point x="-25" y="77"/>
			<point x="45" y="358" type="curve" smooth="yes"/>
			<point x="166" y="848" type="line" smooth="yes"/>
			<point x="172" y="873"/>
			<point x="201" y="966"/>
			<point x="172" y="966" type="curve" smooth="yes"/>
			<point x="136" y="966"/>
			<point x="97" y="891"/>
			<point x="49" y="786" type="curve" smooth="yes"/>
			<point x="41" y="770"/>
			<point x="36" y="764"/>
			<point x="17" y="772" type="curve" smooth="yes"/>
			<point x="-9" y="783" type="line" smooth="yes"/>
			<point x="-26" y="790"/>
			<point x="-29" y="794"/>
		</contour>
	</outline>
</glyph>
<glyph name="v" format="2">
	<advance width="754" height="2310"/>
	<unicode hex="0076"/>
	<anchor x="435" y="1040" name="Anchor-0"/>
	<anchor x="317" y="0" name="Anchor-1"/>
	<anchor x="317" y="0" name="Anchor-2"/>
	<outline>
		<contour>
			<point x="534" y="806" type="curve" smooth="yes"/>
			<point x="481" y="806"/>
			<point x="440" y="854"/>
			<point x="443" y="930" type="curve" smooth="yes"/>
			<point x="445" y="990"/>
			<point x="495" y="1058"/>
			<point x="579" y="1058" type="curve" smooth="yes"/>
			<point x="674" y="1058"/>
			<point x="735" y="960"/>
			<point x="735" y="838" type="curve" smooth="yes"/>
			<point x="735" y="505"/>
			<point x="584" y="222"/>
			<point x="283" y="-52" type="curve" smooth="yes"/>
			<point x="266" y="-69"/>
			<point x="260" y="-63"/>
			<point x="241" y="-51" type="curve" smooth="yes"/>
			<point x="190" y="-23" type="line" smooth="yes"/>
			<point x="178" y="-15"/>
			<point x="181" y="-9"/>
			<point x="184" y="12" type="curve" smooth="yes"/>
			<point x="192" y="64"/>
			<point x="192" y="138"/>
			<point x="186" y="210" type="curve" smooth="yes"/>
			<point x="145" y="564"/>
			<point x="70" y="618"/>
			<point x="70" y="796" type="curve" smooth="yes"/>
			<point x="70" y="892"/>
			<point x="123" y="954"/>
			<point x="263" y="1036" type="curve" smooth="yes"/>
			<point x="289" y="1051"/>
			<point x="290" y="1051"/>
			<point x="304" y="1026" type="curve" smooth="yes"/>
			<point x="313" y="1010" type="line" smooth="yes"/>
			<point x="324" y="990"/>
			<point x="332" y="986"/>
			<point x="312" y="972" type="curve" smooth="yes"/>
			<point x="272" y="944"/>
			<point x="241" y="911"/>
			<point x="241" y="826" type="curve" smooth="yes"/>
			<point x="241" y="700"/>
			<point x="312" y="585"/>
			<point x="331" y="299" type="curve" smooth="yes"/>
			<point x="334" y="255"/>
			<point x="337" y="201"/>
			<point x="338" y="167" type="curve" smooth="yes"/>
			<point x="338" y="144"/>
			<point x="340" y="133"/>
			<point x="357" y="155" type="curve" smooth="yes"/>
			<point x="539" y="376"/>
			<point x="627" y="592"/>
			<point x="627" y="798" type="curve" smooth="yes"/>
			<point x="627" y="822"/>
			<point x="620" y="835"/>
			<point x="610" y="835" type="curve" smooth="yes"/>
			<point x="598" y="835"/>
			<point x="578" y="806"/>
		</contour>
	</outline>
</glyph>
<glyph name="w" format="2">
	<advance width="1238" height="2310"/>
	<unicode hex="0077"/>
	<anchor x="831" y="1040" name="Anchor-0"/>
	<anchor x="510" y="0" name="Anchor-1"/>
	<anchor x="510" y="0" name="Anchor-2"/>
	<outline>
		<contour>
			<point x="94" y="811" type="curve" smooth="yes"/>
			<point x="162" y="961"/>
			<point x="212" y="1060"/>
			<point x="347" y="1060" type="curve" smooth="yes"/>
			<point x="411" y="1060"/>
			<point x="471" y="1033"/>
			<point x="471" y="941" type="curve" smooth="yes"/>
			<point x="471" y="921"/>
			<point x="464" y="883"/>
			<point x="457" y="856" type="curve" smooth="yes"/>
			<point x="341" y="380" type="line" smooth="yes"/>
			<point x="300" y="213"/>
			<point x="301" y="98"/>
			<point x="367" y="98" type="curve" smooth="yes"/>
			<point x="448" y="98"/>
			<point x="548" y="301"/>
			<point x="598" y="520" type="curve" smooth="yes"/>
			<point x="710" y="1007" type="line" smooth="yes"/>
			<point x="717" y="1038"/>
			<point x="727" y="1040"/>
			<point x="766" y="1040" type="curve" smooth="yes"/>
			<point x="853" y="1040" type="line" smooth="yes"/>
			<point x="902" y="1040"/>
			<point x="903" y="1036"/>
			<point x="894" y="995" type="curve" smooth="yes"/>
			<point x="739" y="378" type="line" smooth="yes"/>
			<point x="697" y="211"/>
			<point x="678" y="96"/>
			<point x="746" y="96" type="curve" smooth="yes"/>
			<point x="900" y="96"/>
			<point x="1149" y="600"/>
			<point x="1149" y="796" type="curve" smooth="yes"/>
			<point x="1149" y="810"/>
			<point x="1149" y="834"/>
			<point x="1133" y="834" type="curve" smooth="yes"/>
			<point x="1126" y="834"/>
			<point x="1113" y="826"/>
			<point x="1095" y="826" type="curve" smooth="yes"/>
			<point x="1041" y="826"/>
			<point x="997" y="870"/>
			<point x="997" y="940" type="curve" smooth="yes"/>
			<point x="997" y="1012"/>
			<point x="1054" y="1058"/>
			<point x="1126" y="1058" type="curve" smooth="yes"/>
			<point x="1212" y="1058"/>
			<point x="1267" y="978"/>
			<point x="1267" y="856" type="curve" smooth="yes"/>
			<point x="1267" y="587"/>
			<point x="995" y="-20"/>
			<point x="715" y="-20" type="curve" smooth="yes"/>
			<point x="627" y="-20"/>
			<point x="576" y="10"/>
			<point x="565" y="103" type="curve" smooth="yes"/>
			<point x="559" y="155"/>
			<point x="541" y="150"/>
			<point x="505" y="105" type="curve" smooth="yes"/>
			<point x="448" y="30"/>
			<point x="394" y="-18"/>
			<point x="294" y="-18" type="curve" smooth="yes"/>
			<point x="175" y="-18"/>
			<point x="91" y="77"/>
			<point x="161" y="358" type="curve" smooth="yes"/>
			<point x="282" y="848" type="line" smooth="yes"/>
			<point x="287" y="867"/>
			<point x="301" y="933"/>
			<point x="301" y="943" type="curve" smooth="yes"/>
			<point x="301" y="960"/>
			<point x="297" y="966"/>
			<point x="288" y="966" type="curve" smooth="yes"/>
			<point x="252" y="966"/>
			<point x="213" y="891"/>
			<point x="165" y="786" type="curve" smooth="yes"/>
			<point x="157" y="770"/>
			<point x="152" y="764"/>
			<point x="133" y="772" type="curve" smooth="yes"/>
			<point x="107" y="783" type="line" smooth="yes"/>
			<point x="90" y="790"/>
			<point x="87" y="794"/>
		</contour>
	</outline>
</glyph>
<glyph name="x" format="2">
	<advance width="774" height="2310"/>
	<unicode hex="0078"/>
	<anchor x="476" y="1040" name="Anchor-0"/>
	<anchor x="307" y="0" name="Anchor-1"/>
	<anchor x="307" y="0" name="Anchor-2"/>
	<outline>
		<contour>
			<point x="-56" y="132" type="curve" smooth="yes"/>
			<point x="-56" y="200"/>
			<point x="-10" y="272"/>
			<point x="67" y="272" type="curve" smooth="yes"/>
			<point x="139" y="272"/>
			<point x="167" y="226"/>
			<point x="167" y="186" type="curve" smooth="yes"/>
			<point x="166" y="132"/>
			<point x="139" y="132"/>
			<point x="139" y="110" type="curve" smooth="yes"/>
			<point x="139" y="99"/>
			<point x="144" y="92"/>
			<point x="155" y="92" type="curve" smooth="yes"/>
			<point x="187" y="92"/>
			<point x="238" y="208"/>
			<point x="288" y="438" type="curve" smooth="yes"/>
			<point x="300" y="493"/>
			<point x="311" y="512"/>
			<point x="304" y="574" type="curve" smooth="yes"/>
			<point x="292" y="684"/>
			<point x="277" y="803"/>
			<point x="267" y="859" type="curve" smooth="yes"/>
			<point x="263" y="881"/>
			<point x="262" y="906"/>
			<point x="237" y="906" type="curve" smooth="yes"/>
			<point x="211" y="906"/>
			<point x="164" y="818"/>
			<point x="109" y="724" type="curve" smooth="yes"/>
			<point x="96" y="703"/>
			<point x="96" y="695"/>
			<point x="76" y="710" type="curve" smooth="yes"/>
			<point x="48" y="731" type="line" smooth="yes"/>
			<point x="28" y="746"/>
			<point x="28" y="748"/>
			<point x="39" y="768" type="curve" smooth="yes"/>
			<point x="122" y="925"/>
			<point x="208" y="1064"/>
			<point x="299" y="1064" type="curve" smooth="yes"/>
			<point x="369" y="1064"/>
			<point x="396" y="1013"/>
			<point x="405" y="907" type="curve" smooth="yes"/>
			<point x="408" y="878"/>
			<point x="415" y="836"/>
			<point x="416" y="800" type="curve" smooth="yes"/>
			<point x="418" y="723"/>
			<point x="429" y="706"/>
			<point x="443" y="766" type="curve" smooth="yes"/>
			<point x="479" y="918"/>
			<point x="517" y="1060"/>
			<point x="636" y="1060" type="curve" smooth="yes"/>
			<point x="705" y="1060"/>
			<point x="762" y="1012"/>
			<point x="762" y="908" type="curve" smooth="yes"/>
			<point x="762" y="829.994"/>
			<point x="717" y="778"/>
			<point x="645" y="778" type="curve" smooth="yes"/>
			<point x="596" y="778"/>
			<point x="565" y="816"/>
			<point x="565" y="856" type="curve" smooth="yes"/>
			<point x="565" y="900.045"/>
			<point x="578" y="904"/>
			<point x="579" y="926" type="curve" smooth="yes"/>
			<point x="579" y="933"/>
			<point x="579" y="936"/>
			<point x="573" y="936" type="curve" smooth="yes"/>
			<point x="550" y="936"/>
			<point x="519" y="794"/>
			<point x="475" y="600" type="curve" smooth="yes"/>
			<point x="465" y="558"/>
			<point x="457" y="542"/>
			<point x="460" y="492" type="curve" smooth="yes"/>
			<point x="468" y="339"/>
			<point x="480" y="291"/>
			<point x="501" y="185" type="curve" smooth="yes"/>
			<point x="505" y="164"/>
			<point x="515" y="148"/>
			<point x="529" y="148" type="curve" smooth="yes"/>
			<point x="560" y="148"/>
			<point x="585" y="202"/>
			<point x="630" y="288" type="curve" smooth="yes"/>
			<point x="643" y="311"/>
			<point x="643" y="327"/>
			<point x="670" y="314" type="curve" smooth="yes"/>
			<point x="693" y="302" type="line" smooth="yes"/>
			<point x="722" y="287"/>
			<point x="724" y="285"/>
			<point x="709" y="255" type="curve" smooth="yes"/>
			<point x="634" y="101"/>
			<point x="567" y="-20"/>
			<point x="462" y="-20" type="curve" smooth="yes"/>
			<point x="400" y="-20"/>
			<point x="371" y="30"/>
			<point x="358" y="147" type="curve" smooth="yes"/>
			<point x="354" y="180"/>
			<point x="352" y="207"/>
			<point x="347" y="264" type="curve" smooth="yes"/>
			<point x="345" y="291"/>
			<point x="331" y="336"/>
			<point x="318" y="280" type="curve" smooth="yes"/>
			<point x="282" y="125"/>
			<point x="231" y="-20"/>
			<point x="94" y="-20" type="curve" smooth="yes"/>
			<point x="7" y="-20"/>
			<point x="-56" y="48"/>
		</contour>
	</outline>
</glyph>
<glyph name="y" format="2">
	<advance width="738" height="2310"/>
	<unicode hex="0079"/>
	<anchor x="435" y="1040" name="Anchor-0"/>
	<anchor x="-24" y="-565" name="Anchor-1"/>
	<anchor x="-24" y="-565" name="Anchor-2"/>
	<outline>
		<contour>
			<point x="573" y="828" type="curve" smooth="yes"/>
			<point x="513" y="828"/>
			<point x="478" y="874"/>
			<point x="478" y="950" type="curve" smooth="yes"/>
			<point x="478" y="1020.029"/>
			<point x="521" y="1078"/>
			<point x="595" y="1078" type="curve" smooth="yes"/>
			<point x="691" y="1078"/>
			<point x="732" y="1012"/>
			<point x="732" y="920" type="curve" smooth="yes"/>
			<point x="732" y="550"/>
			<point x="282" y="-520"/>
			<point x="-41" y="-520" type="curve" smooth="yes"/>
			<point x="-145" y="-520"/>
			<point x="-227" y="-446"/>
			<point x="-227" y="-312" type="curve" smooth="yes"/>
			<point x="-227" y="-220"/>
			<point x="-158" y="-136"/>
			<point x="-89" y="-136" type="curve" smooth="yes"/>
			<point x="-28" y="-136"/>
			<point x="3" y="-171.992"/>
			<point x="3" y="-234" type="curve" smooth="yes"/>
			<point x="3" y="-340"/>
			<point x="-93" y="-330"/>
			<point x="-93" y="-362" type="curve" smooth="yes"/>
			<point x="-93" y="-386.021"/>
			<point x="-88" y="-420"/>
			<point x="-31" y="-420" type="curve" smooth="yes"/>
			<point x="56" y="-420"/>
			<point x="172" y="-267"/>
			<point x="282" y="-59" type="curve" smooth="yes"/>
			<point x="309" y="-10"/>
			<point x="317" y="-14"/>
			<point x="301" y="48" type="curve" smooth="yes"/>
			<point x="236" y="331"/>
			<point x="193" y="727"/>
			<point x="158" y="849" type="curve" smooth="yes"/>
			<point x="152" y="870"/>
			<point x="145" y="894"/>
			<point x="129" y="894" type="curve" smooth="yes"/>
			<point x="108" y="894"/>
			<point x="73" y="798"/>
			<point x="46" y="711" type="curve" smooth="yes"/>
			<point x="38" y="686"/>
			<point x="32" y="684"/>
			<point x="12" y="685" type="curve" smooth="yes"/>
			<point x="-16" y="687" type="line" smooth="yes"/>
			<point x="-50" y="689"/>
			<point x="-41" y="704"/>
			<point x="-30" y="736" type="curve" smooth="yes"/>
			<point x="24" y="887"/>
			<point x="89" y="1064"/>
			<point x="201" y="1064" type="curve" smooth="yes"/>
			<point x="265" y="1064"/>
			<point x="281" y="1010"/>
			<point x="302" y="915" type="curve" smooth="yes"/>
			<point x="335" y="768"/>
			<point x="367" y="572"/>
			<point x="410" y="310" type="curve" smooth="yes"/>
			<point x="425" y="231"/>
			<point x="444" y="241"/>
			<point x="468" y="302" type="curve" smooth="yes"/>
			<point x="575" y="567"/>
			<point x="629" y="783"/>
			<point x="629" y="828" type="curve" smooth="yes"/>
			<point x="629" y="835"/>
			<point x="628" y="840"/>
			<point x="622" y="840" type="curve" smooth="yes"/>
			<point x="615" y="840"/>
			<point x="601" y="828"/>
		</contour>
	</outline>
</glyph>
<glyph name="z" format="2">
	<advance width="614" height="2310"/>
	<unicode hex="007A"/>
	<anchor x="389" y="1040" name="Anchor-0"/>
	<anchor x="349" y="0" name="Anchor-1"/>
	<anchor x="349" y="0" name="Anchor-2"/>
	<outline>
		<contour>
			<point x="52" y="832" type="curve" smooth="yes"/>
			<point x="125" y="941"/>
			<point x="198" y="1060"/>
			<point x="317" y="1060" type="curve" smooth="yes"/>
			<point x="435" y="1060"/>
			<point x="448" y="982"/>
			<point x="518" y="982" type="curve" smooth="yes"/>
			<point x="558" y="982"/>
			<point x="576" y="999"/>
			<point x="626" y="1043" type="curve" smooth="yes"/>
			<point x="645" y="1059"/>
			<point x="654" y="1058"/>
			<point x="665" y="1044" type="curve" smooth="yes"/>
			<point x="685" y="1019" type="line" smooth="yes"/>
			<point x="696" y="1006"/>
			<point x="696" y="1003"/>
			<point x="683" y="984" type="curve" smooth="yes"/>
			<point x="182" y="247" type="line" smooth="yes"/>
			<point x="162" y="217"/>
			<point x="135" y="199"/>
			<point x="141" y="192" type="curve" smooth="yes"/>
			<point x="148" y="185"/>
			<point x="178" y="201"/>
			<point x="198" y="210" type="curve" smooth="yes"/>
			<point x="215" y="218"/>
			<point x="228" y="220"/>
			<point x="249" y="220" type="curve" smooth="yes"/>
			<point x="306" y="220"/>
			<point x="315" y="176"/>
			<point x="364" y="176" type="curve" smooth="yes"/>
			<point x="438" y="176"/>
			<point x="472" y="254"/>
			<point x="500" y="319" type="curve" smooth="yes"/>
			<point x="508" y="338"/>
			<point x="511" y="343"/>
			<point x="531" y="337" type="curve" smooth="yes"/>
			<point x="575" y="322" type="line" smooth="yes"/>
			<point x="590" y="317"/>
			<point x="591" y="312"/>
			<point x="580" y="284" type="curve" smooth="yes"/>
			<point x="536" y="170"/>
			<point x="476" y="-20"/>
			<point x="326" y="-20" type="curve" smooth="yes"/>
			<point x="248" y="-20"/>
			<point x="215" y="48"/>
			<point x="111" y="48" type="curve" smooth="yes"/>
			<point x="79" y="48"/>
			<point x="55" y="43"/>
			<point x="-17" y="-8" type="curve" smooth="yes"/>
			<point x="-37" y="-22"/>
			<point x="-37" y="-18"/>
			<point x="-52" y="0" type="curve" smooth="yes"/>
			<point x="-62" y="16" type="line" smooth="yes"/>
			<point x="-77" y="35"/>
			<point x="-74" y="43"/>
			<point x="-61" y="62" type="curve" smooth="yes"/>
			<point x="465" y="828" type="line" smooth="yes"/>
			<point x="481" y="851"/>
			<point x="502" y="863"/>
			<point x="498" y="870" type="curve" smooth="yes"/>
			<point x="494" y="876"/>
			<point x="482" y="863"/>
			<point x="452" y="849" type="curve" smooth="yes"/>
			<point x="427" y="837"/>
			<point x="402" y="830"/>
			<point x="377" y="830" type="curve" smooth="yes"/>
			<point x="321" y="830"/>
			<point x="297" y="866"/>
			<point x="232" y="866" type="curve" smooth="yes"/>
			<point x="189" y="866"/>
			<point x="171" y="843"/>
			<point x="128" y="784" type="curve" smooth="yes"/>
			<point x="105" y="753"/>
			<point x="108" y="746"/>
			<point x="72" y="765" type="curve" smooth="yes"/>
			<point x="44" y="780" type="line" smooth="yes"/>
			<point x="17" y="794"/>
			<point x="37" y="809"/>
		</contour>
	</outline>
</glyph>
<glyph name="asciitilde" format="2">
	<advance width="1376" height="2310"/>
	<unicode hex="007E"/>
	<outline>
		<contour>
			<point x="482" y="874" type="curve" smooth="yes"/>
			<point x="394" y="874"/>
			<point x="335" y="818"/>
			<point x="306" y="709" type="curve" smooth="yes"/>
			<point x="300" y="687"/>
			<point x="293" y="686"/>
			<point x="270" y="686" type="curve" smooth="yes"/>
			<point x="220" y="686" type="line" smooth="yes"/>
			<point x="194" y="686"/>
			<point x="187" y="689"/>
			<point x="193" y="714" type="curve" smooth="yes"/>
			<point x="249" y="924"/>
			<point x="404" y="1020"/>
			<point x="555" y="1020" type="curve" smooth="yes"/>
			<point x="795" y="1020"/>
			<point x="755" y="832"/>
			<point x="937" y="832" type="curve" smooth="yes"/>
			<point x="1022" y="832"/>
			<point x="1081" y="885"/>
			<point x="1111" y="989" type="curve" smooth="yes"/>
			<point x="1118" y="1014"/>
			<point x="1125" y="1020"/>
			<point x="1153" y="1020" type="curve" smooth="yes"/>
			<point x="1199" y="1020" type="line" smooth="yes"/>
			<point x="1224" y="1020"/>
			<point x="1234" y="1019"/>
			<point x="1227" y="992" type="curve" smooth="yes"/>
			<point x="1173" y="777"/>
			<point x="1017" y="686"/>
			<point x="864" y="686" type="curve" smooth="yes"/>
			<point x="590" y="686"/>
			<point x="638" y="874"/>
		</contour>
	</outline>
</glyph>
<glyph name="exclamdown" format="2">
	<advance width="638" height="0"/>
	<unicode hex="00A1"/>
	<outline>
		<contour>
			<point x="508" y="940" type="curve" smooth="yes"/>
			<point x="508" y="874"/>
			<point x="454" y="820"/>
			<point x="388" y="820" type="curve" smooth="yes"/>
			<point x="322" y="820"/>
			<point x="268" y="874"/>
			<point x="268" y="940" type="curve" smooth="yes"/>
			<point x="268" y="1006"/>
			<point x="322" y="1060"/>
			<point x="388" y="1060" type="curve" smooth="yes"/>
			<point x="454" y="1060"/>
			<point x="508" y="1006"/>
		</contour>
		<contour>
			<point x="-22" y="-254" type="curve" smooth="yes"/>
			<point x="81" y="73"/>
			<point x="184" y="324"/>
			<point x="256" y="606" type="curve" smooth="yes"/>
			<point x="261" y="625"/>
			<point x="264" y="630"/>
			<point x="289" y="630" type="curve" smooth="yes"/>
			<point x="322" y="630" type="line" smooth="yes"/>
			<point x="340" y="630"/>
			<point x="344" y="628"/>
			<point x="340" y="612" type="curve" smooth="yes"/>
			<point x="275" y="328"/>
			<point x="279" y="45"/>
			<point x="208" y="-310" type="curve" smooth="yes"/>
			<point x="192" y="-390"/>
			<point x="166" y="-478"/>
			<point x="62" y="-478" type="curve" smooth="yes"/>
			<point x="-2" y="-478"/>
			<point x="-42" y="-428"/>
			<point x="-42" y="-364" type="curve" smooth="yes"/>
			<point x="-42" y="-328"/>
			<point x="-32" y="-286"/>
		</contour>
	</outline>
</glyph>
<glyph name="cent" format="2">
	<advance width="744" height="2310"/>
	<unicode hex="00A2"/>
	<outline>
		<contour>
			<point x="595" y="1230" type="curve" smooth="yes"/>
			<point x="655" y="1230" type="line" smooth="yes"/>
			<point x="676" y="1230"/>
			<point x="683" y="1224"/>
			<point x="676" y="1205" type="curve" smooth="yes"/>
			<point x="193" y="-146" type="line" smooth="yes"/>
			<point x="187" y="-163"/>
			<point x="182" y="-170"/>
			<point x="163" y="-170" type="curve" smooth="yes"/>
			<point x="109" y="-170" type="line" smooth="yes"/>
			<point x="87" y="-170"/>
			<point x="79" y="-163"/>
			<point x="85" y="-147" type="curve" smooth="yes"/>
			<point x="568" y="1216" type="line" smooth="yes"/>
			<point x="572" y="1228"/>
			<point x="580" y="1230"/>
		</contour>
		<component base="c"/>
	</outline>
</glyph>
<glyph name="yen" format="2">
	<advance width="1140" height="0"/>
	<unicode hex="00A5"/>
	<outline>
		<contour>
			<point x="154" y="460" type="curve" smooth="yes"/>
			<point x="876" y="460" type="line" smooth="yes"/>
			<point x="906" y="460"/>
			<point x="910" y="456"/>
			<point x="910" y="432" type="curve" smooth="yes"/>
			<point x="910" y="383" type="line" smooth="yes"/>
			<point x="910" y="359"/>
			<point x="907" y="350"/>
			<point x="873" y="350" type="curve" smooth="yes"/>
			<point x="151" y="350" type="line" smooth="yes"/>
			<point x="119" y="350"/>
			<point x="118" y="354"/>
			<point x="118" y="380" type="curve" smooth="yes"/>
			<point x="118" y="432" type="line" smooth="yes"/>
			<point x="118" y="455"/>
			<point x="127" y="460"/>
		</contour>
		<contour>
			<point x="224" y="740" type="curve" smooth="yes"/>
			<point x="946" y="740" type="line" smooth="yes"/>
			<point x="976" y="740"/>
			<point x="980" y="736"/>
			<point x="980" y="712" type="curve" smooth="yes"/>
			<point x="980" y="663" type="line" smooth="yes"/>
			<point x="980" y="639"/>
			<point x="977" y="630"/>
			<point x="943" y="630" type="curve" smooth="yes"/>
			<point x="221" y="630" type="line" smooth="yes"/>
			<point x="189" y="630"/>
			<point x="188" y="634"/>
			<point x="188" y="660" type="curve" smooth="yes"/>
			<point x="188" y="712" type="line" smooth="yes"/>
			<point x="188" y="735"/>
			<point x="197" y="740"/>
		</contour>
		<component base="Y"/>
	</outline>
</glyph>
<glyph name="brokenbar" format="2">
	<advance width="479" height="0"/>
	<unicode hex="00A6"/>
	<outline>
		<contour>
			<point x="372" y="1560" type="line"/>
			<point x="485" y="1560" type="line"/>
			<point x="327" y="818" type="line"/>
			<point x="214" y="818" type="line"/>
		</contour>
		<contour>
			<point x="111" y="332" type="line"/>
			<point x="224" y="332" type="line"/>
			<point x="47" y="-500" type="line"/>
			<point x="-66" y="-500" type="line"/>
		</contour>
	</outline>
</glyph>
<glyph name="copyright" format="2">
	<advance width="1441" height="0"/>
	<unicode hex="00A9"/>
	<outline>
		<contour>
			<point x="927" y="1520" type="curve" smooth="yes"/>
			<point x="1371" y="1520"/>
			<point x="1475" y="1192"/>
			<point x="1377" y="750" type="curve" smooth="yes"/>
			<point x="1279" y="306"/>
			<point x="1028" y="-20"/>
			<point x="586" y="-20" type="curve" smooth="yes"/>
			<point x="142" y="-20"/>
			<point x="38" y="308"/>
			<point x="136" y="750" type="curve" smooth="yes"/>
			<point x="234" y="1193"/>
			<point x="485" y="1520"/>
		</contour>
		<contour>
			<point x="606" y="73" type="curve" smooth="yes"/>
			<point x="989" y="73"/>
			<point x="1193" y="349"/>
			<point x="1282" y="750" type="curve" smooth="yes"/>
			<point x="1371" y="1151"/>
			<point x="1287" y="1427"/>
			<point x="906" y="1427" type="curve" smooth="yes"/>
			<point x="523" y="1427"/>
			<point x="319" y="1151"/>
			<point x="230" y="750" type="curve" smooth="yes"/>
			<point x="141" y="347"/>
			<point x="225" y="73"/>
		</contour>
		<component base="C" xScale="0.6" yScale="0.6" xOffset="394" yOffset="290"/>
	</outline>
</glyph>
<glyph name="ordfeminine" format="2">
	<advance width="703" height="2310"/>
	<unicode hex="00AA"/>
	<outline>
		<contour>
			<point x="553" y="1348" type="curve" smooth="yes"/>
			<point x="553" y="1449"/>
			<point x="532" y="1538"/>
			<point x="435" y="1538" type="curve" smooth="yes"/>
			<point x="334" y="1538"/>
			<point x="207" y="1353"/>
			<point x="207" y="1180" type="curve" smooth="yes"/>
			<point x="207" y="1079"/>
			<point x="250" y="1014"/>
			<point x="327" y="1014" type="curve" smooth="yes"/>
			<point x="436" y="1014"/>
			<point x="553" y="1211"/>
		</contour>
		<contour>
			<point x="786" y="1149" type="curve" smooth="yes"/>
			<point x="740" y="1034"/>
			<point x="660" y="952"/>
			<point x="577" y="952" type="curve" smooth="yes"/>
			<point x="521" y="952"/>
			<point x="491" y="986"/>
			<point x="491" y="1028" type="curve" smooth="yes"/>
			<point x="491" y="1045"/>
			<point x="492" y="1052"/>
			<point x="494" y="1059" type="curve" smooth="yes"/>
			<point x="496" y="1067"/>
			<point x="492" y="1067"/>
			<point x="485" y="1059" type="curve" smooth="yes"/>
			<point x="433" y="996"/>
			<point x="367" y="952"/>
			<point x="293" y="952" type="curve" smooth="yes"/>
			<point x="186" y="952"/>
			<point x="87" y="1012"/>
			<point x="87" y="1180" type="curve" smooth="yes"/>
			<point x="87" y="1420"/>
			<point x="294" y="1599"/>
			<point x="425" y="1599" type="curve" smooth="yes"/>
			<point x="505" y="1599"/>
			<point x="550" y="1561"/>
			<point x="573" y="1499" type="curve" smooth="yes"/>
			<point x="586" y="1465"/>
			<point x="586" y="1471"/>
			<point x="592" y="1497" type="curve" smooth="yes"/>
			<point x="609" y="1572" type="line" smooth="yes"/>
			<point x="611" y="1583"/>
			<point x="615" y="1588"/>
			<point x="629" y="1588" type="curve" smooth="yes"/>
			<point x="695" y="1588" type="line" smooth="yes"/>
			<point x="720" y="1588"/>
			<point x="723" y="1584"/>
			<point x="718" y="1565" type="curve" smooth="yes"/>
			<point x="599" y="1071" type="line" smooth="yes"/>
			<point x="597" y="1064"/>
			<point x="597" y="1055"/>
			<point x="597" y="1049" type="curve" smooth="yes"/>
			<point x="597" y="1036"/>
			<point x="603" y="1026"/>
			<point x="619" y="1026" type="curve" smooth="yes"/>
			<point x="657" y="1026"/>
			<point x="711" y="1089"/>
			<point x="740" y="1163" type="curve" smooth="yes"/>
			<point x="744" y="1174"/>
			<point x="744" y="1176"/>
			<point x="755" y="1172" type="curve" smooth="yes"/>
			<point x="779" y="1163" type="line" smooth="yes"/>
			<point x="790" y="1159"/>
			<point x="790" y="1160"/>
		</contour>
	</outline>
</glyph>
<glyph name="guillemetleft" format="2">
	<advance width="1390" height="0"/>
	<unicode hex="00AB"/>
	<outline>
		<contour>
			<point x="867" y="775" type="line"/>
			<point x="1251" y="380" type="line"/>
			<point x="1172" y="290" type="line"/>
			<point x="609" y="750" type="line"/>
			<point x="620" y="800" type="line"/>
			<point x="1378" y="1260" type="line"/>
			<point x="1419" y="1170" type="line"/>
		</contour>
		<contour>
			<point x="307" y="775" type="line"/>
			<point x="691" y="380" type="line"/>
			<point x="612" y="290" type="line"/>
			<point x="49" y="750" type="line"/>
			<point x="60" y="800" type="line"/>
			<point x="818" y="1260" type="line"/>
			<point x="859" y="1170" type="line"/>
		</contour>
	</outline>
</glyph>
<glyph name="logicalnot" format="2">
	<advance width="971" height="0"/>
	<unicode hex="00AC"/>
	<outline>
		<contour>
			<point x="665" y="406" type="line"/>
			<point x="731" y="716" type="line"/>
			<point x="112" y="716" type="line"/>
			<point x="136" y="830" type="line"/>
			<point x="868" y="830" type="line"/>
			<point x="778" y="406" type="line"/>
		</contour>
	</outline>
</glyph>
<glyph name="twosuperior" format="2">
	<advance width="675" height="2310"/>
	<unicode hex="00B2"/>
	<outline>
		<contour>
			<point x="704" y="1109" type="curve" smooth="yes"/>
			<point x="713" y="952"/>
			<point x="610" y="902"/>
			<point x="506" y="902" type="curve" smooth="yes"/>
			<point x="378" y="902"/>
			<point x="306" y="974"/>
			<point x="218" y="974" type="curve" smooth="yes"/>
			<point x="183" y="974"/>
			<point x="164" y="958"/>
			<point x="152" y="932" type="curve" smooth="yes"/>
			<point x="148" y="922"/>
			<point x="145" y="914"/>
			<point x="129" y="914" type="curve" smooth="yes"/>
			<point x="100" y="914" type="line" smooth="yes"/>
			<point x="87" y="914"/>
			<point x="86" y="920"/>
			<point x="86" y="931" type="curve" smooth="yes"/>
			<point x="91" y="1098"/>
			<point x="257" y="1224"/>
			<point x="430" y="1333" type="curve" smooth="yes"/>
			<point x="519" y="1389"/>
			<point x="682" y="1509"/>
			<point x="682" y="1646" type="curve" smooth="yes"/>
			<point x="682" y="1741"/>
			<point x="621" y="1776"/>
			<point x="526" y="1776" type="curve" smooth="yes"/>
			<point x="431" y="1776"/>
			<point x="344" y="1722"/>
			<point x="344" y="1690" type="curve" smooth="yes"/>
			<point x="344" y="1662"/>
			<point x="400" y="1657"/>
			<point x="400" y="1602" type="curve" smooth="yes"/>
			<point x="400" y="1558"/>
			<point x="361" y="1532"/>
			<point x="329" y="1532" type="curve" smooth="yes"/>
			<point x="288" y="1532"/>
			<point x="249" y="1559"/>
			<point x="249" y="1611" type="curve" smooth="yes"/>
			<point x="249" y="1721"/>
			<point x="368" y="1826"/>
			<point x="544" y="1826" type="curve" smooth="yes"/>
			<point x="701" y="1826"/>
			<point x="816" y="1772"/>
			<point x="816" y="1634" type="curve" smooth="yes"/>
			<point x="816" y="1490"/>
			<point x="630" y="1358"/>
			<point x="460" y="1274" type="curve" smooth="yes"/>
			<point x="342" y="1215"/>
			<point x="212" y="1105"/>
			<point x="162" y="1036" type="curve" smooth="yes"/>
			<point x="148" y="1016"/>
			<point x="140" y="994"/>
			<point x="150" y="994" type="curve" smooth="yes"/>
			<point x="161" y="994"/>
			<point x="160" y="1012"/>
			<point x="176" y="1029" type="curve" smooth="yes"/>
			<point x="204" y="1057"/>
			<point x="266" y="1075"/>
			<point x="314" y="1075" type="curve" smooth="yes"/>
			<point x="404" y="1075"/>
			<point x="452" y="1023"/>
			<point x="543" y="1023" type="curve" smooth="yes"/>
			<point x="613" y="1023"/>
			<point x="643" y="1055"/>
			<point x="647" y="1110" type="curve" smooth="yes"/>
			<point x="649" y="1124"/>
			<point x="648" y="1126"/>
			<point x="664" y="1126" type="curve" smooth="yes"/>
			<point x="688" y="1126" type="line" smooth="yes"/>
			<point x="702" y="1126"/>
			<point x="703" y="1123"/>
		</contour>
	</outline>
</glyph>
<glyph name="micro" format="2">
	<advance width="856" height="0"/>
	<unicode hex="00B5"/>
	<outline>
		<contour>
			<point x="283.122" y="847" type="line"/>
			<point x="-18.878" y="-242" type="line" smooth="yes"/>
			<point x="-54.878" y="-413"/>
			<point x="36.122" y="-423"/>
			<point x="46.122" y="-415" type="curve" smooth="yes"/>
			<point x="55.122" y="-407"/>
			<point x="46.122" y="-407"/>
			<point x="46.122" y="-352" type="curve" smooth="yes"/>
			<point x="46.122" y="-287"/>
			<point x="97.122" y="-246"/>
			<point x="172.122" y="-246" type="curve" smooth="yes"/>
			<point x="242.122" y="-246"/>
			<point x="286.122" y="-288"/>
			<point x="286.122" y="-360" type="curve" smooth="yes"/>
			<point x="286.122" y="-453"/>
			<point x="189.122" y="-520"/>
			<point x="89.122" y="-520" type="curve" smooth="yes"/>
			<point x="-72.878" y="-520"/>
			<point x="-165.878" y="-409"/>
			<point x="-130.878" y="-242" type="curve" smooth="yes"/>
			<point x="171.122" y="847" type="line"/>
		</contour>
		<component base="u"/>
	</outline>
</glyph>
<glyph name="paragraph" format="2">
	<advance width="1232" height="0"/>
	<unicode hex="00B6"/>
	<outline>
		<contour>
			<point x="663" y="-144" type="curve" smooth="yes"/>
			<point x="983" y="1358" type="line" smooth="yes"/>
			<point x="989" y="1385"/>
			<point x="974" y="1387"/>
			<point x="945" y="1387" type="curve" smooth="yes"/>
			<point x="901" y="1387" type="line" smooth="yes"/>
			<point x="863" y="1387"/>
			<point x="861" y="1379"/>
			<point x="853" y="1342" type="curve" smooth="yes"/>
			<point x="538" y="-136" type="line" smooth="yes"/>
			<point x="531" y="-168"/>
			<point x="538" y="-187"/>
			<point x="575" y="-187" type="curve" smooth="yes"/>
			<point x="611" y="-187" type="line" smooth="yes"/>
			<point x="653" y="-187"/>
			<point x="654" y="-184"/>
		</contour>
		<contour>
			<point x="206" y="1039" type="curve" smooth="yes"/>
			<point x="206" y="1286"/>
			<point x="338" y="1500"/>
			<point x="626" y="1500" type="curve" smooth="yes"/>
			<point x="1159" y="1500" type="line" smooth="yes"/>
			<point x="1187" y="1500"/>
			<point x="1196" y="1496"/>
			<point x="1196" y="1466" type="curve" smooth="yes"/>
			<point x="1196" y="1428" type="line" smooth="yes"/>
			<point x="1196" y="1390"/>
			<point x="1188" y="1387"/>
			<point x="1149" y="1387" type="curve" smooth="yes"/>
			<point x="1139" y="1387" type="line" smooth="yes"/>
			<point x="1097" y="1387"/>
			<point x="1099" y="1376"/>
			<point x="1090" y="1336" type="curve" smooth="yes"/>
			<point x="776" y="-132" type="line" smooth="yes"/>
			<point x="769" y="-165"/>
			<point x="779" y="-187"/>
			<point x="817" y="-187" type="curve" smooth="yes"/>
			<point x="831" y="-187" type="line" smooth="yes"/>
			<point x="857" y="-187"/>
			<point x="866" y="-188"/>
			<point x="866" y="-214" type="curve" smooth="yes"/>
			<point x="866" y="-259" type="line" smooth="yes"/>
			<point x="866" y="-293"/>
			<point x="860" y="-300"/>
			<point x="827" y="-300" type="curve" smooth="yes"/>
			<point x="371" y="-300" type="line" smooth="yes"/>
			<point x="345" y="-300"/>
			<point x="325" y="-299"/>
			<point x="325" y="-270" type="curve" smooth="yes"/>
			<point x="325" y="-246" type="line" smooth="yes"/>
			<point x="325" y="-197"/>
			<point x="326" y="-187"/>
			<point x="375" y="-187" type="curve" smooth="yes"/>
			<point x="383" y="-187" type="line" smooth="yes"/>
			<point x="415" y="-187"/>
			<point x="418" y="-185"/>
			<point x="425" y="-154" type="curve" smooth="yes"/>
			<point x="615" y="740" type="line" smooth="yes"/>
			<point x="615" y="775"/>
			<point x="606" y="779"/>
			<point x="573" y="779" type="curve" smooth="yes"/>
			<point x="496" y="779" type="line" smooth="yes"/>
			<point x="299" y="779"/>
			<point x="206" y="862"/>
		</contour>
	</outline>
</glyph>
<glyph name="onesuperior" format="2">
	<advance width="630" height="2310"/>
	<unicode hex="00B9"/>
	<outline>
		<contour>
			<point x="-24" y="935" type="curve" smooth="yes"/>
			<point x="-24" y="960" type="line" smooth="yes"/>
			<point x="-24" y="977"/>
			<point x="-17" y="978"/>
			<point x="0" y="978" type="curve" smooth="yes"/>
			<point x="155" y="978" type="line" smooth="yes"/>
			<point x="177" y="978"/>
			<point x="182" y="984"/>
			<point x="186" y="1003" type="curve" smooth="yes"/>
			<point x="318" y="1616" type="line" smooth="yes"/>
			<point x="318" y="1638"/>
			<point x="316" y="1644"/>
			<point x="295" y="1644" type="curve" smooth="yes"/>
			<point x="173" y="1644" type="line" smooth="yes"/>
			<point x="156" y="1644"/>
			<point x="146" y="1645"/>
			<point x="146" y="1664" type="curve" smooth="yes"/>
			<point x="146" y="1682" type="line" smooth="yes"/>
			<point x="146" y="1704"/>
			<point x="149" y="1710"/>
			<point x="172" y="1710" type="curve" smooth="yes"/>
			<point x="288" y="1711"/>
			<point x="348" y="1719"/>
			<point x="412" y="1835" type="curve" smooth="yes"/>
			<point x="419" y="1847"/>
			<point x="423" y="1860"/>
			<point x="443" y="1860" type="curve" smooth="yes"/>
			<point x="460" y="1860" type="line" smooth="yes"/>
			<point x="475" y="1860"/>
			<point x="483" y="1858"/>
			<point x="480" y="1844" type="curve" smooth="yes"/>
			<point x="300" y="1009" type="line" smooth="yes"/>
			<point x="294" y="982"/>
			<point x="303" y="978"/>
			<point x="332" y="978" type="curve" smooth="yes"/>
			<point x="460" y="978" type="line" smooth="yes"/>
			<point x="476" y="978"/>
			<point x="486" y="977"/>
			<point x="486" y="960" type="curve" smooth="yes"/>
			<point x="486" y="936" type="line" smooth="yes"/>
			<point x="486" y="917"/>
			<point x="485" y="912"/>
			<point x="466" y="912" type="curve" smooth="yes"/>
			<point x="-4" y="912" type="line" smooth="yes"/>
			<point x="-22" y="912"/>
			<point x="-24" y="916"/>
		</contour>
	</outline>
</glyph>
<glyph name="ordmasculine" format="2">
	<advance width="654" height="2310"/>
	<unicode hex="00BA"/>
	<outline>
		<contour>
			<point x="10" y="1178" type="curve" smooth="yes"/>
			<point x="10" y="1406"/>
			<point x="176" y="1598"/>
			<point x="369" y="1598" type="curve" smooth="yes"/>
			<point x="514" y="1598"/>
			<point x="608" y="1502"/>
			<point x="608" y="1370" type="curve" smooth="yes"/>
			<point x="608" y="1142"/>
			<point x="442" y="950"/>
			<point x="249" y="950" type="curve" smooth="yes"/>
			<point x="104" y="950"/>
			<point x="10" y="1046"/>
		</contour>
		<contour>
			<point x="136" y="1178" type="curve" smooth="yes"/>
			<point x="136" y="1089"/>
			<point x="166" y="1004"/>
			<point x="249" y="1004" type="curve" smooth="yes"/>
			<point x="380" y="1004"/>
			<point x="482" y="1185"/>
			<point x="482" y="1370" type="curve" smooth="yes"/>
			<point x="482" y="1459"/>
			<point x="452" y="1544"/>
			<point x="369" y="1544" type="curve" smooth="yes"/>
			<point x="238" y="1544"/>
			<point x="136" y="1363"/>
		</contour>
	</outline>
</glyph>
<glyph name="AE" format="2">
	<advance width="2278" height="0"/>
	<unicode hex="00C6"/>
	<outline>
		<contour>
			<point x="1145" y="1390" type="line"/>
			<point x="1105" y="1390"/>
			<point x="1077.899" y="1378.916"/>
			<point x="1047" y="1328" type="curve" smooth="yes"/>
			<point x="604" y="598" type="line" smooth="yes"/>
			<point x="585.391" y="567.335"/>
			<point x="596" y="550"/>
			<point x="659" y="550" type="curve" smooth="yes"/>
			<point x="1096" y="550" type="line"/>
			<point x="1106" y="440" type="line"/>
			<point x="542" y="440" type="line" smooth="yes"/>
			<point x="509" y="440"/>
			<point x="493" y="440"/>
			<point x="481" y="420" type="curve" smooth="yes"/>
			<point x="298" y="144" type="line" smooth="yes"/>
			<point x="282" y="125"/>
			<point x="284" y="110"/>
			<point x="326" y="110" type="curve" smooth="yes"/>
			<point x="346" y="110" type="line" smooth="yes"/>
			<point x="368" y="110"/>
			<point x="380" y="106"/>
			<point x="380" y="82" type="curve" smooth="yes"/>
			<point x="380" y="38" type="line" smooth="yes"/>
			<point x="380" y="5"/>
			<point x="374" y="0"/>
			<point x="340" y="0" type="curve" smooth="yes"/>
			<point x="28" y="0" type="line" smooth="yes"/>
			<point x="-3" y="0"/>
			<point x="0" y="4"/>
			<point x="0" y="34" type="curve" smooth="yes"/>
			<point x="0" y="72" type="line" smooth="yes"/>
			<point x="0" y="101"/>
			<point x="1" y="110"/>
			<point x="30" y="110" type="curve" smooth="yes"/>
			<point x="68" y="110" type="line" smooth="yes"/>
			<point x="105" y="110"/>
			<point x="112" y="124"/>
			<point x="129" y="144" type="curve" smooth="yes"/>
			<point x="1012" y="1472" type="line" smooth="yes"/>
			<point x="1027" y="1489"/>
			<point x="1029" y="1500"/>
			<point x="1063" y="1500" type="curve" smooth="yes"/>
			<point x="1128" y="1500" type="line"/>
		</contour>
		<component base="E" xOffset="820"/>
	</outline>
</glyph>
<glyph name="Eth" format="2">
	<advance width="1124" height="0"/>
	<unicode hex="00D0"/>
	<outline>
		<contour>
			<point x="110" y="840" type="curve" smooth="yes"/>
			<point x="552" y="840" type="line" smooth="yes"/>
			<point x="580" y="840"/>
			<point x="583" y="836"/>
			<point x="583" y="812" type="curve" smooth="yes"/>
			<point x="583" y="763" type="line" smooth="yes"/>
			<point x="583" y="739"/>
			<point x="581" y="730"/>
			<point x="549" y="730" type="curve" smooth="yes"/>
			<point x="108" y="730" type="line" smooth="yes"/>
			<point x="78" y="730"/>
			<point x="76" y="734"/>
			<point x="76" y="760" type="curve" smooth="yes"/>
			<point x="76" y="812" type="line" smooth="yes"/>
			<point x="76" y="835"/>
			<point x="84" y="840"/>
		</contour>
		<component base="D"/>
	</outline>
</glyph>
<glyph name="Oslash" format="2">
	<advance width="1050" height="0"/>
	<unicode hex="00D8"/>
	<outline>
		<contour>
			<point x="996" y="1660" type="curve" smooth="yes"/>
			<point x="1041" y="1660" type="line" smooth="yes"/>
			<point x="1079" y="1660"/>
			<point x="1084" y="1653"/>
			<point x="1070" y="1630" type="curve" smooth="yes"/>
			<point x="133" y="-168" type="line" smooth="yes"/>
			<point x="117" y="-194"/>
			<point x="112" y="-200"/>
			<point x="71" y="-200" type="curve" smooth="yes"/>
			<point x="39" y="-200" type="line" smooth="yes"/>
			<point x="-10" y="-200"/>
			<point x="-18" y="-186"/>
			<point x="-1" y="-158" type="curve" smooth="yes"/>
			<point x="940" y="1626" type="line" smooth="yes"/>
			<point x="955" y="1651"/>
			<point x="956" y="1660"/>
		</contour>
		<component base="O"/>
	</outline>
</glyph>
<glyph name="Thorn" format="2">
	<advance width="1006" height="0"/>
	<unicode hex="00DE"/>
	<outline>
		<contour>
			<point x="422" y="1049" type="curve" smooth="yes"/>
			<point x="297" y="470" type="line" smooth="yes"/>
			<point x="293" y="453"/>
			<point x="307" y="450"/>
			<point x="340" y="450" type="curve" smooth="yes"/>
			<point x="418" y="450" type="line" smooth="yes"/>
			<point x="650" y="450"/>
			<point x="768" y="632"/>
			<point x="768" y="890" type="curve" smooth="yes"/>
			<point x="768" y="988"/>
			<point x="730" y="1070"/>
			<point x="598" y="1070" type="curve" smooth="yes"/>
			<point x="460" y="1070" type="line" smooth="yes"/>
			<point x="436" y="1070"/>
			<point x="426" y="1069"/>
		</contour>
		<contour>
			<point x="-116" y="34" type="curve" smooth="yes"/>
			<point x="-116" y="82" type="line" smooth="yes"/>
			<point x="-116" y="105"/>
			<point x="-108" y="110"/>
			<point x="-86" y="110" type="curve" smooth="yes"/>
			<point x="-32" y="110" type="line" smooth="yes"/>
			<point x="14" y="110"/>
			<point x="20" y="112"/>
			<point x="29" y="151" type="curve" smooth="yes"/>
			<point x="284" y="1348" type="line" smooth="yes"/>
			<point x="293" y="1387"/>
			<point x="288" y="1390"/>
			<point x="238" y="1390" type="curve" smooth="yes"/>
			<point x="218" y="1390" type="line" smooth="yes"/>
			<point x="192" y="1390"/>
			<point x="192" y="1395"/>
			<point x="192" y="1421" type="curve" smooth="yes"/>
			<point x="192" y="1464" type="line" smooth="yes"/>
			<point x="192" y="1494"/>
			<point x="197" y="1500"/>
			<point x="226" y="1500" type="curve" smooth="yes"/>
			<point x="574" y="1500" type="line" smooth="yes"/>
			<point x="602" y="1500"/>
			<point x="610" y="1496"/>
			<point x="610" y="1466" type="curve" smooth="yes"/>
			<point x="610" y="1422" type="line" smooth="yes"/>
			<point x="610" y="1393"/>
			<point x="602" y="1390"/>
			<point x="572" y="1390" type="curve" smooth="yes"/>
			<point x="528" y="1390" type="line" smooth="yes"/>
			<point x="486" y="1390"/>
			<point x="491" y="1379"/>
			<point x="484" y="1346" type="curve" smooth="yes"/>
			<point x="453" y="1198" type="line" smooth="yes"/>
			<point x="449" y="1180"/>
			<point x="448" y="1180"/>
			<point x="470" y="1180" type="curve" smooth="yes"/>
			<point x="598" y="1180" type="line" smooth="yes"/>
			<point x="910" y="1180"/>
			<point x="988" y="1070"/>
			<point x="988" y="890" type="curve" smooth="yes"/>
			<point x="988" y="550"/>
			<point x="790" y="340"/>
			<point x="418" y="340" type="curve" smooth="yes"/>
			<point x="300" y="340" type="line" smooth="yes"/>
			<point x="270" y="340"/>
			<point x="269" y="336"/>
			<point x="266" y="321" type="curve" smooth="yes"/>
			<point x="231" y="150" type="line" smooth="yes"/>
			<point x="222" y="111"/>
			<point x="230" y="110"/>
			<point x="278" y="110" type="curve" smooth="yes"/>
			<point x="300" y="110" type="line" smooth="yes"/>
			<point x="342" y="110"/>
			<point x="344" y="102"/>
			<point x="344" y="60" type="curve" smooth="yes"/>
			<point x="344" y="38" type="line" smooth="yes"/>
			<point x="344" y="8"/>
			<point x="341" y="0"/>
			<point x="312" y="0" type="curve" smooth="yes"/>
			<point x="-78" y="0" type="line" smooth="yes"/>
			<point x="-109" y="0"/>
			<point x="-116" y="4"/>
		</contour>
	</outline>
</glyph>
<glyph name="germandbls" format="2">
	<advance width="1011" height="2309"/>
	<unicode hex="00DF"/>
	<outline>
		<contour>
			<point x="880" y="320" type="curve" smooth="yes"/>
			<point x="880" y="95"/>
			<point x="790" y="-20"/>
			<point x="548" y="-20" type="curve" smooth="yes"/>
			<point x="395" y="-20"/>
			<point x="277" y="71"/>
			<point x="277" y="221" type="curve" smooth="yes"/>
			<point x="277" y="305"/>
			<point x="339" y="372"/>
			<point x="419" y="372" type="curve" smooth="yes"/>
			<point x="480" y="372"/>
			<point x="523" y="333"/>
			<point x="523" y="260" type="curve" smooth="yes"/>
			<point x="523" y="224"/>
			<point x="493" y="196"/>
			<point x="464" y="176" type="curve" smooth="yes"/>
			<point x="438" y="159"/>
			<point x="436.317" y="151.244"/>
			<point x="447" y="137" type="curve" smooth="yes"/>
			<point x="471" y="105"/>
			<point x="515" y="93"/>
			<point x="553" y="93" type="curve" smooth="yes"/>
			<point x="621" y="93"/>
			<point x="672" y="159"/>
			<point x="672" y="290" type="curve" smooth="yes"/>
			<point x="672" y="512"/>
			<point x="623" y="572"/>
			<point x="623" y="787" type="curve" smooth="yes"/>
			<point x="623" y="1042"/>
			<point x="932" y="1101"/>
			<point x="932" y="1293" type="curve" smooth="yes"/>
			<point x="932" y="1378"/>
			<point x="865" y="1463"/>
			<point x="717" y="1463" type="curve" smooth="yes"/>
			<point x="469" y="1463"/>
			<point x="415" y="1246"/>
			<point x="355" y="962" type="curve" smooth="yes"/>
			<point x="159" y="37" type="line" smooth="yes"/>
			<point x="152" y="5"/>
			<point x="145" y="0"/>
			<point x="111" y="0" type="curve" smooth="yes"/>
			<point x="-84" y="0" type="line" smooth="yes"/>
			<point x="-112" y="0"/>
			<point x="-113" y="8"/>
			<point x="-114" y="37" type="curve" smooth="yes"/>
			<point x="-114" y="80" type="line" smooth="yes"/>
			<point x="-114" y="108"/>
			<point x="-99" y="113"/>
			<point x="-73" y="113" type="curve" smooth="yes"/>
			<point x="-43" y="113" type="line" smooth="yes"/>
			<point x="-7" y="113"/>
			<point x="-3" y="128"/>
			<point x="4" y="161" type="curve" smooth="yes"/>
			<point x="179" y="982" type="line" smooth="yes"/>
			<point x="253" y="1328"/>
			<point x="364" y="1570"/>
			<point x="740" y="1570" type="curve" smooth="yes"/>
			<point x="956" y="1570"/>
			<point x="1111" y="1508"/>
			<point x="1111" y="1322" type="curve" smooth="yes"/>
			<point x="1111" y="1098"/>
			<point x="783" y="956"/>
			<point x="783" y="843" type="curve" smooth="yes"/>
			<point x="783" y="714"/>
			<point x="880" y="558"/>
		</contour>
	</outline>
</glyph>
